%TF.GenerationSoftware,KiCad,Pcbnew,9.0.0*%
%TF.CreationDate,2025-03-28T12:19:00+02:00*%
%TF.ProjectId,EEE3088F_V1.0,45454533-3038-4384-965f-56312e302e6b,rev?*%
%TF.SameCoordinates,Original*%
%TF.FileFunction,Soldermask,Top*%
%TF.FilePolarity,Negative*%
%FSLAX46Y46*%
G04 Gerber Fmt 4.6, Leading zero omitted, Abs format (unit mm)*
G04 Created by KiCad (PCBNEW 9.0.0) date 2025-03-28 12:19:00*
%MOMM*%
%LPD*%
G01*
G04 APERTURE LIST*
G04 Aperture macros list*
%AMRoundRect*
0 Rectangle with rounded corners*
0 $1 Rounding radius*
0 $2 $3 $4 $5 $6 $7 $8 $9 X,Y pos of 4 corners*
0 Add a 4 corners polygon primitive as box body*
4,1,4,$2,$3,$4,$5,$6,$7,$8,$9,$2,$3,0*
0 Add four circle primitives for the rounded corners*
1,1,$1+$1,$2,$3*
1,1,$1+$1,$4,$5*
1,1,$1+$1,$6,$7*
1,1,$1+$1,$8,$9*
0 Add four rect primitives between the rounded corners*
20,1,$1+$1,$2,$3,$4,$5,0*
20,1,$1+$1,$4,$5,$6,$7,0*
20,1,$1+$1,$6,$7,$8,$9,0*
20,1,$1+$1,$8,$9,$2,$3,0*%
%AMFreePoly0*
4,1,14,0.885355,0.885355,0.900000,0.850000,0.900000,-0.850000,0.885355,-0.885355,0.850000,-0.900000,-0.425000,-0.900000,-0.460355,-0.885355,-0.885355,-0.460355,-0.900000,-0.425000,-0.900000,0.850000,-0.885355,0.885355,-0.850000,0.900000,0.850000,0.900000,0.885355,0.885355,0.885355,0.885355,$1*%
G04 Aperture macros list end*
%ADD10RoundRect,0.219000X0.219000X0.294000X-0.219000X0.294000X-0.219000X-0.294000X0.219000X-0.294000X0*%
%ADD11RoundRect,0.150000X0.150000X-0.400000X0.150000X0.400000X-0.150000X0.400000X-0.150000X-0.400000X0*%
%ADD12RoundRect,0.244000X0.244000X0.269000X-0.244000X0.269000X-0.244000X-0.269000X0.244000X-0.269000X0*%
%ADD13RoundRect,0.050800X0.603750X0.850500X-0.603750X0.850500X-0.603750X-0.850500X0.603750X-0.850500X0*%
%ADD14O,1.401600X1.401600*%
%ADD15RoundRect,0.159000X0.189000X-0.159000X0.189000X0.159000X-0.189000X0.159000X-0.189000X-0.159000X0*%
%ADD16O,1.200000X1.750000*%
%ADD17RoundRect,0.250000X-0.350000X-0.625000X0.350000X-0.625000X0.350000X0.625000X-0.350000X0.625000X0*%
%ADD18RoundRect,0.244000X0.269000X-0.244000X0.269000X0.244000X-0.269000X0.244000X-0.269000X-0.244000X0*%
%ADD19RoundRect,0.219000X-0.294000X0.219000X-0.294000X-0.219000X0.294000X-0.219000X0.294000X0.219000X0*%
%ADD20RoundRect,0.050800X0.311150X0.552450X-0.311150X0.552450X-0.311150X-0.552450X0.311150X-0.552450X0*%
%ADD21RoundRect,0.265778X-0.647222X0.332222X-0.647222X-0.332222X0.647222X-0.332222X0.647222X0.332222X0*%
%ADD22RoundRect,0.159000X0.159000X0.189000X-0.159000X0.189000X-0.159000X-0.189000X0.159000X-0.189000X0*%
%ADD23RoundRect,0.050800X-0.425000X-1.000000X0.425000X-1.000000X0.425000X1.000000X-0.425000X1.000000X0*%
%ADD24RoundRect,0.050800X-0.175000X-0.390000X0.175000X-0.390000X0.175000X0.390000X-0.175000X0.390000X0*%
%ADD25RoundRect,0.050800X-0.400000X-0.600000X0.400000X-0.600000X0.400000X0.600000X-0.400000X0.600000X0*%
%ADD26RoundRect,0.050800X-0.350000X-0.600000X0.350000X-0.600000X0.350000X0.600000X-0.350000X0.600000X0*%
%ADD27O,1.201600X1.801600*%
%ADD28RoundRect,0.050800X0.800000X-0.500000X0.800000X0.500000X-0.800000X0.500000X-0.800000X-0.500000X0*%
%ADD29RoundRect,0.050800X-0.175000X-0.250000X0.175000X-0.250000X0.175000X0.250000X-0.175000X0.250000X0*%
%ADD30RoundRect,0.050800X-1.370000X1.370000X-1.370000X-1.370000X1.370000X-1.370000X1.370000X1.370000X0*%
%ADD31O,1.401600X0.451600*%
%ADD32C,0.609600*%
%ADD33RoundRect,0.050800X0.850500X-0.603750X0.850500X0.603750X-0.850500X0.603750X-0.850500X-0.603750X0*%
%ADD34RoundRect,0.260556X-0.677444X1.027444X-0.677444X-1.027444X0.677444X-1.027444X0.677444X1.027444X0*%
%ADD35RoundRect,0.219000X0.294000X-0.219000X0.294000X0.219000X-0.294000X0.219000X-0.294000X-0.219000X0*%
%ADD36RoundRect,0.244000X-0.269000X0.244000X-0.269000X-0.244000X0.269000X-0.244000X0.269000X0.244000X0*%
%ADD37RoundRect,0.265778X0.647222X-0.332222X0.647222X0.332222X-0.647222X0.332222X-0.647222X-0.332222X0*%
%ADD38RoundRect,0.269000X-0.494000X0.269000X-0.494000X-0.269000X0.494000X-0.269000X0.494000X0.269000X0*%
%ADD39O,1.700000X1.700000*%
%ADD40R,1.700000X1.700000*%
%ADD41RoundRect,0.219000X-0.219000X-0.294000X0.219000X-0.294000X0.219000X0.294000X-0.219000X0.294000X0*%
%ADD42RoundRect,0.267317X-0.280683X-0.470683X0.280683X-0.470683X0.280683X0.470683X-0.280683X0.470683X0*%
%ADD43O,1.353600X0.465600*%
%ADD44FreePoly0,270.000000*%
%ADD45O,0.380000X0.950000*%
%ADD46O,0.950000X0.380000*%
%ADD47RoundRect,0.159000X-0.189000X0.159000X-0.189000X-0.159000X0.189000X-0.159000X0.189000X0.159000X0*%
%ADD48RoundRect,0.269000X0.494000X-0.269000X0.494000X0.269000X-0.494000X0.269000X-0.494000X-0.269000X0*%
%ADD49RoundRect,0.050800X-0.850500X0.603750X-0.850500X-0.603750X0.850500X-0.603750X0.850500X0.603750X0*%
%ADD50O,1.800000X3.000000*%
%ADD51RoundRect,0.050800X1.370000X-1.370000X1.370000X1.370000X-1.370000X1.370000X-1.370000X-1.370000X0*%
G04 APERTURE END LIST*
D10*
%TO.C,R17*%
X83680000Y-217500000D03*
X85320000Y-217500000D03*
%TD*%
D11*
%TO.C,U1*%
X99450000Y-238300000D03*
X97550000Y-238300000D03*
X97550000Y-235700000D03*
X98500000Y-235700000D03*
X99450000Y-235700000D03*
%TD*%
D12*
%TO.C,C1*%
X96720000Y-211250200D03*
X98280000Y-211250200D03*
%TD*%
D13*
%TO.C,R4*%
X64521200Y-208500000D03*
X67478800Y-208500000D03*
%TD*%
D14*
%TO.C,C22*%
X76000000Y-222500000D03*
X78000000Y-222500000D03*
%TD*%
D15*
%TO.C,C26*%
X76500000Y-213500000D03*
X76500000Y-214500000D03*
%TD*%
D16*
%TO.C,J1*%
X110000000Y-252950000D03*
D17*
X108000000Y-252950000D03*
%TD*%
D18*
%TO.C,C4*%
X99000000Y-212970200D03*
X99000000Y-214530200D03*
%TD*%
D19*
%TO.C,R22*%
X61500000Y-238640000D03*
X61500000Y-237000000D03*
%TD*%
D14*
%TO.C,C17*%
X83000000Y-223500000D03*
X85000000Y-223500000D03*
%TD*%
D10*
%TO.C,R2*%
X86180000Y-237000000D03*
X87820000Y-237000000D03*
%TD*%
D20*
%TO.C,U8*%
X94450000Y-229897000D03*
X92550000Y-229897000D03*
X92550000Y-227103000D03*
X93500000Y-227103000D03*
X94450000Y-227103000D03*
%TD*%
D14*
%TO.C,C21*%
X90000000Y-223000000D03*
X92000000Y-223000000D03*
%TD*%
D21*
%TO.C,R14*%
X115500000Y-212960000D03*
X115500000Y-210040000D03*
%TD*%
D22*
%TO.C,C12*%
X94000000Y-225500000D03*
X95000000Y-225500000D03*
%TD*%
D23*
%TO.C,L1*%
X102829900Y-237000000D03*
X101170100Y-237000000D03*
%TD*%
D18*
%TO.C,C3*%
X95000000Y-236220000D03*
X95000000Y-237780000D03*
%TD*%
D19*
%TO.C,R5*%
X95829900Y-234320000D03*
X95829900Y-232680000D03*
%TD*%
D24*
%TO.C,U9*%
X83350000Y-213509900D03*
X84000000Y-213509900D03*
X84650000Y-213509900D03*
X84650000Y-215490100D03*
X84000000Y-215490100D03*
X83350000Y-215490100D03*
%TD*%
D25*
%TO.C,USB1*%
X62100200Y-241037800D03*
D26*
X63300100Y-241037800D03*
X65300100Y-241037800D03*
D25*
X67500000Y-241037800D03*
D26*
X66300100Y-241037800D03*
X64300100Y-241037800D03*
D27*
X69120000Y-245087800D03*
X69120000Y-241287700D03*
X60480200Y-245087800D03*
X60480200Y-241287700D03*
%TD*%
D28*
%TO.C,U11*%
X64350000Y-237000000D03*
D29*
X65000000Y-238000000D03*
X64350000Y-238000000D03*
X63700000Y-238000000D03*
X63700000Y-236000000D03*
X64350000Y-236000000D03*
X65000000Y-236000000D03*
%TD*%
D30*
%TO.C,U3*%
X70500100Y-214499900D03*
D31*
X73350000Y-212224800D03*
X73350000Y-212874800D03*
X73350000Y-213524800D03*
X73350000Y-214175000D03*
X73350000Y-214825000D03*
X73350000Y-215475000D03*
X73350000Y-216125000D03*
X73350000Y-216775000D03*
X67650000Y-216775000D03*
X67650000Y-216125000D03*
X67650000Y-215475000D03*
X67650000Y-214825000D03*
X67650000Y-214175000D03*
X67650000Y-213524800D03*
X67650000Y-212874800D03*
X67650000Y-212224800D03*
D32*
X70000000Y-215000000D03*
X71000000Y-215000000D03*
X70000000Y-214000000D03*
X71000000Y-214000000D03*
%TD*%
D33*
%TO.C,R3*%
X63000000Y-215521200D03*
X63000000Y-218478800D03*
%TD*%
D34*
%TO.C,D1*%
X102500000Y-234000000D03*
X102500000Y-230000000D03*
%TD*%
D10*
%TO.C,R19*%
X80680000Y-217500000D03*
X82320000Y-217500000D03*
%TD*%
D35*
%TO.C,R23*%
X76000000Y-229180000D03*
X76000000Y-230820000D03*
%TD*%
D36*
%TO.C,C11*%
X91500000Y-219030200D03*
X91500000Y-217470200D03*
%TD*%
D37*
%TO.C,R13*%
X115500000Y-215540000D03*
X115500000Y-218460000D03*
%TD*%
D35*
%TO.C,R12*%
X90500000Y-227680000D03*
X90500000Y-229320000D03*
%TD*%
D38*
%TO.C,C10*%
X76500000Y-217950000D03*
X76500000Y-216050000D03*
%TD*%
D12*
%TO.C,C6*%
X106720000Y-233000000D03*
X108280000Y-233000000D03*
%TD*%
D20*
%TO.C,U4*%
X108449700Y-237300000D03*
X106550300Y-237300000D03*
X106550300Y-234700000D03*
X107500500Y-234700000D03*
X108449700Y-234700000D03*
%TD*%
D12*
%TO.C,C2*%
X97720000Y-232000000D03*
X99280000Y-232000000D03*
%TD*%
%TO.C,C16*%
X63220000Y-211500000D03*
X64780000Y-211500000D03*
%TD*%
%TO.C,C19*%
X60220000Y-234500000D03*
X61780000Y-234500000D03*
%TD*%
D39*
%TO.C,J2*%
X71720000Y-245000000D03*
X71720000Y-242460000D03*
X74260000Y-245000000D03*
X74260000Y-242460000D03*
X76800000Y-245000000D03*
X76800000Y-242460000D03*
X79340000Y-245000000D03*
X79340000Y-242460000D03*
X81880000Y-245000000D03*
X81880000Y-242460000D03*
X84420000Y-245000000D03*
X84420000Y-242460000D03*
X86960000Y-245000000D03*
X86960000Y-242460000D03*
X89500000Y-245000000D03*
X89500000Y-242460000D03*
X92040000Y-245000000D03*
X92040000Y-242460000D03*
X94580000Y-245000000D03*
X94580000Y-242460000D03*
X97120000Y-245000000D03*
X97120000Y-242460000D03*
X99660000Y-245000000D03*
X99660000Y-242460000D03*
X102200000Y-245000000D03*
X102200000Y-242460000D03*
X104740000Y-245000000D03*
X104740000Y-242460000D03*
X107280000Y-245000000D03*
X107280000Y-242460000D03*
X109820000Y-245000000D03*
D40*
X109820000Y-242460000D03*
%TD*%
D12*
%TO.C,C5*%
X106720000Y-239000000D03*
X108280000Y-239000000D03*
%TD*%
D41*
%TO.C,R16*%
X99320000Y-217250200D03*
X97680000Y-217250200D03*
%TD*%
D42*
%TO.C,R20*%
X88410000Y-212000000D03*
X86590000Y-212000000D03*
%TD*%
D43*
%TO.C,U2*%
X88226100Y-233524900D03*
X88226100Y-234174900D03*
X88226100Y-234824900D03*
X88226100Y-235475100D03*
X85773900Y-235475100D03*
X85773900Y-234824900D03*
X85773900Y-234174900D03*
X85773900Y-233524900D03*
%TD*%
D15*
%TO.C,C13*%
X96500000Y-228000000D03*
X96500000Y-229000000D03*
%TD*%
D44*
%TO.C,U6*%
X95500100Y-214499900D03*
D45*
X94750100Y-213000000D03*
X95250200Y-213000000D03*
X95750100Y-213000000D03*
X96250200Y-213000000D03*
D46*
X97000000Y-213749800D03*
X97000000Y-214249900D03*
X97000000Y-214749800D03*
X97000000Y-215249900D03*
D45*
X96250200Y-216000000D03*
X95750100Y-216000000D03*
X95250200Y-216000000D03*
X94750100Y-216000000D03*
D46*
X94000000Y-215249900D03*
X94000000Y-214749800D03*
X94000000Y-214249900D03*
X94000000Y-213749800D03*
%TD*%
D20*
%TO.C,U7*%
X80450000Y-230897000D03*
X78550000Y-230897000D03*
X78550000Y-228103000D03*
X79500000Y-228103000D03*
X80450000Y-228103000D03*
%TD*%
D10*
%TO.C,R1*%
X86180000Y-238500000D03*
X87820000Y-238500000D03*
%TD*%
D35*
%TO.C,R15*%
X91500000Y-213930200D03*
X91500000Y-215570200D03*
%TD*%
D18*
%TO.C,C15*%
X103000000Y-213720000D03*
X103000000Y-215280000D03*
%TD*%
D41*
%TO.C,R10*%
X94820000Y-211250200D03*
X93180000Y-211250200D03*
%TD*%
D47*
%TO.C,C25*%
X105000000Y-215000000D03*
X105000000Y-214000000D03*
%TD*%
D22*
%TO.C,C20*%
X79500000Y-226500000D03*
X80500000Y-226500000D03*
%TD*%
D48*
%TO.C,C9*%
X103350000Y-209550000D03*
X103350000Y-211450000D03*
%TD*%
D35*
%TO.C,R6*%
X91500000Y-210930200D03*
X91500000Y-212570200D03*
%TD*%
D49*
%TO.C,R_SHUNT1*%
X91000000Y-236478800D03*
X91000000Y-233521200D03*
%TD*%
D15*
%TO.C,C14*%
X82000000Y-229000000D03*
X82000000Y-230000000D03*
%TD*%
D14*
%TO.C,C18*%
X98000000Y-223000000D03*
X100000000Y-223000000D03*
%TD*%
D35*
%TO.C,R18*%
X80500000Y-214180000D03*
X80500000Y-215820000D03*
%TD*%
D50*
%TO.C,U10*%
X95299900Y-249286500D03*
X90500000Y-249286500D03*
X85699900Y-249286500D03*
%TD*%
D51*
%TO.C,U5*%
X109500000Y-213675100D03*
D31*
X106650100Y-215950200D03*
X106650100Y-215300200D03*
X106650100Y-214650200D03*
X106650100Y-214000000D03*
X106650100Y-213350000D03*
X106650100Y-212700000D03*
X106650100Y-212050000D03*
X106650100Y-211400000D03*
X112350100Y-211400000D03*
X112350100Y-212050000D03*
X112350100Y-212700000D03*
X112350100Y-213350000D03*
X112350100Y-214000000D03*
X112350100Y-214650200D03*
X112350100Y-215300200D03*
X112350100Y-215950200D03*
D32*
X110000100Y-213175000D03*
X109000100Y-213175000D03*
X110000100Y-214175000D03*
X109000100Y-214175000D03*
%TD*%
D10*
%TO.C,R9*%
X97509900Y-234000000D03*
X99149900Y-234000000D03*
%TD*%
M02*
