M48
; DRILL file {KiCad 9.0.0} date 2025-03-28T12:19:00+0200
; FORMAT={-:-/ absolute / inch / decimal}
; #@! TF.CreationDate,2025-03-28T12:19:00+02:00
; #@! TF.GenerationSoftware,Kicad,Pcbnew,9.0.0
; #@! TF.FileFunction,Plated,1,2,PTH
FMAT,2
INCH
; #@! TA.AperFunction,Plated,PTH,ViaDrill
T1C0.0118
; #@! TA.AperFunction,Plated,PTH,ComponentDrill
T2C0.0120
; #@! TA.AperFunction,Plated,PTH,ComponentDrill
T3C0.0295
; #@! TA.AperFunction,Plated,PTH,ComponentDrill
T4C0.0315
; #@! TA.AperFunction,Plated,PTH,ComponentDrill
T5C0.0394
; #@! TA.AperFunction,Plated,PTH,ComponentDrill
T6C0.0433
%
G90
G05
T1
X2.5394Y-9.4291
X2.5886Y-8.2776
X2.6181Y-8.7402
X2.6181Y-9.2717
X2.6181Y-9.6457
X2.6363Y-8.3282
X2.6566Y-8.2087
X2.874Y-8.6024
X2.8937Y-8.6417
X2.9528Y-8.4321
X2.9715Y-8.4656
X3.0315Y-9.1732
X3.189Y-9.1535
X3.3071Y-9.252
X3.3268Y-9.2126
X3.3465Y-9.4094
X3.4646Y-8.5827
X3.5039Y-8.4843
X3.598Y-9.4532
X3.7697Y-9.4193
X3.878Y-8.1299
X3.878Y-8.9567
X3.8976Y-8.3858
X3.9764Y-8.3858
X4.0893Y-8.3465
X4.1732Y-8.1693
X4.1929Y-8.622
X4.2323Y-8.6811
X4.2509Y-8.3398
X4.311Y-8.563
X4.4094Y-8.248
X4.4882Y-8.3996
X4.5472Y-8.7008
T2
X2.7559Y-8.4252
X2.7559Y-8.4646
X2.7953Y-8.4252
X2.7953Y-8.4646
X4.2913Y-8.3927
X4.2913Y-8.4321
X4.3307Y-8.3927
X4.3307Y-8.4321
T3
X4.252Y-9.9587
X4.3307Y-9.9587
T4
X2.9921Y-8.7598
X3.0709Y-8.7598
X3.2677Y-8.7992
X3.3465Y-8.7992
X3.5433Y-8.7795
X3.622Y-8.7795
X3.8583Y-8.7795
X3.937Y-8.7795
T5
X2.8236Y-9.5457
X2.8236Y-9.6457
X2.9236Y-9.5457
X2.9236Y-9.6457
X3.0236Y-9.5457
X3.0236Y-9.6457
X3.1236Y-9.5457
X3.1236Y-9.6457
X3.2236Y-9.5457
X3.2236Y-9.6457
X3.3236Y-9.5457
X3.3236Y-9.6457
X3.4236Y-9.5457
X3.4236Y-9.6457
X3.5236Y-9.5457
X3.5236Y-9.6457
X3.6236Y-9.5457
X3.6236Y-9.6457
X3.7236Y-9.5457
X3.7236Y-9.6457
X3.8236Y-9.5457
X3.8236Y-9.6457
X3.9236Y-9.5457
X3.9236Y-9.6457
X4.0236Y-9.5457
X4.0236Y-9.6457
X4.1236Y-9.5457
X4.1236Y-9.6457
X4.2236Y-9.5457
X4.2236Y-9.6457
X4.3236Y-9.5457
X4.3236Y-9.6457
T6
G00X3.374Y-9.7908
M15
G01X3.374Y-9.8381
M16
G05
G00X3.563Y-9.7908
M15
G01X3.563Y-9.8381
M16
G05
G00X3.752Y-9.7908
M15
G01X3.752Y-9.8381
M16
G05
M30
