%TF.GenerationSoftware,KiCad,Pcbnew,9.0.0*%
%TF.CreationDate,2025-03-28T12:19:00+02:00*%
%TF.ProjectId,EEE3088F_V1.0,45454533-3038-4384-965f-56312e302e6b,rev?*%
%TF.SameCoordinates,Original*%
%TF.FileFunction,Legend,Bot*%
%TF.FilePolarity,Positive*%
%FSLAX46Y46*%
G04 Gerber Fmt 4.6, Leading zero omitted, Abs format (unit mm)*
G04 Created by KiCad (PCBNEW 9.0.0) date 2025-03-28 12:19:00*
%MOMM*%
%LPD*%
G01*
G04 APERTURE LIST*
G04 Aperture macros list*
%AMRoundRect*
0 Rectangle with rounded corners*
0 $1 Rounding radius*
0 $2 $3 $4 $5 $6 $7 $8 $9 X,Y pos of 4 corners*
0 Add a 4 corners polygon primitive as box body*
4,1,4,$2,$3,$4,$5,$6,$7,$8,$9,$2,$3,0*
0 Add four circle primitives for the rounded corners*
1,1,$1+$1,$2,$3*
1,1,$1+$1,$4,$5*
1,1,$1+$1,$6,$7*
1,1,$1+$1,$8,$9*
0 Add four rect primitives between the rounded corners*
20,1,$1+$1,$2,$3,$4,$5,0*
20,1,$1+$1,$4,$5,$6,$7,0*
20,1,$1+$1,$6,$7,$8,$9,0*
20,1,$1+$1,$8,$9,$2,$3,0*%
G04 Aperture macros list end*
%ADD10C,3.200000*%
%ADD11O,1.300000X1.300000*%
%ADD12O,1.200000X1.750000*%
%ADD13RoundRect,0.250000X-0.350000X-0.625000X0.350000X-0.625000X0.350000X0.625000X-0.350000X0.625000X0*%
%ADD14O,1.100000X1.700000*%
%ADD15C,0.609600*%
%ADD16O,1.700000X1.700000*%
%ADD17R,1.700000X1.700000*%
%ADD18O,1.700000X2.900000*%
G04 APERTURE END LIST*
%LPC*%
D10*
%TO.C,REF\u002A\u002A*%
X90810000Y-197550000D03*
%TD*%
D11*
%TO.C,C22*%
X76000000Y-222500000D03*
X78000000Y-222500000D03*
%TD*%
D12*
%TO.C,J1*%
X110000000Y-252950000D03*
D13*
X108000000Y-252950000D03*
%TD*%
D11*
%TO.C,C17*%
X83000000Y-223500000D03*
X85000000Y-223500000D03*
%TD*%
%TO.C,C21*%
X90000000Y-223000000D03*
X92000000Y-223000000D03*
%TD*%
D14*
%TO.C,USB1*%
X69120000Y-245087800D03*
X69120000Y-241287700D03*
X60480200Y-245087800D03*
X60480200Y-241287700D03*
%TD*%
D15*
%TO.C,U3*%
X70000000Y-215000000D03*
X71000000Y-215000000D03*
X70000000Y-214000000D03*
X71000000Y-214000000D03*
%TD*%
D16*
%TO.C,J2*%
X71720000Y-245000000D03*
X71720000Y-242460000D03*
X74260000Y-245000000D03*
X74260000Y-242460000D03*
X76800000Y-245000000D03*
X76800000Y-242460000D03*
X79340000Y-245000000D03*
X79340000Y-242460000D03*
X81880000Y-245000000D03*
X81880000Y-242460000D03*
X84420000Y-245000000D03*
X84420000Y-242460000D03*
X86960000Y-245000000D03*
X86960000Y-242460000D03*
X89500000Y-245000000D03*
X89500000Y-242460000D03*
X92040000Y-245000000D03*
X92040000Y-242460000D03*
X94580000Y-245000000D03*
X94580000Y-242460000D03*
X97120000Y-245000000D03*
X97120000Y-242460000D03*
X99660000Y-245000000D03*
X99660000Y-242460000D03*
X102200000Y-245000000D03*
X102200000Y-242460000D03*
X104740000Y-245000000D03*
X104740000Y-242460000D03*
X107280000Y-245000000D03*
X107280000Y-242460000D03*
X109820000Y-245000000D03*
D17*
X109820000Y-242460000D03*
%TD*%
D11*
%TO.C,C18*%
X98000000Y-223000000D03*
X100000000Y-223000000D03*
%TD*%
D18*
%TO.C,U10*%
X95299900Y-249286500D03*
X90500000Y-249286500D03*
X85699900Y-249286500D03*
%TD*%
D15*
%TO.C,U5*%
X110000100Y-213175000D03*
X109000100Y-213175000D03*
X110000100Y-214175000D03*
X109000100Y-214175000D03*
%TD*%
%LPD*%
M02*
