%TF.GenerationSoftware,KiCad,Pcbnew,9.0.0*%
%TF.CreationDate,2025-03-28T12:19:00+02:00*%
%TF.ProjectId,EEE3088F_V1.0,45454533-3038-4384-965f-56312e302e6b,rev?*%
%TF.SameCoordinates,Original*%
%TF.FileFunction,Copper,L1,Top*%
%TF.FilePolarity,Positive*%
%FSLAX46Y46*%
G04 Gerber Fmt 4.6, Leading zero omitted, Abs format (unit mm)*
G04 Created by KiCad (PCBNEW 9.0.0) date 2025-03-28 12:19:00*
%MOMM*%
%LPD*%
G01*
G04 APERTURE LIST*
G04 Aperture macros list*
%AMRoundRect*
0 Rectangle with rounded corners*
0 $1 Rounding radius*
0 $2 $3 $4 $5 $6 $7 $8 $9 X,Y pos of 4 corners*
0 Add a 4 corners polygon primitive as box body*
4,1,4,$2,$3,$4,$5,$6,$7,$8,$9,$2,$3,0*
0 Add four circle primitives for the rounded corners*
1,1,$1+$1,$2,$3*
1,1,$1+$1,$4,$5*
1,1,$1+$1,$6,$7*
1,1,$1+$1,$8,$9*
0 Add four rect primitives between the rounded corners*
20,1,$1+$1,$2,$3,$4,$5,0*
20,1,$1+$1,$4,$5,$6,$7,0*
20,1,$1+$1,$6,$7,$8,$9,0*
20,1,$1+$1,$8,$9,$2,$3,0*%
%AMFreePoly0*
4,1,6,0.850000,-0.850000,-0.425000,-0.850000,-0.850000,-0.425000,-0.850000,0.850000,0.850000,0.850000,0.850000,-0.850000,0.850000,-0.850000,$1*%
G04 Aperture macros list end*
%TA.AperFunction,SMDPad,CuDef*%
%ADD10RoundRect,0.200000X0.200000X0.275000X-0.200000X0.275000X-0.200000X-0.275000X0.200000X-0.275000X0*%
%TD*%
%TA.AperFunction,SMDPad,CuDef*%
%ADD11RoundRect,0.150000X0.150000X-0.400000X0.150000X0.400000X-0.150000X0.400000X-0.150000X-0.400000X0*%
%TD*%
%TA.AperFunction,SMDPad,CuDef*%
%ADD12RoundRect,0.225000X0.225000X0.250000X-0.225000X0.250000X-0.225000X-0.250000X0.225000X-0.250000X0*%
%TD*%
%TA.AperFunction,SMDPad,CuDef*%
%ADD13R,1.207500X1.701000*%
%TD*%
%TA.AperFunction,ComponentPad*%
%ADD14O,1.300000X1.300000*%
%TD*%
%TA.AperFunction,SMDPad,CuDef*%
%ADD15RoundRect,0.140000X0.170000X-0.140000X0.170000X0.140000X-0.170000X0.140000X-0.170000X-0.140000X0*%
%TD*%
%TA.AperFunction,ComponentPad*%
%ADD16O,1.200000X1.750000*%
%TD*%
%TA.AperFunction,ComponentPad*%
%ADD17RoundRect,0.250000X-0.350000X-0.625000X0.350000X-0.625000X0.350000X0.625000X-0.350000X0.625000X0*%
%TD*%
%TA.AperFunction,SMDPad,CuDef*%
%ADD18RoundRect,0.225000X0.250000X-0.225000X0.250000X0.225000X-0.250000X0.225000X-0.250000X-0.225000X0*%
%TD*%
%TA.AperFunction,SMDPad,CuDef*%
%ADD19RoundRect,0.200000X-0.275000X0.200000X-0.275000X-0.200000X0.275000X-0.200000X0.275000X0.200000X0*%
%TD*%
%TA.AperFunction,SMDPad,CuDef*%
%ADD20R,0.622300X1.104900*%
%TD*%
%TA.AperFunction,SMDPad,CuDef*%
%ADD21RoundRect,0.248889X-0.626111X0.311111X-0.626111X-0.311111X0.626111X-0.311111X0.626111X0.311111X0*%
%TD*%
%TA.AperFunction,SMDPad,CuDef*%
%ADD22RoundRect,0.140000X0.140000X0.170000X-0.140000X0.170000X-0.140000X-0.170000X0.140000X-0.170000X0*%
%TD*%
%TA.AperFunction,SMDPad,CuDef*%
%ADD23R,0.850000X2.000000*%
%TD*%
%TA.AperFunction,SMDPad,CuDef*%
%ADD24R,0.350000X0.780000*%
%TD*%
%TA.AperFunction,SMDPad,CuDef*%
%ADD25R,0.800000X1.200000*%
%TD*%
%TA.AperFunction,SMDPad,CuDef*%
%ADD26R,0.700000X1.200000*%
%TD*%
%TA.AperFunction,WasherPad*%
%ADD27O,1.100000X1.700000*%
%TD*%
%TA.AperFunction,SMDPad,CuDef*%
%ADD28R,1.600000X1.000000*%
%TD*%
%TA.AperFunction,SMDPad,CuDef*%
%ADD29R,0.350000X0.500000*%
%TD*%
%TA.AperFunction,SMDPad,CuDef*%
%ADD30R,2.740000X2.740000*%
%TD*%
%TA.AperFunction,SMDPad,CuDef*%
%ADD31O,1.300000X0.350000*%
%TD*%
%TA.AperFunction,ComponentPad*%
%ADD32C,0.609600*%
%TD*%
%TA.AperFunction,SMDPad,CuDef*%
%ADD33R,1.701000X1.207500*%
%TD*%
%TA.AperFunction,SMDPad,CuDef*%
%ADD34RoundRect,0.250000X-0.650000X1.000000X-0.650000X-1.000000X0.650000X-1.000000X0.650000X1.000000X0*%
%TD*%
%TA.AperFunction,SMDPad,CuDef*%
%ADD35RoundRect,0.200000X0.275000X-0.200000X0.275000X0.200000X-0.275000X0.200000X-0.275000X-0.200000X0*%
%TD*%
%TA.AperFunction,SMDPad,CuDef*%
%ADD36RoundRect,0.225000X-0.250000X0.225000X-0.250000X-0.225000X0.250000X-0.225000X0.250000X0.225000X0*%
%TD*%
%TA.AperFunction,SMDPad,CuDef*%
%ADD37RoundRect,0.248889X0.626111X-0.311111X0.626111X0.311111X-0.626111X0.311111X-0.626111X-0.311111X0*%
%TD*%
%TA.AperFunction,SMDPad,CuDef*%
%ADD38RoundRect,0.250000X-0.475000X0.250000X-0.475000X-0.250000X0.475000X-0.250000X0.475000X0.250000X0*%
%TD*%
%TA.AperFunction,ComponentPad*%
%ADD39O,1.700000X1.700000*%
%TD*%
%TA.AperFunction,ComponentPad*%
%ADD40R,1.700000X1.700000*%
%TD*%
%TA.AperFunction,SMDPad,CuDef*%
%ADD41RoundRect,0.200000X-0.200000X-0.275000X0.200000X-0.275000X0.200000X0.275000X-0.200000X0.275000X0*%
%TD*%
%TA.AperFunction,SMDPad,CuDef*%
%ADD42RoundRect,0.248780X-0.261220X-0.451220X0.261220X-0.451220X0.261220X0.451220X-0.261220X0.451220X0*%
%TD*%
%TA.AperFunction,SMDPad,CuDef*%
%ADD43O,1.252000X0.364000*%
%TD*%
%TA.AperFunction,SMDPad,CuDef*%
%ADD44FreePoly0,270.000000*%
%TD*%
%TA.AperFunction,SMDPad,CuDef*%
%ADD45O,0.280000X0.850000*%
%TD*%
%TA.AperFunction,SMDPad,CuDef*%
%ADD46O,0.850000X0.280000*%
%TD*%
%TA.AperFunction,SMDPad,CuDef*%
%ADD47RoundRect,0.140000X-0.170000X0.140000X-0.170000X-0.140000X0.170000X-0.140000X0.170000X0.140000X0*%
%TD*%
%TA.AperFunction,SMDPad,CuDef*%
%ADD48RoundRect,0.250000X0.475000X-0.250000X0.475000X0.250000X-0.475000X0.250000X-0.475000X-0.250000X0*%
%TD*%
%TA.AperFunction,ComponentPad*%
%ADD49O,1.700000X2.900000*%
%TD*%
%TA.AperFunction,ViaPad*%
%ADD50C,0.600000*%
%TD*%
%TA.AperFunction,Conductor*%
%ADD51C,0.200000*%
%TD*%
%TA.AperFunction,Conductor*%
%ADD52C,0.300000*%
%TD*%
%TA.AperFunction,Conductor*%
%ADD53C,0.762000*%
%TD*%
G04 APERTURE END LIST*
D10*
%TO.P,R17,2*%
%TO.N,Net-(U9-B1)*%
X83680000Y-217500000D03*
%TO.P,R17,1*%
%TO.N,GND*%
X85320000Y-217500000D03*
%TD*%
D11*
%TO.P,U1,5,IN*%
%TO.N,Battery Out*%
X99450000Y-238300000D03*
%TO.P,U1,4,EN*%
X97550000Y-238300000D03*
%TO.P,U1,3,FB*%
%TO.N,Net-(U1-FB)*%
X97550000Y-235700000D03*
%TO.P,U1,2,GND*%
%TO.N,GND*%
X98500000Y-235700000D03*
%TO.P,U1,1,SW*%
%TO.N,Net-(U1-SW)*%
X99450000Y-235700000D03*
%TD*%
D12*
%TO.P,C1,2*%
%TO.N,GND*%
X96720000Y-211250200D03*
%TO.P,C1,1*%
%TO.N,HV*%
X98280000Y-211250200D03*
%TD*%
D13*
%TO.P,R4,2*%
%TO.N,Net-(U3-AISEN)*%
X64521200Y-208500000D03*
%TO.P,R4,1*%
%TO.N,GND*%
X67478800Y-208500000D03*
%TD*%
D14*
%TO.P,C22,2*%
%TO.N,GND*%
X76000000Y-222500000D03*
%TO.P,C22,1*%
%TO.N,EXT_LOAD1_OUT*%
X78000000Y-222500000D03*
%TD*%
D15*
%TO.P,C26,2*%
%TO.N,Net-(U3-VINT)*%
X76500000Y-213500000D03*
%TO.P,C26,1*%
%TO.N,GND*%
X76500000Y-214500000D03*
%TD*%
D16*
%TO.P,J1,2,Pin_2*%
%TO.N,GND*%
X110000000Y-252950000D03*
D17*
%TO.P,J1,1,Pin_1*%
%TO.N,Battery*%
X108000000Y-252950000D03*
%TD*%
D18*
%TO.P,C4,2*%
%TO.N,GND*%
X99000000Y-212970200D03*
%TO.P,C4,1*%
%TO.N,Net-(U6-EN2)*%
X99000000Y-214530200D03*
%TD*%
D19*
%TO.P,R22,2*%
%TO.N,GND*%
X61500000Y-238640000D03*
%TO.P,R22,1*%
%TO.N,Net-(U11-VSET)*%
X61500000Y-237000000D03*
%TD*%
D14*
%TO.P,C17,2*%
%TO.N,GND*%
X83000000Y-223500000D03*
%TO.P,C17,1*%
%TO.N,5V Out*%
X85000000Y-223500000D03*
%TD*%
D10*
%TO.P,R2,2*%
%TO.N,I2C1_SCL*%
X86180000Y-237000000D03*
%TO.P,R2,1*%
%TO.N,3.3V Out*%
X87820000Y-237000000D03*
%TD*%
D20*
%TO.P,U8,5,IN*%
%TO.N,5V Out*%
X94450000Y-229897000D03*
%TO.P,U8,4,EN*%
%TO.N,CTRL_EXT_LOAD2*%
X92550000Y-229897000D03*
%TO.P,U8,3,~{FLG}*%
%TO.N,Net-(U8-~{FLG})*%
X92550000Y-227103000D03*
%TO.P,U8,2,GND*%
%TO.N,GND*%
X93500000Y-227103000D03*
%TO.P,U8,1,OUT*%
%TO.N,EXT_LOAD2_OUT*%
X94450000Y-227103000D03*
%TD*%
D14*
%TO.P,C21,2*%
%TO.N,GND*%
X90000000Y-223000000D03*
%TO.P,C21,1*%
%TO.N,EXT_LOAD2_OUT*%
X92000000Y-223000000D03*
%TD*%
D21*
%TO.P,R14,2*%
%TO.N,Net-(U5-BISEN)*%
X115500000Y-212960000D03*
%TO.P,R14,1*%
%TO.N,GND*%
X115500000Y-210040000D03*
%TD*%
D22*
%TO.P,C12,2*%
%TO.N,GND*%
X94000000Y-225500000D03*
%TO.P,C12,1*%
%TO.N,EXT_LOAD2_OUT*%
X95000000Y-225500000D03*
%TD*%
D23*
%TO.P,L1,2*%
%TO.N,Net-(U1-SW)*%
X102829900Y-237000000D03*
%TO.P,L1,1*%
%TO.N,Battery Out*%
X101170100Y-237000000D03*
%TD*%
D18*
%TO.P,C3,2*%
%TO.N,GND*%
X95000000Y-236220000D03*
%TO.P,C3,1*%
%TO.N,Battery Out*%
X95000000Y-237780000D03*
%TD*%
D19*
%TO.P,R5,2*%
%TO.N,GND*%
X95829900Y-234320000D03*
%TO.P,R5,1*%
%TO.N,Net-(U1-FB)*%
X95829900Y-232680000D03*
%TD*%
D24*
%TO.P,U9,6,SEL*%
%TO.N,FAST_CHARGE_CTRL*%
X83350000Y-213509900D03*
%TO.P,U9,5,VCC*%
%TO.N,5V Out*%
X84000000Y-213509900D03*
%TO.P,U9,4,A*%
%TO.N,ISET*%
X84650000Y-213509900D03*
%TO.P,U9,3,B0*%
%TO.N,Net-(U9-B0)*%
X84650000Y-215490100D03*
%TO.P,U9,2,GND*%
%TO.N,GND*%
X84000000Y-215490100D03*
%TO.P,U9,1,B1*%
%TO.N,Net-(U9-B1)*%
X83350000Y-215490100D03*
%TD*%
D25*
%TO.P,USB1,B12,GND*%
%TO.N,GND*%
X62100200Y-241037800D03*
D26*
%TO.P,USB1,B9,VBUS*%
%TO.N,HV*%
X63300100Y-241037800D03*
%TO.P,USB1,B5,CC2*%
%TO.N,Net-(U11-CC2)*%
X65300100Y-241037800D03*
D25*
%TO.P,USB1,A12,GND*%
%TO.N,GND*%
X67500000Y-241037800D03*
D26*
%TO.P,USB1,A9,VBUS*%
%TO.N,HV*%
X66300100Y-241037800D03*
%TO.P,USB1,A5,CC1*%
%TO.N,Net-(U11-CC1)*%
X64300100Y-241037800D03*
D27*
%TO.P,USB1,*%
%TO.N,*%
X69120000Y-245087800D03*
X69120000Y-241287700D03*
X60480200Y-245087800D03*
X60480200Y-241287700D03*
%TD*%
D28*
%TO.P,U11,7,GND*%
%TO.N,GND*%
X64350000Y-237000000D03*
D29*
%TO.P,U11,6,CC2*%
%TO.N,Net-(U11-CC2)*%
X65000000Y-238000000D03*
%TO.P,U11,5,D-*%
%TO.N,unconnected-(U11-D--Pad5)*%
X64350000Y-238000000D03*
%TO.P,U11,4,D+*%
%TO.N,unconnected-(U11-D+-Pad4)*%
X63700000Y-238000000D03*
%TO.P,U11,3,VSET*%
%TO.N,Net-(U11-VSET)*%
X63700000Y-236000000D03*
%TO.P,U11,2,VUSB*%
%TO.N,HV*%
X64350000Y-236000000D03*
%TO.P,U11,1,CC1*%
%TO.N,Net-(U11-CC1)*%
X65000000Y-236000000D03*
%TD*%
D30*
%TO.P,U3,17,GND*%
%TO.N,GND*%
X70500100Y-214499900D03*
D31*
%TO.P,U3,16,AIN1*%
%TO.N,MOTOR1_CTRL1*%
X73350000Y-212224800D03*
%TO.P,U3,15,AIN2*%
%TO.N,MOTOR1_CTRL2*%
X73350000Y-212874800D03*
%TO.P,U3,14,VINT*%
%TO.N,Net-(U3-VINT)*%
X73350000Y-213524800D03*
%TO.P,U3,13,GND*%
%TO.N,GND*%
X73350000Y-214175000D03*
%TO.P,U3,12,VM*%
%TO.N,Battery Out*%
X73350000Y-214825000D03*
%TO.P,U3,11,VCP*%
%TO.N,Net-(U3-VCP)*%
X73350000Y-215475000D03*
%TO.P,U3,10,BIN2*%
%TO.N,MOTOR3_CTRL2*%
X73350000Y-216125000D03*
%TO.P,U3,9,BIN1*%
%TO.N,MOTOR3_CTRL1*%
X73350000Y-216775000D03*
%TO.P,U3,8,~{FAULT}*%
%TO.N,unconnected-(U3-~{FAULT}-Pad8)*%
X67650000Y-216775000D03*
%TO.P,U3,7,BOUT1*%
%TO.N,MOTOR3_A_OUT*%
X67650000Y-216125000D03*
%TO.P,U3,6,BISEN*%
%TO.N,Net-(U3-BISEN)*%
X67650000Y-215475000D03*
%TO.P,U3,5,BOUT2*%
%TO.N,MOTOR3_B_OUT*%
X67650000Y-214825000D03*
%TO.P,U3,4,AOUT2*%
%TO.N,MOTOR1_B_OUT*%
X67650000Y-214175000D03*
%TO.P,U3,3,AISEN*%
%TO.N,Net-(U3-AISEN)*%
X67650000Y-213524800D03*
%TO.P,U3,2,AOUT1*%
%TO.N,MOTOR1_A_OUT*%
X67650000Y-212874800D03*
%TO.P,U3,1,~{SLEEP}*%
%TO.N,Battery Out*%
X67650000Y-212224800D03*
D32*
%TO.P,U3,*%
%TO.N,GND*%
X70000000Y-215000000D03*
X71000000Y-215000000D03*
X70000000Y-214000000D03*
X71000000Y-214000000D03*
%TD*%
D33*
%TO.P,R3,2*%
%TO.N,Net-(U3-BISEN)*%
X63000000Y-215521200D03*
%TO.P,R3,1*%
%TO.N,GND*%
X63000000Y-218478800D03*
%TD*%
D34*
%TO.P,D1,2*%
%TO.N,Net-(U1-SW)*%
X102500000Y-234000000D03*
%TO.P,D1,1*%
%TO.N,5V Out*%
X102500000Y-230000000D03*
%TD*%
D10*
%TO.P,R19,2*%
%TO.N,Net-(R18-Pad2)*%
X80680000Y-217500000D03*
%TO.P,R19,1*%
%TO.N,GND*%
X82320000Y-217500000D03*
%TD*%
D35*
%TO.P,R23,2*%
%TO.N,Net-(U7-~{FLG})*%
X76000000Y-229180000D03*
%TO.P,R23,1*%
%TO.N,5V Out*%
X76000000Y-230820000D03*
%TD*%
D36*
%TO.P,C11,2*%
%TO.N,GND*%
X91500000Y-219030200D03*
%TO.P,C11,1*%
%TO.N,Battery*%
X91500000Y-217470200D03*
%TD*%
D37*
%TO.P,R13,2*%
%TO.N,Net-(U5-AISEN)*%
X115500000Y-215540000D03*
%TO.P,R13,1*%
%TO.N,GND*%
X115500000Y-218460000D03*
%TD*%
D35*
%TO.P,R12,2*%
%TO.N,Net-(U8-~{FLG})*%
X90500000Y-227680000D03*
%TO.P,R12,1*%
%TO.N,5V Out*%
X90500000Y-229320000D03*
%TD*%
D38*
%TO.P,C10,2*%
%TO.N,Net-(U3-VCP)*%
X76500000Y-217950000D03*
%TO.P,C10,1*%
%TO.N,Battery Out*%
X76500000Y-216050000D03*
%TD*%
D12*
%TO.P,C6,2*%
%TO.N,GND*%
X106720000Y-233000000D03*
%TO.P,C6,1*%
%TO.N,Battery Out*%
X108280000Y-233000000D03*
%TD*%
D20*
%TO.P,U4,5,VOUT*%
%TO.N,3V3 Out*%
X108449700Y-237300000D03*
%TO.P,U4,4,NC*%
%TO.N,unconnected-(U4-NC-Pad4)*%
X106550300Y-237300000D03*
%TO.P,U4,3,EN*%
%TO.N,Battery Out*%
X106550300Y-234700000D03*
%TO.P,U4,2,GND*%
%TO.N,GND*%
X107500500Y-234700000D03*
%TO.P,U4,1,VIN*%
%TO.N,Battery Out*%
X108449700Y-234700000D03*
%TD*%
D12*
%TO.P,C2,2*%
%TO.N,GND*%
X97720000Y-232000000D03*
%TO.P,C2,1*%
%TO.N,5V Out*%
X99280000Y-232000000D03*
%TD*%
%TO.P,C16,2*%
%TO.N,GND*%
X63220000Y-211500000D03*
%TO.P,C16,1*%
%TO.N,Battery Out*%
X64780000Y-211500000D03*
%TD*%
%TO.P,C19,2*%
%TO.N,GND*%
X60220000Y-234500000D03*
%TO.P,C19,1*%
%TO.N,HV*%
X61780000Y-234500000D03*
%TD*%
D39*
%TO.P,J2,32,Pin_32*%
%TO.N,MOTOR1_A_OUT*%
X71720000Y-245000000D03*
%TO.P,J2,31,Pin_31*%
%TO.N,MOTOR1_B_OUT*%
X71720000Y-242460000D03*
%TO.P,J2,30,Pin_30*%
%TO.N,MOTOR1_CTRL2*%
X74260000Y-245000000D03*
%TO.P,J2,29,Pin_29*%
%TO.N,MOTOR3_B_OUT*%
X74260000Y-242460000D03*
%TO.P,J2,28,Pin_28*%
%TO.N,MOTOR1_CTRL1*%
X76800000Y-245000000D03*
%TO.P,J2,27,Pin_27*%
%TO.N,MOTOR3_A_OUT*%
X76800000Y-242460000D03*
%TO.P,J2,26,Pin_26*%
%TO.N,MOTOR3_CTRL2*%
X79340000Y-245000000D03*
%TO.P,J2,25,Pin_25*%
%TO.N,CTRL_EXT_LOAD1*%
X79340000Y-242460000D03*
%TO.P,J2,24,Pin_24*%
%TO.N,MOTOR3_CTRL1*%
X81880000Y-245000000D03*
%TO.P,J2,23,Pin_23*%
%TO.N,GND*%
X81880000Y-242460000D03*
%TO.P,J2,22,Pin_22*%
%TO.N,HV*%
X84420000Y-245000000D03*
%TO.P,J2,21,Pin_21*%
%TO.N,EXT_LOAD1_OUT*%
X84420000Y-242460000D03*
%TO.P,J2,20,Pin_20*%
%TO.N,5V Out*%
X86960000Y-245000000D03*
%TO.P,J2,19,Pin_19*%
%TO.N,GND*%
X86960000Y-242460000D03*
%TO.P,J2,18,Pin_18*%
%TO.N,3V3 Out*%
X89500000Y-245000000D03*
%TO.P,J2,17,Pin_17*%
%TO.N,I2C1_SDA*%
X89500000Y-242460000D03*
%TO.P,J2,16,Pin_16*%
%TO.N,I2C1_SCL*%
X92040000Y-245000000D03*
%TO.P,J2,15,Pin_15*%
%TO.N,unconnected-(J2-Pin_15-Pad15)*%
X92040000Y-242460000D03*
%TO.P,J2,14,Pin_14*%
%TO.N,Battery*%
X94580000Y-245000000D03*
%TO.P,J2,13,Pin_13*%
%TO.N,FAST_CHARGE_CTRL*%
X94580000Y-242460000D03*
%TO.P,J2,12,Pin_12*%
%TO.N,unconnected-(J2-Pin_12-Pad12)*%
X97120000Y-245000000D03*
%TO.P,J2,11,Pin_11*%
%TO.N,EXT_LOAD2_OUT*%
X97120000Y-242460000D03*
%TO.P,J2,10,Pin_10*%
%TO.N,MOTOR4_CTRL2*%
X99660000Y-245000000D03*
%TO.P,J2,9,Pin_9*%
%TO.N,unconnected-(J2-Pin_9-Pad9)*%
X99660000Y-242460000D03*
%TO.P,J2,8,Pin_8*%
%TO.N,MOTOR4_CTRL1*%
X102200000Y-245000000D03*
%TO.P,J2,7,Pin_7*%
%TO.N,CTRL_EXT_LOAD2*%
X102200000Y-242460000D03*
%TO.P,J2,6,Pin_6*%
%TO.N,MOTOR2_CTRL2*%
X104740000Y-245000000D03*
%TO.P,J2,5,Pin_5*%
%TO.N,MOTOR4_B_OUT*%
X104740000Y-242460000D03*
%TO.P,J2,4,Pin_4*%
%TO.N,MOTOR2_CTRL1*%
X107280000Y-245000000D03*
%TO.P,J2,3,Pin_3*%
%TO.N,MOTOR4_A_OUT*%
X107280000Y-242460000D03*
%TO.P,J2,2,Pin_2*%
%TO.N,MOTOR2_A_OUT*%
X109820000Y-245000000D03*
D40*
%TO.P,J2,1,Pin_1*%
%TO.N,MOTOR2_B_OUT*%
X109820000Y-242460000D03*
%TD*%
D12*
%TO.P,C5,2*%
%TO.N,GND*%
X106720000Y-239000000D03*
%TO.P,C5,1*%
%TO.N,3V3 Out*%
X108280000Y-239000000D03*
%TD*%
D41*
%TO.P,R16,2*%
%TO.N,Net-(U6-ILIM)*%
X99320000Y-217250200D03*
%TO.P,R16,1*%
%TO.N,GND*%
X97680000Y-217250200D03*
%TD*%
D42*
%TO.P,R20,2*%
%TO.N,GND*%
X88410000Y-212000000D03*
%TO.P,R20,1*%
%TO.N,ISET*%
X86590000Y-212000000D03*
%TD*%
D43*
%TO.P,U2,8,IN+*%
%TO.N,5V Out*%
X88226100Y-233524900D03*
%TO.P,U2,7,IN-*%
%TO.N,Battery*%
X88226100Y-234174900D03*
%TO.P,U2,6,GND*%
%TO.N,GND*%
X88226100Y-234824900D03*
%TO.P,U2,5,VS*%
%TO.N,3.3V Out*%
X88226100Y-235475100D03*
%TO.P,U2,4,SCL*%
%TO.N,I2C1_SCL*%
X85773900Y-235475100D03*
%TO.P,U2,3,SDA*%
%TO.N,I2C1_SDA*%
X85773900Y-234824900D03*
%TO.P,U2,2,A0*%
%TO.N,GND*%
X85773900Y-234174900D03*
%TO.P,U2,1,A1*%
%TO.N,I2C1_SCL*%
X85773900Y-233524900D03*
%TD*%
D15*
%TO.P,C13,2*%
%TO.N,GND*%
X96500000Y-228000000D03*
%TO.P,C13,1*%
%TO.N,5V Out*%
X96500000Y-229000000D03*
%TD*%
D44*
%TO.P,U6,17,VSS*%
%TO.N,GND*%
X95500100Y-214499900D03*
D45*
%TO.P,U6,16,ISET*%
%TO.N,ISET*%
X94750100Y-213000000D03*
%TO.P,U6,15,ITERM*%
%TO.N,Net-(U6-ITERM)*%
X95250200Y-213000000D03*
%TO.P,U6,14,TMR*%
%TO.N,GND*%
X95750100Y-213000000D03*
%TO.P,U6,13,IN*%
%TO.N,HV*%
X96250200Y-213000000D03*
D46*
%TO.P,U6,12,ILIM*%
%TO.N,Net-(U6-ILIM)*%
X97000000Y-213749800D03*
%TO.P,U6,11,OUT*%
%TO.N,Net-(U6-EN2)*%
X97000000Y-214249900D03*
%TO.P,U6,10,OUT*%
X97000000Y-214749800D03*
%TO.P,U6,9,~{CHG}*%
%TO.N,unconnected-(U6-~{CHG}-Pad9)*%
X97000000Y-215249900D03*
D45*
%TO.P,U6,8,VSS*%
%TO.N,GND*%
X96250200Y-216000000D03*
%TO.P,U6,7,~{PGOOD}*%
%TO.N,unconnected-(U6-~{PGOOD}-Pad7)*%
X95750100Y-216000000D03*
%TO.P,U6,6,EN1*%
%TO.N,GND*%
X95250200Y-216000000D03*
%TO.P,U6,5,EN2*%
%TO.N,Net-(U6-EN2)*%
X94750100Y-216000000D03*
D46*
%TO.P,U6,4,~{CE}*%
%TO.N,GND*%
X94000000Y-215249900D03*
%TO.P,U6,3,BAT*%
%TO.N,Battery*%
X94000000Y-214749800D03*
%TO.P,U6,2,BAT*%
X94000000Y-214249900D03*
%TO.P,U6,1,TS*%
%TO.N,Net-(U6-TS)*%
X94000000Y-213749800D03*
%TD*%
D20*
%TO.P,U7,5,IN*%
%TO.N,5V Out*%
X80450000Y-230897000D03*
%TO.P,U7,4,EN*%
%TO.N,CTRL_EXT_LOAD1*%
X78550000Y-230897000D03*
%TO.P,U7,3,~{FLG}*%
%TO.N,Net-(U7-~{FLG})*%
X78550000Y-228103000D03*
%TO.P,U7,2,GND*%
%TO.N,GND*%
X79500000Y-228103000D03*
%TO.P,U7,1,OUT*%
%TO.N,EXT_LOAD1_OUT*%
X80450000Y-228103000D03*
%TD*%
D10*
%TO.P,R1,2*%
%TO.N,I2C1_SDA*%
X86180000Y-238500000D03*
%TO.P,R1,1*%
%TO.N,3.3V Out*%
X87820000Y-238500000D03*
%TD*%
D35*
%TO.P,R15,2*%
%TO.N,GND*%
X91500000Y-213930200D03*
%TO.P,R15,1*%
%TO.N,Net-(U6-TS)*%
X91500000Y-215570200D03*
%TD*%
D18*
%TO.P,C15,2*%
%TO.N,GND*%
X103000000Y-213720000D03*
%TO.P,C15,1*%
%TO.N,Battery Out*%
X103000000Y-215280000D03*
%TD*%
D41*
%TO.P,R10,2*%
%TO.N,Net-(U6-ITERM)*%
X94820000Y-211250200D03*
%TO.P,R10,1*%
%TO.N,Net-(R10-Pad1)*%
X93180000Y-211250200D03*
%TD*%
D47*
%TO.P,C25,2*%
%TO.N,Net-(U5-VINT)*%
X105000000Y-215000000D03*
%TO.P,C25,1*%
%TO.N,GND*%
X105000000Y-214000000D03*
%TD*%
D22*
%TO.P,C20,2*%
%TO.N,GND*%
X79500000Y-226500000D03*
%TO.P,C20,1*%
%TO.N,EXT_LOAD1_OUT*%
X80500000Y-226500000D03*
%TD*%
D48*
%TO.P,C9,2*%
%TO.N,Net-(U5-VCP)*%
X103350000Y-209550000D03*
%TO.P,C9,1*%
%TO.N,Battery Out*%
X103350000Y-211450000D03*
%TD*%
D35*
%TO.P,R6,2*%
%TO.N,Net-(R10-Pad1)*%
X91500000Y-210930200D03*
%TO.P,R6,1*%
%TO.N,GND*%
X91500000Y-212570200D03*
%TD*%
D33*
%TO.P,R_SHUNT1,2*%
%TO.N,Battery*%
X91000000Y-236478800D03*
%TO.P,R_SHUNT1,1*%
%TO.N,5V Out*%
X91000000Y-233521200D03*
%TD*%
D15*
%TO.P,C14,2*%
%TO.N,GND*%
X82000000Y-229000000D03*
%TO.P,C14,1*%
%TO.N,5V Out*%
X82000000Y-230000000D03*
%TD*%
D14*
%TO.P,C18,2*%
%TO.N,GND*%
X98000000Y-223000000D03*
%TO.P,C18,1*%
%TO.N,5V Out*%
X100000000Y-223000000D03*
%TD*%
D35*
%TO.P,R18,2*%
%TO.N,Net-(R18-Pad2)*%
X80500000Y-214180000D03*
%TO.P,R18,1*%
%TO.N,Net-(U9-B0)*%
X80500000Y-215820000D03*
%TD*%
D49*
%TO.P,U10,3,3*%
%TO.N,GND*%
X95299900Y-249286500D03*
%TO.P,U10,2,2*%
%TO.N,Battery Out*%
X90500000Y-249286500D03*
%TO.P,U10,1,1*%
%TO.N,Battery*%
X85699900Y-249286500D03*
%TD*%
D30*
%TO.P,U5,17,GND*%
%TO.N,GND*%
X109500000Y-213675100D03*
D31*
%TO.P,U5,16,AIN1*%
%TO.N,MOTOR2_CTRL1*%
X106650100Y-215950200D03*
%TO.P,U5,15,AIN2*%
%TO.N,MOTOR2_CTRL2*%
X106650100Y-215300200D03*
%TO.P,U5,14,VINT*%
%TO.N,Net-(U5-VINT)*%
X106650100Y-214650200D03*
%TO.P,U5,13,GND*%
%TO.N,GND*%
X106650100Y-214000000D03*
%TO.P,U5,12,VM*%
%TO.N,Battery Out*%
X106650100Y-213350000D03*
%TO.P,U5,11,VCP*%
%TO.N,Net-(U5-VCP)*%
X106650100Y-212700000D03*
%TO.P,U5,10,BIN2*%
%TO.N,MOTOR4_CTRL2*%
X106650100Y-212050000D03*
%TO.P,U5,9,BIN1*%
%TO.N,MOTOR4_CTRL1*%
X106650100Y-211400000D03*
%TO.P,U5,8,~{FAULT}*%
%TO.N,unconnected-(U5-~{FAULT}-Pad8)*%
X112350100Y-211400000D03*
%TO.P,U5,7,BOUT1*%
%TO.N,MOTOR4_A_OUT*%
X112350100Y-212050000D03*
%TO.P,U5,6,BISEN*%
%TO.N,Net-(U5-BISEN)*%
X112350100Y-212700000D03*
%TO.P,U5,5,BOUT2*%
%TO.N,MOTOR4_B_OUT*%
X112350100Y-213350000D03*
%TO.P,U5,4,AOUT2*%
%TO.N,MOTOR2_B_OUT*%
X112350100Y-214000000D03*
%TO.P,U5,3,AISEN*%
%TO.N,Net-(U5-AISEN)*%
X112350100Y-214650200D03*
%TO.P,U5,2,AOUT1*%
%TO.N,MOTOR2_A_OUT*%
X112350100Y-215300200D03*
%TO.P,U5,1,~{SLEEP}*%
%TO.N,Battery Out*%
X112350100Y-215950200D03*
D32*
%TO.P,U5,*%
%TO.N,GND*%
X110000100Y-213175000D03*
X109000100Y-213175000D03*
X110000100Y-214175000D03*
X109000100Y-214175000D03*
%TD*%
D10*
%TO.P,R9,2*%
%TO.N,Net-(U1-FB)*%
X97509900Y-234000000D03*
%TO.P,R9,1*%
%TO.N,5V Out*%
X99149900Y-234000000D03*
%TD*%
D50*
%TO.N,GND*%
X101000000Y-213000000D03*
X109500000Y-217500000D03*
X75000000Y-214175000D03*
X84000000Y-235000000D03*
X115500000Y-221000000D03*
X99000000Y-213000000D03*
X67478800Y-208500000D03*
X65750000Y-210250000D03*
%TO.N,HV*%
X98500000Y-206500000D03*
X66500000Y-245000000D03*
%TO.N,Battery Out*%
X66962600Y-211537400D03*
X103869000Y-212000000D03*
X75475000Y-215025000D03*
X95750000Y-239250000D03*
%TO.N,5V Out*%
X81000000Y-232500000D03*
X77000000Y-233000000D03*
%TO.N,Battery*%
X91389235Y-240110765D03*
X88000000Y-218000000D03*
%TO.N,EXT_LOAD2_OUT*%
X98500000Y-227500000D03*
%TO.N,MOTOR2_CTRL1*%
X107500000Y-220500000D03*
%TO.N,MOTOR4_B_OUT*%
X114000000Y-213350000D03*
%TO.N,FAST_CHARGE_CTRL*%
X89000000Y-215500000D03*
%TO.N,I2C1_SCL*%
X85000000Y-239000000D03*
X84500000Y-234000000D03*
%TO.N,MOTOR4_A_OUT*%
X112000000Y-209500000D03*
%TO.N,MOTOR4_CTRL2*%
X107973329Y-211830278D03*
%TO.N,MOTOR3_CTRL2*%
X73500000Y-219500000D03*
%TO.N,MOTOR4_CTRL1*%
X106000000Y-207500000D03*
%TO.N,MOTOR2_CTRL2*%
X106500000Y-219000000D03*
%TO.N,MOTOR3_A_OUT*%
X66500000Y-222000000D03*
%TO.N,MOTOR3_CTRL1*%
X73000000Y-218500000D03*
%TO.N,Net-(U11-CC1)*%
X64500000Y-239500000D03*
X66500000Y-235500000D03*
%TD*%
D51*
%TO.N,GND*%
X88130857Y-217019200D02*
X87399000Y-217751057D01*
D52*
X94520821Y-215249900D02*
X95270821Y-214499900D01*
D51*
X75411000Y-244523240D02*
X75411000Y-245476760D01*
X88111000Y-245476760D02*
X87436760Y-246151000D01*
X97720000Y-232000000D02*
X97720000Y-230142190D01*
X87436760Y-246151000D02*
X86483240Y-246151000D01*
D52*
X95270821Y-214499900D02*
X95500100Y-214499900D01*
D51*
X70000000Y-211021200D02*
X67478800Y-208500000D01*
D52*
X86960000Y-240960000D02*
X86750000Y-240750000D01*
D51*
X100951000Y-226911190D02*
X100951000Y-222606082D01*
D52*
X105000000Y-214000000D02*
X106650100Y-214000000D01*
X95301200Y-215224000D02*
X95953479Y-215224000D01*
D51*
X72871000Y-245238760D02*
X72871000Y-238008810D01*
D52*
X107500000Y-233780000D02*
X106720000Y-233000000D01*
D51*
X104389000Y-218238943D02*
X107251057Y-221101000D01*
X107251057Y-221101000D02*
X107748943Y-221101000D01*
X85134760Y-243849000D02*
X83269000Y-243849000D01*
X91500000Y-213930200D02*
X88411000Y-217019200D01*
X76323240Y-243611000D02*
X75411000Y-244523240D01*
X95750100Y-212249900D02*
X96720000Y-211280000D01*
D52*
X79500000Y-226500000D02*
X79500000Y-228103000D01*
D51*
X63291095Y-231428905D02*
X70569000Y-238706810D01*
D52*
X93500000Y-216500000D02*
X94000000Y-216000000D01*
X95250200Y-215275000D02*
X95301200Y-215224000D01*
D51*
X86483240Y-246151000D02*
X85809000Y-245476760D01*
X82320000Y-217500000D02*
X83096000Y-218276000D01*
X106720000Y-239000000D02*
X107837550Y-237882450D01*
D52*
X73350000Y-214175000D02*
X75000000Y-214175000D01*
X93500000Y-226500000D02*
X92750000Y-225750000D01*
D51*
X87399000Y-217751057D02*
X87399000Y-218248943D01*
D52*
X107500000Y-234500000D02*
X107500000Y-233780000D01*
D51*
X107748943Y-221101000D02*
X109500000Y-219349943D01*
X70000000Y-214000000D02*
X70000000Y-211021200D01*
X75000000Y-214175000D02*
X76175000Y-214175000D01*
X84000000Y-235000000D02*
X84349943Y-235000000D01*
D52*
X86971676Y-234824900D02*
X86321676Y-234174900D01*
X99000000Y-212970200D02*
X99000000Y-213000000D01*
D51*
X63220000Y-211500000D02*
X64470000Y-210250000D01*
X62816095Y-231428905D02*
X63291095Y-231428905D01*
X71243240Y-243611000D02*
X72196760Y-243611000D01*
X88111000Y-243611000D02*
X88111000Y-245476760D01*
X70569000Y-238706810D02*
X70569000Y-242936760D01*
X97720000Y-230142190D02*
X100951000Y-226911190D01*
X75411000Y-245476760D02*
X74736760Y-246151000D01*
X88180257Y-219030200D02*
X91500000Y-219030200D01*
X87399000Y-218248943D02*
X88180257Y-219030200D01*
X60220000Y-234025000D02*
X62816095Y-231428905D01*
X93644550Y-228000000D02*
X93500000Y-227855450D01*
D52*
X101000000Y-213000000D02*
X101500000Y-212500000D01*
D51*
X70569000Y-242936760D02*
X71243240Y-243611000D01*
X107837550Y-236566360D02*
X108850460Y-235553450D01*
X100393918Y-222049000D02*
X98951000Y-222049000D01*
X60220000Y-234500000D02*
X60220000Y-234025000D01*
X80729000Y-243611000D02*
X76323240Y-243611000D01*
D52*
X84000000Y-215490100D02*
X84000000Y-216180000D01*
D51*
X100951000Y-222606082D02*
X100393918Y-222049000D01*
D52*
X86321676Y-234174900D02*
X85773900Y-234174900D01*
D51*
X107837550Y-237882450D02*
X107837550Y-236566360D01*
D52*
X94000000Y-215249900D02*
X94520821Y-215249900D01*
D51*
X85809000Y-245476760D02*
X85809000Y-244523240D01*
X98951000Y-222049000D02*
X98000000Y-223000000D01*
X72196760Y-243611000D02*
X72871000Y-242936760D01*
D52*
X84000000Y-216180000D02*
X85320000Y-217500000D01*
D51*
X105000000Y-214000000D02*
X104389000Y-214611000D01*
X63000000Y-228137810D02*
X63000000Y-218478800D01*
X83096000Y-218276000D02*
X84544000Y-218276000D01*
D52*
X93500000Y-227103000D02*
X93500000Y-226500000D01*
D51*
X72871000Y-242936760D02*
X72871000Y-238008810D01*
D52*
X86960000Y-242460000D02*
X86960000Y-240960000D01*
D51*
X88411000Y-217019200D02*
X88130857Y-217019200D01*
D52*
X65000000Y-210500000D02*
X64500000Y-210000000D01*
X95250200Y-216000000D02*
X95250200Y-215275000D01*
D51*
X95750100Y-212249900D02*
X95750100Y-213000000D01*
X73783240Y-246151000D02*
X72871000Y-245238760D01*
X83269000Y-243849000D02*
X81880000Y-242460000D01*
X93500000Y-227855450D02*
X93500000Y-227103000D01*
X96500000Y-228000000D02*
X93644550Y-228000000D01*
X96720000Y-211280000D02*
X96720000Y-211250200D01*
X72871000Y-238008810D02*
X63000000Y-228137810D01*
D52*
X96250200Y-215520721D02*
X96250200Y-216000000D01*
D51*
X76175000Y-214175000D02*
X76500000Y-214500000D01*
X81880000Y-242460000D02*
X80729000Y-243611000D01*
X104389000Y-214611000D02*
X104389000Y-218238943D01*
X109500000Y-235115300D02*
X109500000Y-217500000D01*
X74736760Y-246151000D02*
X73783240Y-246151000D01*
X84544000Y-218276000D02*
X85320000Y-217500000D01*
X86960000Y-242460000D02*
X88111000Y-243611000D01*
D52*
X107500500Y-234700000D02*
X107500500Y-234500500D01*
D51*
X108850460Y-235553450D02*
X109061850Y-235553450D01*
X85175043Y-234174900D02*
X85773900Y-234174900D01*
D52*
X94000000Y-216000000D02*
X94000000Y-215249900D01*
D51*
X109500000Y-219349943D02*
X109500000Y-217500000D01*
X85809000Y-244523240D02*
X85134760Y-243849000D01*
X84349943Y-235000000D02*
X85175043Y-234174900D01*
D52*
X107500500Y-234500500D02*
X107500000Y-234500000D01*
X95953479Y-215224000D02*
X96250200Y-215520721D01*
D51*
X93675000Y-216825000D02*
X93500000Y-217000000D01*
X64470000Y-210250000D02*
X65750000Y-210250000D01*
X109061850Y-235553450D02*
X109500000Y-235115300D01*
D52*
X88226100Y-234824900D02*
X86971676Y-234824900D01*
%TO.N,HV*%
X66500000Y-245000000D02*
X66300100Y-244800100D01*
X96530200Y-213000000D02*
X98280000Y-211250200D01*
X63000000Y-235399000D02*
X64299000Y-235399000D01*
X61780000Y-234500000D02*
X62101000Y-234500000D01*
X63351100Y-241988800D02*
X63300100Y-241937800D01*
X98280000Y-211250200D02*
X98280000Y-206720000D01*
X98280000Y-206720000D02*
X98500000Y-206500000D01*
X66300100Y-241037800D02*
X66300100Y-241689800D01*
X60000000Y-240000000D02*
X60000000Y-236500000D01*
X66001100Y-241988800D02*
X63351100Y-241988800D01*
X66300100Y-241689800D02*
X66001100Y-241988800D01*
X63300100Y-240137800D02*
X63162300Y-240000000D01*
X60000000Y-236500000D02*
X61101000Y-235399000D01*
X63300100Y-241037800D02*
X63300100Y-240137800D01*
X96250200Y-213000000D02*
X96530200Y-213000000D01*
X64350000Y-235450000D02*
X64350000Y-236000000D01*
X64299000Y-235399000D02*
X64350000Y-235450000D01*
X63162300Y-240000000D02*
X60000000Y-240000000D01*
X61101000Y-235399000D02*
X63000000Y-235399000D01*
X63300100Y-241937800D02*
X63300100Y-241037800D01*
X62101000Y-234500000D02*
X63000000Y-235399000D01*
X66300100Y-244800100D02*
X66300100Y-241037800D01*
%TO.N,Battery Out*%
X107218976Y-213350000D02*
X106650100Y-213350000D01*
X112350100Y-215950200D02*
X108333100Y-215950200D01*
X106601300Y-235603450D02*
X106550300Y-235552450D01*
X95750000Y-239250000D02*
X95750000Y-238530000D01*
X95750000Y-239250000D02*
X96600100Y-239250000D01*
X103869000Y-216369000D02*
X103869000Y-234369000D01*
X99450000Y-238300100D02*
X97550000Y-238300100D01*
X105000000Y-235500000D02*
X105800000Y-234700000D01*
X103869000Y-212000000D02*
X103869000Y-213500000D01*
X103000000Y-215280000D02*
X103000000Y-215500000D01*
X76500000Y-216050000D02*
X75475000Y-215025000D01*
X103350000Y-211450000D02*
X103869000Y-211969000D01*
X107651100Y-215268200D02*
X107651100Y-213782124D01*
X95750000Y-238530000D02*
X95000000Y-237780000D01*
X99450000Y-238300100D02*
X99870000Y-238300100D01*
X103869000Y-234369000D02*
X105000000Y-235500000D01*
X108449700Y-234700000D02*
X108449700Y-233169700D01*
X106550300Y-235552450D02*
X106550300Y-234700000D01*
X106650100Y-213350000D02*
X104019000Y-213350000D01*
X107651100Y-213782124D02*
X107218976Y-213350000D01*
X104019000Y-213350000D02*
X103869000Y-213500000D01*
X103869000Y-213500000D02*
X103869000Y-215181100D01*
X64780000Y-211500000D02*
X66925200Y-211500000D01*
X66962600Y-211537400D02*
X67650000Y-212224800D01*
X75475000Y-215025000D02*
X75275000Y-214825000D01*
X66925200Y-211500000D02*
X66962600Y-211537400D01*
X108162650Y-235603450D02*
X106601300Y-235603450D01*
X108449700Y-233169700D02*
X108280000Y-233000000D01*
X108333100Y-215950200D02*
X107651100Y-215268200D01*
X103869000Y-211969000D02*
X103869000Y-212000000D01*
X103869000Y-216369000D02*
X103869000Y-215181100D01*
X108449700Y-235316400D02*
X108162650Y-235603450D01*
X99870000Y-238300100D02*
X101170100Y-237000000D01*
X95750000Y-239250000D02*
X104750000Y-239250000D01*
X108449700Y-234700000D02*
X108449700Y-235316400D01*
X105800000Y-234700000D02*
X106550300Y-234700000D01*
X73350000Y-214825000D02*
X75275000Y-214825000D01*
X105000000Y-239000000D02*
X105000000Y-235500000D01*
X103000000Y-215500000D02*
X103869000Y-216369000D01*
X96600100Y-239250000D02*
X97550000Y-238300100D01*
X104750000Y-239250000D02*
X105000000Y-239000000D01*
%TO.N,Net-(U6-EN2)*%
X94750100Y-216000000D02*
X94750100Y-216725000D01*
X94750100Y-216725000D02*
X94801100Y-216776000D01*
X94801100Y-216776000D02*
X96453279Y-216776000D01*
X97000000Y-214249900D02*
X98000000Y-214249900D01*
X98719700Y-214249900D02*
X99000000Y-214530200D01*
X96453279Y-216776000D02*
X98000000Y-215229279D01*
X98000000Y-214249900D02*
X98719700Y-214249900D01*
X97000000Y-214749800D02*
X97000000Y-214249900D01*
X98000000Y-215229279D02*
X98000000Y-214249900D01*
%TO.N,3V3 Out*%
X108201000Y-243799000D02*
X90701000Y-243799000D01*
X108500000Y-239220000D02*
X108500000Y-243500000D01*
X108449700Y-237300000D02*
X108449700Y-238830300D01*
X108500000Y-243500000D02*
X108201000Y-243799000D01*
X90701000Y-243799000D02*
X89500000Y-245000000D01*
X108280000Y-239000000D02*
X108500000Y-239220000D01*
%TO.N,5V Out*%
X85000000Y-227500000D02*
X85000000Y-223500000D01*
X99280000Y-232000000D02*
X100500000Y-232000000D01*
X88229800Y-233521200D02*
X88226100Y-233524900D01*
X89978800Y-232021200D02*
X90500000Y-231500000D01*
X81500000Y-230500000D02*
X82000000Y-230000000D01*
X99280000Y-232000000D02*
X99280000Y-229220000D01*
X81000000Y-232500000D02*
X81000000Y-231000000D01*
X76000000Y-232000000D02*
X77000000Y-233000000D01*
X95603000Y-229897000D02*
X96500000Y-229000000D01*
X84000000Y-213509900D02*
X84000000Y-212819900D01*
X100000000Y-227035204D02*
X100000000Y-223000000D01*
X89978800Y-232500000D02*
X89978800Y-232021200D01*
X98035204Y-229000000D02*
X100000000Y-227035204D01*
X81000000Y-231000000D02*
X81500000Y-230500000D01*
X90500000Y-231500000D02*
X90500000Y-229320000D01*
X83680100Y-212500000D02*
X80000000Y-212500000D01*
X99149900Y-232130100D02*
X99280000Y-232000000D01*
X89978800Y-232500000D02*
X91000000Y-233521200D01*
X83000000Y-239341529D02*
X83000000Y-234500000D01*
X88000000Y-220000000D02*
X88000000Y-232500000D01*
X82000000Y-230000000D02*
X82500000Y-230000000D01*
X100500000Y-233500000D02*
X100500000Y-232000000D01*
X85759000Y-243799000D02*
X85759000Y-242100529D01*
X86250000Y-231250000D02*
X85000000Y-230000000D01*
X80450000Y-230897000D02*
X81103000Y-230897000D01*
X87500000Y-232500000D02*
X86250000Y-231250000D01*
X81103000Y-230897000D02*
X81500000Y-230500000D01*
X102000000Y-220000000D02*
X88000000Y-220000000D01*
X85759000Y-242100529D02*
X83000000Y-239341529D01*
X99149900Y-234000000D02*
X100000000Y-234000000D01*
X91000000Y-233521200D02*
X88229800Y-233521200D01*
X96500000Y-229000000D02*
X98035204Y-229000000D01*
X100500000Y-232000000D02*
X102500000Y-230000000D01*
X78500000Y-218500000D02*
X80000000Y-220000000D01*
X85000000Y-230000000D02*
X82500000Y-230000000D01*
X93546550Y-228993550D02*
X94450000Y-229897000D01*
X82500000Y-230000000D02*
X85000000Y-227500000D01*
X83000000Y-234500000D02*
X86250000Y-231250000D01*
X86960000Y-245000000D02*
X85759000Y-243799000D01*
X80000000Y-212500000D02*
X78500000Y-214000000D01*
X78500000Y-214000000D02*
X78500000Y-218500000D01*
X90826450Y-228993550D02*
X93546550Y-228993550D01*
X90500000Y-229320000D02*
X90826450Y-228993550D01*
X100000000Y-234000000D02*
X100500000Y-233500000D01*
X99280000Y-229220000D02*
X102500000Y-226000000D01*
X84000000Y-212819900D02*
X83680100Y-212500000D01*
X76000000Y-230820000D02*
X76000000Y-232000000D01*
X102500000Y-220500000D02*
X102000000Y-220000000D01*
X88000000Y-232500000D02*
X89978800Y-232500000D01*
X94450000Y-229897000D02*
X95603000Y-229897000D01*
X80000000Y-220000000D02*
X88000000Y-220000000D01*
X102500000Y-226000000D02*
X102500000Y-220500000D01*
X87500000Y-232500000D02*
X88000000Y-232500000D01*
%TO.N,Net-(U5-VCP)*%
X106650100Y-212700000D02*
X106081224Y-212700000D01*
X105649100Y-211849100D02*
X103350000Y-209550000D01*
X105649100Y-212267876D02*
X105649100Y-211849100D01*
X106081224Y-212700000D02*
X105649100Y-212267876D01*
%TO.N,Net-(U3-VCP)*%
X76500000Y-217950000D02*
X74025000Y-215475000D01*
X74025000Y-215475000D02*
X73350000Y-215475000D01*
%TO.N,Battery*%
X91000000Y-236386800D02*
X91000000Y-236478800D01*
X101550000Y-246500000D02*
X108000000Y-252950000D01*
X88226100Y-234174900D02*
X88788100Y-234174900D01*
X88788100Y-234174900D02*
X91000000Y-236386800D01*
X88000000Y-218000000D02*
X88529800Y-217470200D01*
X87986400Y-247000000D02*
X92580000Y-247000000D01*
X91000000Y-236478800D02*
X91000000Y-239721530D01*
X92580000Y-247000000D02*
X94580000Y-245000000D01*
X91000000Y-239721530D02*
X91389235Y-240110765D01*
X85699900Y-249286500D02*
X87986400Y-247000000D01*
X91500000Y-217000000D02*
X91500000Y-217470200D01*
X93000000Y-215500000D02*
X91500000Y-217000000D01*
X94580000Y-245000000D02*
X96080000Y-246500000D01*
X96080000Y-246500000D02*
X101550000Y-246500000D01*
X94000000Y-214249900D02*
X94000000Y-214749800D01*
X94000000Y-214749800D02*
X93250200Y-214749800D01*
X93250200Y-214749800D02*
X93000000Y-215000000D01*
X93000000Y-215000000D02*
X93000000Y-215500000D01*
X88529800Y-217470200D02*
X91500000Y-217470200D01*
D53*
%TO.N,EXT_LOAD2_OUT*%
X95000000Y-226553000D02*
X95000000Y-225500000D01*
X92919238Y-223000000D02*
X95000000Y-225080762D01*
X94450000Y-227103000D02*
X95000000Y-226553000D01*
X92000000Y-223000000D02*
X92919238Y-223000000D01*
X98103000Y-227103000D02*
X98500000Y-227500000D01*
X95000000Y-225080762D02*
X95000000Y-225500000D01*
X94450000Y-227103000D02*
X98103000Y-227103000D01*
X95000000Y-225500000D02*
X95000000Y-226000000D01*
%TO.N,EXT_LOAD1_OUT*%
X80450000Y-228869400D02*
X80450000Y-228103000D01*
D52*
X84296900Y-242336900D02*
X84420000Y-242460000D01*
D53*
X78000000Y-223500000D02*
X80500000Y-226000000D01*
X79556850Y-229762550D02*
X80450000Y-228869400D01*
X79556850Y-237596850D02*
X79556850Y-229762550D01*
X78000000Y-222500000D02*
X78000000Y-223500000D01*
X80500000Y-226000000D02*
X80500000Y-226500000D01*
X84420000Y-242460000D02*
X79556850Y-237596850D01*
X80450000Y-228103000D02*
X80450000Y-226550000D01*
X80450000Y-226550000D02*
X80500000Y-226500000D01*
D52*
%TO.N,Net-(U5-VINT)*%
X105000000Y-215000000D02*
X105349800Y-214650200D01*
X105349800Y-214650200D02*
X106650100Y-214650200D01*
%TO.N,Net-(U3-VINT)*%
X73350000Y-213524800D02*
X76475200Y-213524800D01*
X76475200Y-213524800D02*
X76500000Y-213500000D01*
%TO.N,Net-(U1-SW)*%
X102829900Y-237000000D02*
X102829900Y-234329900D01*
X102500000Y-234000000D02*
X101149900Y-234000000D01*
X101149900Y-234000000D02*
X99450000Y-235699900D01*
X102829900Y-234329900D02*
X102500000Y-234000000D01*
%TO.N,MOTOR2_A_OUT*%
X113852100Y-240967900D02*
X109820000Y-245000000D01*
X112918976Y-215300200D02*
X113852100Y-216233324D01*
X112350100Y-215300200D02*
X112918976Y-215300200D01*
X113852100Y-216233324D02*
X113852100Y-240967900D01*
%TO.N,MOTOR2_CTRL1*%
X107151000Y-220151000D02*
X107500000Y-220500000D01*
X106650100Y-215950200D02*
X107151000Y-216451100D01*
X107151000Y-216451100D02*
X107151000Y-220151000D01*
%TO.N,MOTOR4_B_OUT*%
X114000000Y-213350000D02*
X112350100Y-213350000D01*
%TO.N,MOTOR1_CTRL2*%
X75491226Y-243768774D02*
X75491226Y-231571000D01*
X75491226Y-231571000D02*
X72349000Y-228428774D01*
X72349000Y-228428774D02*
X72349000Y-213275800D01*
X72750000Y-212874800D02*
X73350000Y-212874800D01*
X74260000Y-245000000D02*
X75491226Y-243768774D01*
X72349000Y-213275800D02*
X72750000Y-212874800D01*
%TO.N,MOTOR1_A_OUT*%
X59419000Y-241892128D02*
X59419000Y-214581000D01*
X59419000Y-214581000D02*
X61125200Y-212874800D01*
X71720000Y-245000000D02*
X69880200Y-246839800D01*
X61125200Y-212874800D02*
X67650000Y-212874800D01*
X69880200Y-246839800D02*
X64366672Y-246839800D01*
X64366672Y-246839800D02*
X59419000Y-241892128D01*
%TO.N,MOTOR2_B_OUT*%
X115752490Y-214000000D02*
X116726000Y-214973510D01*
X116726000Y-214973510D02*
X116726000Y-239792471D01*
X108619000Y-244502529D02*
X109820000Y-243301529D01*
X112350100Y-214000000D02*
X115752490Y-214000000D01*
X116726000Y-239792471D02*
X110317471Y-246201000D01*
X109322529Y-246201000D02*
X108619000Y-245497471D01*
X109820000Y-243301529D02*
X109820000Y-242460000D01*
X108619000Y-245497471D02*
X108619000Y-244502529D01*
X110317471Y-246201000D02*
X109322529Y-246201000D01*
%TO.N,CTRL_EXT_LOAD2*%
X102200000Y-242460000D02*
X102200000Y-240700000D01*
X93500000Y-240000000D02*
X92550000Y-239050000D01*
X92550000Y-239050000D02*
X92550000Y-229897000D01*
X102200000Y-240700000D02*
X101500000Y-240000000D01*
X101500000Y-240000000D02*
X93500000Y-240000000D01*
%TO.N,MOTOR3_B_OUT*%
X68250000Y-214825000D02*
X67650000Y-214825000D01*
X68651000Y-233151000D02*
X68651000Y-215226000D01*
X68651000Y-215226000D02*
X68250000Y-214825000D01*
X74260000Y-238760000D02*
X68651000Y-233151000D01*
X74260000Y-242460000D02*
X74260000Y-238760000D01*
%TO.N,FAST_CHARGE_CTRL*%
X79991226Y-213429000D02*
X83269100Y-213429000D01*
X81420226Y-219500000D02*
X79173000Y-217252774D01*
X79173000Y-214247226D02*
X79991226Y-213429000D01*
X83269100Y-213429000D02*
X83350000Y-213509900D01*
X85000000Y-219500000D02*
X81420226Y-219500000D01*
X89000000Y-215500000D02*
X85000000Y-219500000D01*
X79173000Y-217252774D02*
X79173000Y-214247226D01*
%TO.N,CTRL_EXT_LOAD1*%
X78550000Y-230897000D02*
X78550000Y-230950000D01*
X78550000Y-230950000D02*
X78000000Y-231500000D01*
X78000000Y-231500000D02*
X78000000Y-241120000D01*
X78000000Y-241120000D02*
X79340000Y-242460000D01*
%TO.N,I2C1_SCL*%
X85000000Y-236249000D02*
X85751000Y-237000000D01*
X85000000Y-236249000D02*
X85773900Y-235475100D01*
X85751000Y-237000000D02*
X86180000Y-237000000D01*
X85226124Y-233524900D02*
X85773900Y-233524900D01*
X85000000Y-239000000D02*
X85000000Y-236249000D01*
X84708520Y-233500000D02*
X85201224Y-233500000D01*
X84500000Y-234000000D02*
X84500000Y-233708520D01*
X85201224Y-233500000D02*
X85226124Y-233524900D01*
X84500000Y-233708520D02*
X84708520Y-233500000D01*
%TO.N,MOTOR4_A_OUT*%
X112000000Y-209500000D02*
X111349100Y-210150900D01*
X111400100Y-212050000D02*
X112350100Y-212050000D01*
X111349100Y-211999000D02*
X111400100Y-212050000D01*
X111349100Y-210150900D02*
X111349100Y-211999000D01*
%TO.N,MOTOR4_CTRL2*%
X106650100Y-212050000D02*
X107753607Y-212050000D01*
X107753607Y-212050000D02*
X107973329Y-211830278D01*
%TO.N,MOTOR3_CTRL2*%
X74351000Y-218649000D02*
X74351000Y-216526000D01*
X73950000Y-216125000D02*
X73350000Y-216125000D01*
X73500000Y-219500000D02*
X74351000Y-218649000D01*
X74351000Y-216526000D02*
X73950000Y-216125000D01*
%TO.N,MOTOR4_CTRL1*%
X106650100Y-211400000D02*
X106650100Y-208150100D01*
X106650100Y-208150100D02*
X106000000Y-207500000D01*
%TO.N,MOTOR1_CTRL1*%
X58918000Y-211946950D02*
X63566450Y-207298500D01*
X63566450Y-207298500D02*
X68423700Y-207298500D01*
X58918000Y-245191228D02*
X58918000Y-211946950D01*
X76800000Y-245000000D02*
X74459200Y-247340800D01*
X61067572Y-247340800D02*
X58918000Y-245191228D01*
X68423700Y-207298500D02*
X73350000Y-212224800D01*
X74459200Y-247340800D02*
X61067572Y-247340800D01*
%TO.N,MOTOR2_CTRL2*%
X105649100Y-215732324D02*
X105649100Y-218149100D01*
X105649100Y-218149100D02*
X106500000Y-219000000D01*
X106650100Y-215300200D02*
X106081224Y-215300200D01*
X106081224Y-215300200D02*
X105649100Y-215732324D01*
%TO.N,MOTOR1_B_OUT*%
X71720000Y-242460000D02*
X71720000Y-239220000D01*
X71720000Y-239220000D02*
X61798500Y-229298500D01*
X61798500Y-214566450D02*
X62189950Y-214175000D01*
X61798500Y-229298500D02*
X61798500Y-214566450D01*
X62189950Y-214175000D02*
X67650000Y-214175000D01*
%TO.N,I2C1_SDA*%
X85175100Y-234824900D02*
X84349000Y-235651000D01*
X85155000Y-240000000D02*
X86180000Y-238975000D01*
X84349000Y-239849000D02*
X84500000Y-240000000D01*
X86180000Y-238975000D02*
X86180000Y-238500000D01*
X89960000Y-242460000D02*
X86180000Y-238680000D01*
X86180000Y-238680000D02*
X86180000Y-238500000D01*
X85773900Y-234824900D02*
X85175100Y-234824900D01*
X84500000Y-240000000D02*
X85155000Y-240000000D01*
X84349000Y-235651000D02*
X84349000Y-239849000D01*
X89500000Y-242460000D02*
X89960000Y-242460000D01*
%TO.N,MOTOR3_A_OUT*%
X66500000Y-222000000D02*
X66500000Y-216675000D01*
X67050000Y-216125000D02*
X67650000Y-216125000D01*
X66500000Y-216675000D02*
X67050000Y-216125000D01*
%TO.N,MOTOR3_CTRL1*%
X73000000Y-218500000D02*
X73000000Y-217125000D01*
X73000000Y-217125000D02*
X73350000Y-216775000D01*
%TO.N,3.3V Out*%
X88226100Y-235475100D02*
X88226100Y-236593900D01*
X88226100Y-236593900D02*
X87820000Y-237000000D01*
X87820000Y-238500000D02*
X87820000Y-237000000D01*
%TO.N,Net-(U3-AISEN)*%
X68751000Y-213082321D02*
X68751000Y-211751000D01*
X65500000Y-208500000D02*
X64521200Y-208500000D01*
X68751000Y-211751000D02*
X65500000Y-208500000D01*
X67650000Y-213524800D02*
X68308521Y-213524800D01*
X68308521Y-213524800D02*
X68751000Y-213082321D01*
%TO.N,Net-(U3-BISEN)*%
X63000000Y-215521200D02*
X67603800Y-215521200D01*
X67603800Y-215521200D02*
X67650000Y-215475000D01*
%TO.N,Net-(U1-FB)*%
X97149900Y-234000000D02*
X95829900Y-232680000D01*
X97509900Y-234000000D02*
X97149900Y-234000000D01*
X97550000Y-234040100D02*
X97509900Y-234000000D01*
X97550000Y-235699900D02*
X97550000Y-234040100D01*
%TO.N,Net-(R10-Pad1)*%
X91820000Y-211250200D02*
X91500000Y-210930200D01*
X93180000Y-211250200D02*
X91820000Y-211250200D01*
%TO.N,Net-(U6-ITERM)*%
X95250200Y-211680400D02*
X95250200Y-213000000D01*
X94820000Y-211250200D02*
X95250200Y-211680400D01*
%TO.N,Net-(U8-~{FLG})*%
X92550000Y-227103000D02*
X91077000Y-227103000D01*
X91077000Y-227103000D02*
X90500000Y-227680000D01*
%TO.N,Net-(U5-AISEN)*%
X111781224Y-214650200D02*
X112350100Y-214650200D01*
X112350100Y-214650200D02*
X114610200Y-214650200D01*
X114610200Y-214650200D02*
X115500000Y-215540000D01*
%TO.N,Net-(U5-BISEN)*%
X115500000Y-212960000D02*
X115240000Y-212700000D01*
X115240000Y-212700000D02*
X112350100Y-212700000D01*
%TO.N,Net-(U6-TS)*%
X93321300Y-213748900D02*
X94000000Y-213748900D01*
X91500000Y-215570200D02*
X93321300Y-213748900D01*
%TO.N,Net-(U6-ILIM)*%
X100000000Y-212674378D02*
X100000000Y-217000000D01*
X99749800Y-217250200D02*
X100000000Y-217000000D01*
X98505178Y-212169200D02*
X99494822Y-212169200D01*
X97000000Y-213749800D02*
X97000000Y-213674378D01*
X97000000Y-213674378D02*
X98505178Y-212169200D01*
X99320000Y-217250200D02*
X99749800Y-217250200D01*
X99494822Y-212169200D02*
X100000000Y-212674378D01*
%TO.N,Net-(U9-B1)*%
X83350000Y-217170000D02*
X83680000Y-217500000D01*
X83350000Y-215490100D02*
X83350000Y-217170000D01*
%TO.N,Net-(R18-Pad2)*%
X80500000Y-214180000D02*
X79674000Y-215006000D01*
X79674000Y-216494000D02*
X80680000Y-217500000D01*
X79674000Y-215006000D02*
X79674000Y-216494000D01*
%TO.N,Net-(U9-B0)*%
X84650000Y-214800100D02*
X84599000Y-214749100D01*
X84599000Y-214749100D02*
X81570900Y-214749100D01*
X84650000Y-215490100D02*
X84650000Y-214800100D01*
X81570900Y-214749100D02*
X80500000Y-215820000D01*
%TO.N,ISET*%
X85080100Y-213509900D02*
X86590000Y-212000000D01*
X84650000Y-213509900D02*
X85080100Y-213509900D01*
X89796750Y-211819200D02*
X88926550Y-210949000D01*
X87641000Y-210949000D02*
X86590000Y-212000000D01*
X88926550Y-210949000D02*
X87641000Y-210949000D01*
X94750100Y-213000000D02*
X93189574Y-213000000D01*
X92008774Y-211819200D02*
X89796750Y-211819200D01*
X93189574Y-213000000D02*
X92008774Y-211819200D01*
%TO.N,Net-(U11-VSET)*%
X62000000Y-236000000D02*
X63700000Y-236000000D01*
X61500000Y-236500000D02*
X62000000Y-236000000D01*
X61500000Y-237000000D02*
X61500000Y-236500000D01*
%TO.N,Net-(U7-~{FLG})*%
X76000000Y-229000000D02*
X76897000Y-228103000D01*
X76897000Y-228103000D02*
X78550000Y-228103000D01*
X76000000Y-229180000D02*
X76000000Y-229000000D01*
%TO.N,Net-(U11-CC1)*%
X65500000Y-235500000D02*
X65000000Y-236000000D01*
X64300100Y-241037800D02*
X64300100Y-239699900D01*
X66500000Y-235500000D02*
X65500000Y-235500000D01*
X64300100Y-239699900D02*
X64500000Y-239500000D01*
%TO.N,Net-(U11-CC2)*%
X65300100Y-241037800D02*
X65300100Y-238300100D01*
X65300100Y-238300100D02*
X65000000Y-238000000D01*
%TD*%
%TA.AperFunction,Conductor*%
%TO.N,GND*%
G36*
X117458362Y-240122239D02*
G01*
X117495082Y-240181682D01*
X117499500Y-240214488D01*
X117499500Y-258375500D01*
X117479815Y-258442539D01*
X117427011Y-258488294D01*
X117375500Y-258499500D01*
X58624500Y-258499500D01*
X58557461Y-258479815D01*
X58511706Y-258427011D01*
X58500500Y-258375500D01*
X58500500Y-245993036D01*
X58520185Y-245925997D01*
X58572989Y-245880242D01*
X58642147Y-245870298D01*
X58705703Y-245899323D01*
X58712181Y-245905355D01*
X60652897Y-247846072D01*
X60652898Y-247846073D01*
X60652901Y-247846075D01*
X60652903Y-247846077D01*
X60759445Y-247917265D01*
X60877828Y-247966301D01*
X60877832Y-247966301D01*
X60877833Y-247966302D01*
X61003500Y-247991300D01*
X61003503Y-247991300D01*
X74523271Y-247991300D01*
X74607815Y-247974482D01*
X74648944Y-247966301D01*
X74767327Y-247917265D01*
X74873869Y-247846077D01*
X76369289Y-246350655D01*
X76430610Y-246317172D01*
X76478754Y-246317685D01*
X76478945Y-246316484D01*
X76561453Y-246329552D01*
X76693713Y-246350500D01*
X76693714Y-246350500D01*
X76906286Y-246350500D01*
X76906287Y-246350500D01*
X77116243Y-246317246D01*
X77318412Y-246251557D01*
X77507816Y-246155051D01*
X77541652Y-246130468D01*
X77679786Y-246030109D01*
X77679788Y-246030106D01*
X77679792Y-246030104D01*
X77830104Y-245879792D01*
X77830106Y-245879788D01*
X77830109Y-245879786D01*
X77953902Y-245709397D01*
X77955051Y-245707816D01*
X77959514Y-245699054D01*
X78007488Y-245648259D01*
X78075308Y-245631463D01*
X78141444Y-245653999D01*
X78180486Y-245699056D01*
X78184951Y-245707820D01*
X78309890Y-245879786D01*
X78460213Y-246030109D01*
X78632179Y-246155048D01*
X78632181Y-246155049D01*
X78632184Y-246155051D01*
X78821588Y-246251557D01*
X79023757Y-246317246D01*
X79233713Y-246350500D01*
X79233714Y-246350500D01*
X79446286Y-246350500D01*
X79446287Y-246350500D01*
X79656243Y-246317246D01*
X79858412Y-246251557D01*
X80047816Y-246155051D01*
X80081652Y-246130468D01*
X80219786Y-246030109D01*
X80219788Y-246030106D01*
X80219792Y-246030104D01*
X80370104Y-245879792D01*
X80370106Y-245879788D01*
X80370109Y-245879786D01*
X80493902Y-245709397D01*
X80495051Y-245707816D01*
X80499514Y-245699054D01*
X80547488Y-245648259D01*
X80615308Y-245631463D01*
X80681444Y-245653999D01*
X80720486Y-245699056D01*
X80724951Y-245707820D01*
X80849890Y-245879786D01*
X81000213Y-246030109D01*
X81172179Y-246155048D01*
X81172181Y-246155049D01*
X81172184Y-246155051D01*
X81361588Y-246251557D01*
X81563757Y-246317246D01*
X81773713Y-246350500D01*
X81773714Y-246350500D01*
X81986286Y-246350500D01*
X81986287Y-246350500D01*
X82196243Y-246317246D01*
X82398412Y-246251557D01*
X82587816Y-246155051D01*
X82621652Y-246130468D01*
X82759786Y-246030109D01*
X82759788Y-246030106D01*
X82759792Y-246030104D01*
X82910104Y-245879792D01*
X82910106Y-245879788D01*
X82910109Y-245879786D01*
X83033902Y-245709397D01*
X83035051Y-245707816D01*
X83039514Y-245699054D01*
X83087488Y-245648259D01*
X83155308Y-245631463D01*
X83221444Y-245653999D01*
X83260486Y-245699056D01*
X83264951Y-245707820D01*
X83389890Y-245879786D01*
X83540213Y-246030109D01*
X83712179Y-246155048D01*
X83712181Y-246155049D01*
X83712184Y-246155051D01*
X83901588Y-246251557D01*
X84103757Y-246317246D01*
X84313713Y-246350500D01*
X84313714Y-246350500D01*
X84526286Y-246350500D01*
X84526287Y-246350500D01*
X84736243Y-246317246D01*
X84938412Y-246251557D01*
X85127816Y-246155051D01*
X85161652Y-246130468D01*
X85299786Y-246030109D01*
X85299788Y-246030106D01*
X85299792Y-246030104D01*
X85450104Y-245879792D01*
X85450106Y-245879788D01*
X85450109Y-245879786D01*
X85573902Y-245709397D01*
X85575051Y-245707816D01*
X85579514Y-245699054D01*
X85627488Y-245648259D01*
X85695308Y-245631463D01*
X85761444Y-245653999D01*
X85800486Y-245699056D01*
X85804951Y-245707820D01*
X85929890Y-245879786D01*
X86080213Y-246030109D01*
X86252179Y-246155048D01*
X86252181Y-246155049D01*
X86252184Y-246155051D01*
X86441588Y-246251557D01*
X86643757Y-246317246D01*
X86853713Y-246350500D01*
X86853714Y-246350500D01*
X87066286Y-246350500D01*
X87066287Y-246350500D01*
X87276243Y-246317246D01*
X87478412Y-246251557D01*
X87667816Y-246155051D01*
X87778361Y-246074736D01*
X87839786Y-246030109D01*
X87839788Y-246030106D01*
X87839792Y-246030104D01*
X87990104Y-245879792D01*
X87990106Y-245879788D01*
X87990109Y-245879786D01*
X88113902Y-245709397D01*
X88115051Y-245707816D01*
X88119514Y-245699054D01*
X88167488Y-245648259D01*
X88235308Y-245631463D01*
X88301444Y-245653999D01*
X88340486Y-245699056D01*
X88344951Y-245707820D01*
X88469890Y-245879786D01*
X88620209Y-246030105D01*
X88620214Y-246030109D01*
X88751071Y-246125182D01*
X88793737Y-246180512D01*
X88799716Y-246250125D01*
X88767111Y-246311920D01*
X88706272Y-246346277D01*
X88678186Y-246349500D01*
X87922329Y-246349500D01*
X87796661Y-246374497D01*
X87796651Y-246374500D01*
X87725750Y-246403867D01*
X87725725Y-246403879D01*
X87678273Y-246423535D01*
X87649761Y-246442585D01*
X87649751Y-246442591D01*
X87571727Y-246494725D01*
X86555743Y-247510709D01*
X86494420Y-247544194D01*
X86424728Y-247539210D01*
X86411767Y-247533513D01*
X86218314Y-247434944D01*
X86218313Y-247434943D01*
X86218312Y-247434943D01*
X86016143Y-247369254D01*
X86016141Y-247369253D01*
X86016140Y-247369253D01*
X85854857Y-247343708D01*
X85806187Y-247336000D01*
X85593613Y-247336000D01*
X85544942Y-247343708D01*
X85383660Y-247369253D01*
X85181485Y-247434944D01*
X84992079Y-247531451D01*
X84820113Y-247656390D01*
X84669790Y-247806713D01*
X84544851Y-247978679D01*
X84448344Y-248168085D01*
X84382653Y-248370260D01*
X84349400Y-248580213D01*
X84349400Y-249992786D01*
X84382635Y-250202627D01*
X84382654Y-250202743D01*
X84389628Y-250224208D01*
X84448344Y-250404914D01*
X84544851Y-250594320D01*
X84669790Y-250766286D01*
X84820113Y-250916609D01*
X84992079Y-251041548D01*
X84992081Y-251041549D01*
X84992084Y-251041551D01*
X85181488Y-251138057D01*
X85383657Y-251203746D01*
X85593613Y-251237000D01*
X85593614Y-251237000D01*
X85806186Y-251237000D01*
X85806187Y-251237000D01*
X86016143Y-251203746D01*
X86218312Y-251138057D01*
X86407716Y-251041551D01*
X86429689Y-251025586D01*
X86579686Y-250916609D01*
X86579688Y-250916606D01*
X86579692Y-250916604D01*
X86730004Y-250766292D01*
X86730006Y-250766288D01*
X86730009Y-250766286D01*
X86854948Y-250594320D01*
X86854947Y-250594320D01*
X86854951Y-250594316D01*
X86951457Y-250404912D01*
X87017146Y-250202743D01*
X87050400Y-249992787D01*
X87050400Y-248907308D01*
X87070085Y-248840269D01*
X87086719Y-248819627D01*
X88219527Y-247686819D01*
X88280850Y-247653334D01*
X88307208Y-247650500D01*
X89340024Y-247650500D01*
X89407063Y-247670185D01*
X89452818Y-247722989D01*
X89462762Y-247792147D01*
X89440342Y-247847385D01*
X89344951Y-247978680D01*
X89248444Y-248168085D01*
X89182753Y-248370260D01*
X89149500Y-248580213D01*
X89149500Y-249992786D01*
X89182735Y-250202627D01*
X89182754Y-250202743D01*
X89189728Y-250224208D01*
X89248444Y-250404914D01*
X89344951Y-250594320D01*
X89469890Y-250766286D01*
X89620213Y-250916609D01*
X89792179Y-251041548D01*
X89792181Y-251041549D01*
X89792184Y-251041551D01*
X89981588Y-251138057D01*
X90183757Y-251203746D01*
X90393713Y-251237000D01*
X90393714Y-251237000D01*
X90606286Y-251237000D01*
X90606287Y-251237000D01*
X90816243Y-251203746D01*
X91018412Y-251138057D01*
X91207816Y-251041551D01*
X91229789Y-251025586D01*
X91379786Y-250916609D01*
X91379788Y-250916606D01*
X91379792Y-250916604D01*
X91530104Y-250766292D01*
X91530106Y-250766288D01*
X91530109Y-250766286D01*
X91655048Y-250594320D01*
X91655047Y-250594320D01*
X91655051Y-250594316D01*
X91751557Y-250404912D01*
X91817246Y-250202743D01*
X91850500Y-249992787D01*
X91850500Y-248580253D01*
X93949900Y-248580253D01*
X93949900Y-249036500D01*
X94749900Y-249036500D01*
X94749900Y-249536500D01*
X93949900Y-249536500D01*
X93949900Y-249992746D01*
X93983142Y-250202627D01*
X93983142Y-250202630D01*
X94048804Y-250404717D01*
X94145279Y-250594057D01*
X94270172Y-250765959D01*
X94270176Y-250765964D01*
X94420435Y-250916223D01*
X94420440Y-250916227D01*
X94592342Y-251041120D01*
X94781682Y-251137595D01*
X94983771Y-251203257D01*
X95049900Y-251213731D01*
X95049900Y-250377247D01*
X95087608Y-250399018D01*
X95227491Y-250436500D01*
X95372309Y-250436500D01*
X95512192Y-250399018D01*
X95549900Y-250377247D01*
X95549900Y-251213730D01*
X95616026Y-251203257D01*
X95616029Y-251203257D01*
X95818117Y-251137595D01*
X96007457Y-251041120D01*
X96179359Y-250916227D01*
X96179364Y-250916223D01*
X96329623Y-250765964D01*
X96329627Y-250765959D01*
X96454520Y-250594057D01*
X96550995Y-250404717D01*
X96616657Y-250202630D01*
X96616657Y-250202627D01*
X96649900Y-249992746D01*
X96649900Y-249536500D01*
X95849900Y-249536500D01*
X95849900Y-249036500D01*
X96649900Y-249036500D01*
X96649900Y-248580253D01*
X96616657Y-248370372D01*
X96616657Y-248370369D01*
X96550995Y-248168282D01*
X96454520Y-247978942D01*
X96329627Y-247807040D01*
X96329623Y-247807035D01*
X96179364Y-247656776D01*
X96179359Y-247656772D01*
X96007457Y-247531879D01*
X95818115Y-247435403D01*
X95616024Y-247369741D01*
X95549900Y-247359268D01*
X95549900Y-248195752D01*
X95512192Y-248173982D01*
X95372309Y-248136500D01*
X95227491Y-248136500D01*
X95087608Y-248173982D01*
X95049900Y-248195752D01*
X95049900Y-247359268D01*
X95049899Y-247359268D01*
X94983775Y-247369741D01*
X94781684Y-247435403D01*
X94592342Y-247531879D01*
X94420440Y-247656772D01*
X94420435Y-247656776D01*
X94270176Y-247807035D01*
X94270172Y-247807040D01*
X94145279Y-247978942D01*
X94048804Y-248168282D01*
X93983142Y-248370369D01*
X93983142Y-248370372D01*
X93949900Y-248580253D01*
X91850500Y-248580253D01*
X91850500Y-248580213D01*
X91817246Y-248370257D01*
X91751557Y-248168088D01*
X91655051Y-247978684D01*
X91610428Y-247917265D01*
X91559658Y-247847385D01*
X91536178Y-247781579D01*
X91552004Y-247713525D01*
X91602110Y-247664830D01*
X91659976Y-247650500D01*
X92644071Y-247650500D01*
X92728615Y-247633682D01*
X92769744Y-247625501D01*
X92888127Y-247576465D01*
X92994669Y-247505277D01*
X94149289Y-246350654D01*
X94210610Y-246317171D01*
X94258753Y-246317693D01*
X94258945Y-246316484D01*
X94341453Y-246329552D01*
X94473713Y-246350500D01*
X94473714Y-246350500D01*
X94686286Y-246350500D01*
X94686287Y-246350500D01*
X94818547Y-246329552D01*
X94901055Y-246316484D01*
X94901315Y-246318128D01*
X94963852Y-246321250D01*
X95010711Y-246350657D01*
X95665324Y-247005271D01*
X95665327Y-247005274D01*
X95665330Y-247005276D01*
X95753321Y-247064069D01*
X95771873Y-247076465D01*
X95890256Y-247125501D01*
X95890260Y-247125501D01*
X95890261Y-247125502D01*
X96015928Y-247150500D01*
X96015931Y-247150500D01*
X101229192Y-247150500D01*
X101296231Y-247170185D01*
X101316873Y-247186819D01*
X106863181Y-252733127D01*
X106896666Y-252794450D01*
X106899500Y-252820808D01*
X106899500Y-253625001D01*
X106899501Y-253625019D01*
X106910000Y-253727796D01*
X106910001Y-253727799D01*
X106965185Y-253894331D01*
X106965186Y-253894334D01*
X107057288Y-254043656D01*
X107181344Y-254167712D01*
X107330666Y-254259814D01*
X107497203Y-254314999D01*
X107599991Y-254325500D01*
X108400008Y-254325499D01*
X108400016Y-254325498D01*
X108400019Y-254325498D01*
X108456302Y-254319748D01*
X108502797Y-254314999D01*
X108669334Y-254259814D01*
X108818656Y-254167712D01*
X108942712Y-254043656D01*
X108982581Y-253979016D01*
X109034525Y-253932294D01*
X109103488Y-253921071D01*
X109167570Y-253948914D01*
X109175799Y-253956434D01*
X109283397Y-254064032D01*
X109423475Y-254165804D01*
X109577744Y-254244408D01*
X109742415Y-254297914D01*
X109742414Y-254297914D01*
X109749999Y-254299115D01*
X109750000Y-254299114D01*
X109750000Y-253230330D01*
X109769745Y-253250075D01*
X109855255Y-253299444D01*
X109950630Y-253325000D01*
X110049370Y-253325000D01*
X110144745Y-253299444D01*
X110230255Y-253250075D01*
X110250000Y-253230330D01*
X110250000Y-254299115D01*
X110257584Y-254297914D01*
X110422255Y-254244408D01*
X110576524Y-254165804D01*
X110716602Y-254064032D01*
X110839032Y-253941602D01*
X110940804Y-253801524D01*
X111019408Y-253647257D01*
X111072914Y-253482584D01*
X111100000Y-253311571D01*
X111100000Y-253200000D01*
X110280330Y-253200000D01*
X110300075Y-253180255D01*
X110349444Y-253094745D01*
X110375000Y-252999370D01*
X110375000Y-252900630D01*
X110349444Y-252805255D01*
X110300075Y-252719745D01*
X110280330Y-252700000D01*
X111100000Y-252700000D01*
X111100000Y-252588428D01*
X111072914Y-252417415D01*
X111019408Y-252252742D01*
X110940804Y-252098475D01*
X110839032Y-251958397D01*
X110716602Y-251835967D01*
X110576524Y-251734195D01*
X110422257Y-251655591D01*
X110257589Y-251602087D01*
X110257581Y-251602085D01*
X110250000Y-251600884D01*
X110250000Y-252669670D01*
X110230255Y-252649925D01*
X110144745Y-252600556D01*
X110049370Y-252575000D01*
X109950630Y-252575000D01*
X109855255Y-252600556D01*
X109769745Y-252649925D01*
X109750000Y-252669670D01*
X109750000Y-251600884D01*
X109749999Y-251600884D01*
X109742418Y-251602085D01*
X109742410Y-251602087D01*
X109577742Y-251655591D01*
X109423475Y-251734195D01*
X109283401Y-251835964D01*
X109175799Y-251943566D01*
X109114476Y-251977050D01*
X109044784Y-251972066D01*
X108988851Y-251930194D01*
X108982585Y-251920988D01*
X108942712Y-251856344D01*
X108818656Y-251732288D01*
X108669334Y-251640186D01*
X108502797Y-251585001D01*
X108502795Y-251585000D01*
X108400010Y-251574500D01*
X108400009Y-251574500D01*
X108399755Y-251574500D01*
X107596836Y-251574501D01*
X107596836Y-251573140D01*
X107534122Y-251558089D01*
X107508177Y-251538231D01*
X102486446Y-246516500D01*
X102452961Y-246455177D01*
X102457945Y-246385485D01*
X102499817Y-246329552D01*
X102535805Y-246310889D01*
X102718412Y-246251557D01*
X102907816Y-246155051D01*
X102941652Y-246130468D01*
X103079786Y-246030109D01*
X103079788Y-246030106D01*
X103079792Y-246030104D01*
X103230104Y-245879792D01*
X103230106Y-245879788D01*
X103230109Y-245879786D01*
X103353902Y-245709397D01*
X103355051Y-245707816D01*
X103359514Y-245699054D01*
X103407488Y-245648259D01*
X103475308Y-245631463D01*
X103541444Y-245653999D01*
X103580486Y-245699056D01*
X103584951Y-245707820D01*
X103709890Y-245879786D01*
X103860213Y-246030109D01*
X104032179Y-246155048D01*
X104032181Y-246155049D01*
X104032184Y-246155051D01*
X104221588Y-246251557D01*
X104423757Y-246317246D01*
X104633713Y-246350500D01*
X104633714Y-246350500D01*
X104846286Y-246350500D01*
X104846287Y-246350500D01*
X105056243Y-246317246D01*
X105258412Y-246251557D01*
X105447816Y-246155051D01*
X105481652Y-246130468D01*
X105619786Y-246030109D01*
X105619788Y-246030106D01*
X105619792Y-246030104D01*
X105770104Y-245879792D01*
X105770106Y-245879788D01*
X105770109Y-245879786D01*
X105893902Y-245709397D01*
X105895051Y-245707816D01*
X105899514Y-245699054D01*
X105947488Y-245648259D01*
X106015308Y-245631463D01*
X106081444Y-245653999D01*
X106120486Y-245699056D01*
X106124951Y-245707820D01*
X106249890Y-245879786D01*
X106400213Y-246030109D01*
X106572179Y-246155048D01*
X106572181Y-246155049D01*
X106572184Y-246155051D01*
X106761588Y-246251557D01*
X106963757Y-246317246D01*
X107173713Y-246350500D01*
X107173714Y-246350500D01*
X107386286Y-246350500D01*
X107386287Y-246350500D01*
X107596243Y-246317246D01*
X107798412Y-246251557D01*
X107987816Y-246155051D01*
X108115756Y-246062097D01*
X108181558Y-246038619D01*
X108249612Y-246054444D01*
X108276319Y-246074736D01*
X108907853Y-246706271D01*
X108907854Y-246706272D01*
X108907857Y-246706274D01*
X108907859Y-246706276D01*
X109011805Y-246775729D01*
X109011806Y-246775731D01*
X109014399Y-246777463D01*
X109014402Y-246777465D01*
X109132785Y-246826501D01*
X109132789Y-246826501D01*
X109132790Y-246826502D01*
X109258457Y-246851500D01*
X109258460Y-246851500D01*
X110381542Y-246851500D01*
X110466086Y-246834682D01*
X110507215Y-246826501D01*
X110625598Y-246777465D01*
X110628193Y-246775731D01*
X110732140Y-246706277D01*
X117231277Y-240207140D01*
X117272398Y-240145598D01*
X117326010Y-240100792D01*
X117395335Y-240092085D01*
X117458362Y-240122239D01*
G37*
%TD.AperFunction*%
%TA.AperFunction,Conductor*%
G36*
X67389381Y-235814776D02*
G01*
X67413794Y-235833740D01*
X71033181Y-239453127D01*
X71066666Y-239514450D01*
X71069500Y-239540808D01*
X71069500Y-241200382D01*
X71049815Y-241267421D01*
X71015408Y-241301099D01*
X71016125Y-241302085D01*
X70840213Y-241429890D01*
X70689890Y-241580213D01*
X70564951Y-241752179D01*
X70468444Y-241941585D01*
X70402753Y-242143760D01*
X70369500Y-242353713D01*
X70369500Y-242566286D01*
X70402753Y-242776239D01*
X70468444Y-242978414D01*
X70564951Y-243167820D01*
X70689890Y-243339786D01*
X70840213Y-243490109D01*
X71012182Y-243615050D01*
X71020946Y-243619516D01*
X71071742Y-243667491D01*
X71088536Y-243735312D01*
X71065998Y-243801447D01*
X71020946Y-243840484D01*
X71012182Y-243844949D01*
X70840213Y-243969890D01*
X70689890Y-244120213D01*
X70564951Y-244292179D01*
X70468444Y-244481583D01*
X70405464Y-244675417D01*
X70366026Y-244733092D01*
X70301667Y-244760290D01*
X70232821Y-244748375D01*
X70181345Y-244701131D01*
X70165916Y-244661289D01*
X70130131Y-244481387D01*
X70130130Y-244481380D01*
X70050941Y-244290202D01*
X69935977Y-244118145D01*
X69935975Y-244118142D01*
X69789657Y-243971824D01*
X69703626Y-243914341D01*
X69617598Y-243856859D01*
X69617593Y-243856857D01*
X69426420Y-243777670D01*
X69426412Y-243777668D01*
X69223469Y-243737300D01*
X69223465Y-243737300D01*
X69016535Y-243737300D01*
X69016530Y-243737300D01*
X68813587Y-243777668D01*
X68813579Y-243777670D01*
X68622403Y-243856858D01*
X68450342Y-243971824D01*
X68304024Y-244118142D01*
X68189058Y-244290203D01*
X68109870Y-244481379D01*
X68109868Y-244481387D01*
X68069500Y-244684330D01*
X68069500Y-245491269D01*
X68109868Y-245694212D01*
X68109870Y-245694220D01*
X68141149Y-245769735D01*
X68189059Y-245885398D01*
X68202394Y-245905355D01*
X68263234Y-245996410D01*
X68284111Y-246063088D01*
X68265626Y-246130468D01*
X68213647Y-246177157D01*
X68160131Y-246189300D01*
X64687480Y-246189300D01*
X64620441Y-246169615D01*
X64599799Y-246152981D01*
X61077241Y-242630423D01*
X61043756Y-242569100D01*
X61048740Y-242499408D01*
X61090612Y-242443475D01*
X61096021Y-242439647D01*
X61149855Y-242403677D01*
X61296177Y-242257355D01*
X61368221Y-242149531D01*
X61421831Y-242104729D01*
X61491156Y-242096020D01*
X61514656Y-242102243D01*
X61592816Y-242131395D01*
X61592827Y-242131398D01*
X61652355Y-242137799D01*
X61652372Y-242137800D01*
X61850200Y-242137800D01*
X61850200Y-241161800D01*
X61869885Y-241094761D01*
X61922689Y-241049006D01*
X61974200Y-241037800D01*
X62226200Y-241037800D01*
X62293239Y-241057485D01*
X62338994Y-241110289D01*
X62350200Y-241161800D01*
X62350200Y-242137800D01*
X62548028Y-242137800D01*
X62548041Y-242137799D01*
X62580974Y-242134258D01*
X62649733Y-242146662D01*
X62700872Y-242194271D01*
X62708792Y-242210094D01*
X62723633Y-242245924D01*
X62794826Y-242352473D01*
X62936425Y-242494072D01*
X62936428Y-242494074D01*
X62936431Y-242494077D01*
X63032908Y-242558539D01*
X63032909Y-242558541D01*
X63039604Y-242563014D01*
X63042973Y-242565265D01*
X63161356Y-242614301D01*
X63161360Y-242614301D01*
X63161361Y-242614302D01*
X63287028Y-242639300D01*
X63287031Y-242639300D01*
X65525600Y-242639300D01*
X65592639Y-242658985D01*
X65638394Y-242711789D01*
X65649600Y-242763300D01*
X65649600Y-244864170D01*
X65662831Y-244930686D01*
X65662833Y-244930693D01*
X65663875Y-244935931D01*
X65674599Y-244989844D01*
X65692676Y-245033487D01*
X65694583Y-245040053D01*
X65694553Y-245049756D01*
X65699500Y-245074625D01*
X65699500Y-245078846D01*
X65730261Y-245233489D01*
X65730264Y-245233501D01*
X65790602Y-245379172D01*
X65790609Y-245379185D01*
X65878210Y-245510288D01*
X65878213Y-245510292D01*
X65989707Y-245621786D01*
X65989711Y-245621789D01*
X66120814Y-245709390D01*
X66120827Y-245709397D01*
X66266498Y-245769735D01*
X66266503Y-245769737D01*
X66421153Y-245800499D01*
X66421156Y-245800500D01*
X66421158Y-245800500D01*
X66578844Y-245800500D01*
X66578845Y-245800499D01*
X66733497Y-245769737D01*
X66879179Y-245709394D01*
X67010289Y-245621789D01*
X67121789Y-245510289D01*
X67209394Y-245379179D01*
X67269737Y-245233497D01*
X67300500Y-245078842D01*
X67300500Y-244921158D01*
X67300500Y-244921155D01*
X67300499Y-244921153D01*
X67269738Y-244766510D01*
X67269737Y-244766503D01*
X67255898Y-244733092D01*
X67209397Y-244620827D01*
X67209390Y-244620814D01*
X67121789Y-244489711D01*
X67121786Y-244489707D01*
X67010292Y-244378213D01*
X67010287Y-244378209D01*
X67005706Y-244375148D01*
X66960903Y-244321535D01*
X66950600Y-244272048D01*
X66950600Y-242261800D01*
X66970285Y-242194761D01*
X67023089Y-242149006D01*
X67074600Y-242137800D01*
X67250000Y-242137800D01*
X67250000Y-239937800D01*
X67750000Y-239937800D01*
X67750000Y-242137800D01*
X67947828Y-242137800D01*
X67947844Y-242137799D01*
X68007372Y-242131398D01*
X68007380Y-242131396D01*
X68085542Y-242102243D01*
X68155234Y-242097258D01*
X68216557Y-242130742D01*
X68231980Y-242149534D01*
X68304024Y-242257357D01*
X68450342Y-242403675D01*
X68450345Y-242403677D01*
X68622402Y-242518641D01*
X68813580Y-242597830D01*
X69016530Y-242638199D01*
X69016534Y-242638200D01*
X69016535Y-242638200D01*
X69223466Y-242638200D01*
X69223467Y-242638199D01*
X69426420Y-242597830D01*
X69617598Y-242518641D01*
X69789655Y-242403677D01*
X69935977Y-242257355D01*
X70050941Y-242085298D01*
X70130130Y-241894120D01*
X70170500Y-241691165D01*
X70170500Y-240884235D01*
X70130130Y-240681280D01*
X70050941Y-240490102D01*
X69935977Y-240318045D01*
X69935975Y-240318042D01*
X69789657Y-240171724D01*
X69700543Y-240112181D01*
X69617598Y-240056759D01*
X69552168Y-240029657D01*
X69426420Y-239977570D01*
X69426412Y-239977568D01*
X69223469Y-239937200D01*
X69223465Y-239937200D01*
X69016535Y-239937200D01*
X69016530Y-239937200D01*
X68813587Y-239977568D01*
X68813579Y-239977570D01*
X68622400Y-240056759D01*
X68464779Y-240162078D01*
X68398102Y-240182956D01*
X68330722Y-240164471D01*
X68296623Y-240133287D01*
X68257190Y-240080612D01*
X68257187Y-240080609D01*
X68142093Y-239994449D01*
X68142086Y-239994445D01*
X68007379Y-239944203D01*
X68007372Y-239944201D01*
X67947844Y-239937800D01*
X67750000Y-239937800D01*
X67250000Y-239937800D01*
X67052155Y-239937800D01*
X66992627Y-239944201D01*
X66992617Y-239944203D01*
X66919096Y-239971625D01*
X66849405Y-239976609D01*
X66832431Y-239971625D01*
X66757582Y-239943708D01*
X66757583Y-239943708D01*
X66697983Y-239937301D01*
X66697981Y-239937300D01*
X66697973Y-239937300D01*
X66697965Y-239937300D01*
X66074600Y-239937300D01*
X66007561Y-239917615D01*
X65961806Y-239864811D01*
X65950600Y-239813300D01*
X65950600Y-238236028D01*
X65925602Y-238110361D01*
X65925601Y-238110360D01*
X65925601Y-238110356D01*
X65876565Y-237991973D01*
X65861712Y-237969744D01*
X65861712Y-237969743D01*
X65805377Y-237885431D01*
X65805371Y-237885424D01*
X65711818Y-237791871D01*
X65678333Y-237730548D01*
X65677743Y-237727675D01*
X65675499Y-237716040D01*
X65675499Y-237702128D01*
X65669091Y-237642517D01*
X65652992Y-237599353D01*
X65651034Y-237589202D01*
X65652364Y-237575247D01*
X65649502Y-237552448D01*
X65649999Y-237547822D01*
X65650000Y-237547819D01*
X65650000Y-237250000D01*
X65234167Y-237250000D01*
X65226188Y-237249572D01*
X65226183Y-237249678D01*
X65222879Y-237249500D01*
X65222873Y-237249500D01*
X65222866Y-237249500D01*
X64777129Y-237249500D01*
X64773805Y-237249679D01*
X64773799Y-237249573D01*
X64765837Y-237250000D01*
X64584167Y-237250000D01*
X64576188Y-237249572D01*
X64576183Y-237249678D01*
X64572879Y-237249500D01*
X64572873Y-237249500D01*
X64572866Y-237249500D01*
X64127130Y-237249500D01*
X64123805Y-237249679D01*
X64123799Y-237249573D01*
X64115837Y-237250000D01*
X63934167Y-237250000D01*
X63926188Y-237249572D01*
X63926183Y-237249678D01*
X63922879Y-237249500D01*
X63922873Y-237249500D01*
X63922866Y-237249500D01*
X63477129Y-237249500D01*
X63473805Y-237249679D01*
X63473799Y-237249573D01*
X63465837Y-237250000D01*
X63050000Y-237250000D01*
X63050000Y-237547844D01*
X63050498Y-237552470D01*
X63043391Y-237609049D01*
X63030910Y-237642513D01*
X63030908Y-237642520D01*
X63024501Y-237702117D01*
X63024500Y-237702136D01*
X63024500Y-238297870D01*
X63024501Y-238297876D01*
X63030908Y-238357483D01*
X63081202Y-238492328D01*
X63081206Y-238492335D01*
X63167452Y-238607544D01*
X63167455Y-238607547D01*
X63282664Y-238693793D01*
X63282671Y-238693797D01*
X63327618Y-238710561D01*
X63417517Y-238744091D01*
X63477127Y-238750500D01*
X63818059Y-238750499D01*
X63885098Y-238770183D01*
X63930853Y-238822987D01*
X63940797Y-238892146D01*
X63911772Y-238955701D01*
X63905742Y-238962179D01*
X63878210Y-238989711D01*
X63790609Y-239120814D01*
X63790602Y-239120827D01*
X63730264Y-239266498D01*
X63730261Y-239266508D01*
X63708412Y-239376348D01*
X63676026Y-239438259D01*
X63615310Y-239472833D01*
X63545541Y-239469092D01*
X63517906Y-239455259D01*
X63470427Y-239423535D01*
X63470428Y-239423535D01*
X63470426Y-239423534D01*
X63352044Y-239374499D01*
X63352038Y-239374497D01*
X63226371Y-239349500D01*
X63226369Y-239349500D01*
X62504819Y-239349500D01*
X62437780Y-239329815D01*
X62392025Y-239277011D01*
X62382081Y-239207853D01*
X62398703Y-239161349D01*
X62418018Y-239129397D01*
X62418019Y-239129396D01*
X62468590Y-238967106D01*
X62475000Y-238896572D01*
X62475000Y-238890000D01*
X61624000Y-238890000D01*
X61556961Y-238870315D01*
X61511206Y-238817511D01*
X61500000Y-238766000D01*
X61500000Y-238514000D01*
X61519685Y-238446961D01*
X61572489Y-238401206D01*
X61624000Y-238390000D01*
X62474999Y-238390000D01*
X62474999Y-238383417D01*
X62468591Y-238312897D01*
X62468590Y-238312892D01*
X62418018Y-238150603D01*
X62330072Y-238005122D01*
X62232984Y-237908034D01*
X62199499Y-237846711D01*
X62204483Y-237777019D01*
X62232983Y-237732673D01*
X62330472Y-237635185D01*
X62418478Y-237489606D01*
X62469086Y-237327196D01*
X62475500Y-237256616D01*
X62475500Y-236774500D01*
X62495185Y-236707461D01*
X62547989Y-236661706D01*
X62599500Y-236650500D01*
X62926000Y-236650500D01*
X62993039Y-236670185D01*
X63038794Y-236722989D01*
X63043188Y-236743188D01*
X63050000Y-236750000D01*
X63465833Y-236750000D01*
X63473811Y-236750427D01*
X63473817Y-236750322D01*
X63477102Y-236750497D01*
X63477127Y-236750500D01*
X63922872Y-236750499D01*
X63922873Y-236750498D01*
X63926195Y-236750321D01*
X63926200Y-236750426D01*
X63934163Y-236750000D01*
X64115834Y-236750000D01*
X64123813Y-236750427D01*
X64123819Y-236750322D01*
X64127100Y-236750497D01*
X64127127Y-236750500D01*
X64572872Y-236750499D01*
X64577384Y-236750013D01*
X64583899Y-236750000D01*
X64583940Y-236750011D01*
X64584163Y-236750000D01*
X64765833Y-236750000D01*
X64773811Y-236750427D01*
X64773817Y-236750322D01*
X64777102Y-236750497D01*
X64777127Y-236750500D01*
X65222872Y-236750499D01*
X65222873Y-236750498D01*
X65226195Y-236750321D01*
X65226200Y-236750426D01*
X65234163Y-236750000D01*
X65650000Y-236750000D01*
X65650000Y-236452180D01*
X65649999Y-236452170D01*
X65649502Y-236447547D01*
X65651034Y-236410796D01*
X65652991Y-236400648D01*
X65669091Y-236357483D01*
X65675500Y-236297873D01*
X65675499Y-236283953D01*
X65677743Y-236272323D01*
X65688539Y-236251387D01*
X65695171Y-236228788D01*
X65709127Y-236211467D01*
X65709768Y-236210225D01*
X65710441Y-236209836D01*
X65711822Y-236208123D01*
X65733132Y-236186815D01*
X65794457Y-236153333D01*
X65820809Y-236150500D01*
X65995065Y-236150500D01*
X66062104Y-236170185D01*
X66063909Y-236171366D01*
X66120821Y-236209394D01*
X66120823Y-236209395D01*
X66120827Y-236209397D01*
X66265011Y-236269119D01*
X66266503Y-236269737D01*
X66404875Y-236297261D01*
X66421153Y-236300499D01*
X66421156Y-236300500D01*
X66421158Y-236300500D01*
X66578844Y-236300500D01*
X66578845Y-236300499D01*
X66733497Y-236269737D01*
X66846166Y-236223067D01*
X66879172Y-236209397D01*
X66879172Y-236209396D01*
X66879179Y-236209394D01*
X67010289Y-236121789D01*
X67121789Y-236010289D01*
X67209394Y-235879179D01*
X67211550Y-235873971D01*
X67255388Y-235819569D01*
X67321681Y-235797500D01*
X67389381Y-235814776D01*
G37*
%TD.AperFunction*%
%TA.AperFunction,Conductor*%
G36*
X73007226Y-243095524D02*
G01*
X73019810Y-243094985D01*
X73039674Y-243106581D01*
X73061444Y-243113999D01*
X73070719Y-243124703D01*
X73080151Y-243130209D01*
X73100486Y-243159056D01*
X73104951Y-243167820D01*
X73229890Y-243339786D01*
X73380213Y-243490109D01*
X73552182Y-243615050D01*
X73560946Y-243619516D01*
X73611742Y-243667491D01*
X73628536Y-243735312D01*
X73605998Y-243801447D01*
X73560946Y-243840484D01*
X73552182Y-243844949D01*
X73380213Y-243969890D01*
X73229890Y-244120213D01*
X73104949Y-244292182D01*
X73100484Y-244300946D01*
X73052509Y-244351742D01*
X72984688Y-244368536D01*
X72918553Y-244345998D01*
X72879516Y-244300946D01*
X72875050Y-244292182D01*
X72750109Y-244120213D01*
X72599786Y-243969890D01*
X72427820Y-243844951D01*
X72427115Y-243844591D01*
X72419054Y-243840485D01*
X72368259Y-243792512D01*
X72351463Y-243724692D01*
X72373999Y-243658556D01*
X72419054Y-243619515D01*
X72427816Y-243615051D01*
X72469592Y-243584699D01*
X72599786Y-243490109D01*
X72599788Y-243490106D01*
X72599792Y-243490104D01*
X72750104Y-243339792D01*
X72750106Y-243339788D01*
X72750109Y-243339786D01*
X72875048Y-243167820D01*
X72875047Y-243167820D01*
X72875051Y-243167816D01*
X72879514Y-243159054D01*
X72888160Y-243149900D01*
X72892897Y-243138232D01*
X72911696Y-243124979D01*
X72927488Y-243108259D01*
X72939710Y-243105231D01*
X72950004Y-243097976D01*
X72972985Y-243096991D01*
X72995308Y-243091463D01*
X73007226Y-243095524D01*
G37*
%TD.AperFunction*%
%TA.AperFunction,Conductor*%
G36*
X78141444Y-243113999D02*
G01*
X78180486Y-243159056D01*
X78184951Y-243167820D01*
X78309890Y-243339786D01*
X78460213Y-243490109D01*
X78632182Y-243615050D01*
X78640946Y-243619516D01*
X78691742Y-243667491D01*
X78708536Y-243735312D01*
X78685998Y-243801447D01*
X78640946Y-243840484D01*
X78632182Y-243844949D01*
X78460213Y-243969890D01*
X78309890Y-244120213D01*
X78184949Y-244292182D01*
X78180484Y-244300946D01*
X78132509Y-244351742D01*
X78064688Y-244368536D01*
X77998553Y-244345998D01*
X77959516Y-244300946D01*
X77955050Y-244292182D01*
X77830109Y-244120213D01*
X77679786Y-243969890D01*
X77507820Y-243844951D01*
X77507115Y-243844591D01*
X77499054Y-243840485D01*
X77448259Y-243792512D01*
X77431463Y-243724692D01*
X77453999Y-243658556D01*
X77499054Y-243619515D01*
X77507816Y-243615051D01*
X77549592Y-243584699D01*
X77679786Y-243490109D01*
X77679788Y-243490106D01*
X77679792Y-243490104D01*
X77830104Y-243339792D01*
X77830106Y-243339788D01*
X77830109Y-243339786D01*
X77955048Y-243167820D01*
X77955047Y-243167820D01*
X77955051Y-243167816D01*
X77959514Y-243159054D01*
X78007488Y-243108259D01*
X78075308Y-243091463D01*
X78141444Y-243113999D01*
G37*
%TD.AperFunction*%
%TA.AperFunction,Conductor*%
G36*
X80681719Y-243113445D02*
G01*
X80720763Y-243158500D01*
X80725377Y-243167555D01*
X80850272Y-243339459D01*
X80850276Y-243339464D01*
X81000535Y-243489723D01*
X81000540Y-243489727D01*
X81172444Y-243614622D01*
X81181495Y-243619234D01*
X81232292Y-243667208D01*
X81249087Y-243735029D01*
X81226550Y-243801164D01*
X81181499Y-243840202D01*
X81172182Y-243844949D01*
X81000213Y-243969890D01*
X80849890Y-244120213D01*
X80724949Y-244292182D01*
X80720484Y-244300946D01*
X80672509Y-244351742D01*
X80604688Y-244368536D01*
X80538553Y-244345998D01*
X80499516Y-244300946D01*
X80495050Y-244292182D01*
X80370109Y-244120213D01*
X80219786Y-243969890D01*
X80047820Y-243844951D01*
X80047115Y-243844591D01*
X80039054Y-243840485D01*
X79988259Y-243792512D01*
X79971463Y-243724692D01*
X79993999Y-243658556D01*
X80039054Y-243619515D01*
X80047816Y-243615051D01*
X80089592Y-243584699D01*
X80219786Y-243490109D01*
X80219788Y-243490106D01*
X80219792Y-243490104D01*
X80370104Y-243339792D01*
X80370106Y-243339788D01*
X80370109Y-243339786D01*
X80495048Y-243167820D01*
X80495051Y-243167816D01*
X80499793Y-243158508D01*
X80547763Y-243107711D01*
X80615583Y-243090911D01*
X80681719Y-243113445D01*
G37*
%TD.AperFunction*%
%TA.AperFunction,Conductor*%
G36*
X83221161Y-243113447D02*
G01*
X83260204Y-243158504D01*
X83264949Y-243167817D01*
X83389890Y-243339786D01*
X83540213Y-243490109D01*
X83712182Y-243615050D01*
X83720946Y-243619516D01*
X83771742Y-243667491D01*
X83788536Y-243735312D01*
X83765998Y-243801447D01*
X83720946Y-243840484D01*
X83712182Y-243844949D01*
X83540213Y-243969890D01*
X83389890Y-244120213D01*
X83264949Y-244292182D01*
X83260484Y-244300946D01*
X83212509Y-244351742D01*
X83144688Y-244368536D01*
X83078553Y-244345998D01*
X83039516Y-244300946D01*
X83035050Y-244292182D01*
X82910109Y-244120213D01*
X82759786Y-243969890D01*
X82587817Y-243844949D01*
X82578504Y-243840204D01*
X82527707Y-243792230D01*
X82510912Y-243724409D01*
X82533449Y-243658274D01*
X82578507Y-243619232D01*
X82587558Y-243614620D01*
X82759459Y-243489727D01*
X82759464Y-243489723D01*
X82909723Y-243339464D01*
X82909727Y-243339459D01*
X83034620Y-243167558D01*
X83039232Y-243158507D01*
X83087205Y-243107709D01*
X83155025Y-243090912D01*
X83221161Y-243113447D01*
G37*
%TD.AperFunction*%
%TA.AperFunction,Conductor*%
G36*
X88301161Y-243113447D02*
G01*
X88340204Y-243158504D01*
X88344949Y-243167817D01*
X88469890Y-243339786D01*
X88620213Y-243490109D01*
X88792182Y-243615050D01*
X88800946Y-243619516D01*
X88851742Y-243667491D01*
X88868536Y-243735312D01*
X88845998Y-243801447D01*
X88800946Y-243840484D01*
X88792182Y-243844949D01*
X88620213Y-243969890D01*
X88469890Y-244120213D01*
X88344949Y-244292182D01*
X88340484Y-244300946D01*
X88292509Y-244351742D01*
X88224688Y-244368536D01*
X88158553Y-244345998D01*
X88119516Y-244300946D01*
X88115050Y-244292182D01*
X87990109Y-244120213D01*
X87839786Y-243969890D01*
X87667817Y-243844949D01*
X87658504Y-243840204D01*
X87607707Y-243792230D01*
X87590912Y-243724409D01*
X87613449Y-243658274D01*
X87658507Y-243619232D01*
X87667558Y-243614620D01*
X87839459Y-243489727D01*
X87839464Y-243489723D01*
X87989723Y-243339464D01*
X87989727Y-243339459D01*
X88114620Y-243167558D01*
X88119232Y-243158507D01*
X88167205Y-243107709D01*
X88235025Y-243090912D01*
X88301161Y-243113447D01*
G37*
%TD.AperFunction*%
%TA.AperFunction,Conductor*%
G36*
X104656668Y-215759833D02*
G01*
X104661147Y-215759190D01*
X104678095Y-215762852D01*
X104729002Y-215777642D01*
X104729005Y-215777642D01*
X104729007Y-215777643D01*
X104765310Y-215780500D01*
X104874600Y-215780500D01*
X104941639Y-215800185D01*
X104987394Y-215852989D01*
X104998600Y-215904500D01*
X104998600Y-218213169D01*
X105021854Y-218330072D01*
X105021933Y-218330465D01*
X105021934Y-218330476D01*
X105021935Y-218330476D01*
X105023598Y-218338842D01*
X105023600Y-218338847D01*
X105072633Y-218457225D01*
X105143826Y-218563773D01*
X105143827Y-218563774D01*
X105682984Y-219102930D01*
X105716469Y-219164253D01*
X105716920Y-219166420D01*
X105730261Y-219233489D01*
X105730264Y-219233501D01*
X105790602Y-219379172D01*
X105790609Y-219379185D01*
X105878210Y-219510288D01*
X105878213Y-219510292D01*
X105989707Y-219621786D01*
X105989711Y-219621789D01*
X106120814Y-219709390D01*
X106120827Y-219709397D01*
X106239205Y-219758430D01*
X106266503Y-219769737D01*
X106360645Y-219788463D01*
X106400691Y-219796429D01*
X106462602Y-219828814D01*
X106497176Y-219889529D01*
X106500500Y-219918046D01*
X106500500Y-220215071D01*
X106519434Y-220310254D01*
X106519434Y-220310255D01*
X106525497Y-220340737D01*
X106525498Y-220340741D01*
X106525499Y-220340744D01*
X106574535Y-220459127D01*
X106605371Y-220505277D01*
X106645726Y-220565673D01*
X106682983Y-220602929D01*
X106716469Y-220664251D01*
X106716920Y-220666420D01*
X106730261Y-220733489D01*
X106730264Y-220733501D01*
X106790602Y-220879172D01*
X106790609Y-220879185D01*
X106878210Y-221010288D01*
X106878213Y-221010292D01*
X106989707Y-221121786D01*
X106989711Y-221121789D01*
X107120814Y-221209390D01*
X107120827Y-221209397D01*
X107266498Y-221269735D01*
X107266503Y-221269737D01*
X107421153Y-221300499D01*
X107421156Y-221300500D01*
X107421158Y-221300500D01*
X107578844Y-221300500D01*
X107578845Y-221300499D01*
X107733497Y-221269737D01*
X107879179Y-221209394D01*
X108010289Y-221121789D01*
X108121789Y-221010289D01*
X108209394Y-220879179D01*
X108269737Y-220733497D01*
X108300500Y-220578842D01*
X108300500Y-220421158D01*
X108300500Y-220421155D01*
X108300499Y-220421153D01*
X108284505Y-220340746D01*
X108269737Y-220266503D01*
X108251296Y-220221982D01*
X108209397Y-220120827D01*
X108209390Y-220120814D01*
X108121789Y-219989711D01*
X108121786Y-219989707D01*
X108010292Y-219878213D01*
X108010288Y-219878210D01*
X107879185Y-219790609D01*
X107879172Y-219790602D01*
X107878034Y-219790131D01*
X107877530Y-219789724D01*
X107873809Y-219787736D01*
X107874186Y-219787029D01*
X107823636Y-219746283D01*
X107801578Y-219679987D01*
X107801500Y-219675575D01*
X107801500Y-216609333D01*
X107802133Y-216607176D01*
X107801576Y-216604999D01*
X107811928Y-216573817D01*
X107821185Y-216542294D01*
X107822883Y-216540822D01*
X107823592Y-216538688D01*
X107849169Y-216518045D01*
X107873989Y-216496539D01*
X107876213Y-216496219D01*
X107877963Y-216494807D01*
X107910630Y-216491270D01*
X107943147Y-216486595D01*
X107945891Y-216487453D01*
X107947426Y-216487287D01*
X107954553Y-216490161D01*
X107980923Y-216498408D01*
X107987898Y-216501893D01*
X108024974Y-216526666D01*
X108094048Y-216555277D01*
X108098116Y-216556962D01*
X108138807Y-216573817D01*
X108143356Y-216575701D01*
X108143360Y-216575701D01*
X108143361Y-216575702D01*
X108269028Y-216600700D01*
X108269031Y-216600700D01*
X112414171Y-216600700D01*
X112508278Y-216581980D01*
X112539844Y-216575701D01*
X112658227Y-216526665D01*
X112764769Y-216455476D01*
X112855376Y-216364869D01*
X112855379Y-216364863D01*
X112859236Y-216360165D01*
X112860328Y-216361061D01*
X112871040Y-216352109D01*
X112883667Y-216335242D01*
X112897310Y-216330153D01*
X112908484Y-216320815D01*
X112929388Y-216318188D01*
X112949131Y-216310825D01*
X112963359Y-216313920D01*
X112977808Y-216312105D01*
X112996815Y-216321198D01*
X113017404Y-216325677D01*
X113037280Y-216340556D01*
X113040837Y-216342258D01*
X113045658Y-216346828D01*
X113165281Y-216466451D01*
X113198766Y-216527774D01*
X113201600Y-216554132D01*
X113201600Y-240647091D01*
X113181915Y-240714130D01*
X113165281Y-240734772D01*
X111382180Y-242517873D01*
X111320857Y-242551358D01*
X111251165Y-242546374D01*
X111195232Y-242504502D01*
X111170815Y-242439038D01*
X111170499Y-242430192D01*
X111170499Y-241562129D01*
X111170498Y-241562123D01*
X111164091Y-241502516D01*
X111113797Y-241367671D01*
X111113793Y-241367664D01*
X111027547Y-241252455D01*
X111027544Y-241252452D01*
X110912335Y-241166206D01*
X110912328Y-241166202D01*
X110777482Y-241115908D01*
X110777483Y-241115908D01*
X110717883Y-241109501D01*
X110717881Y-241109500D01*
X110717873Y-241109500D01*
X110717865Y-241109500D01*
X109274500Y-241109500D01*
X109207461Y-241089815D01*
X109161706Y-241037011D01*
X109150500Y-240985500D01*
X109150500Y-239620619D01*
X109165942Y-239566179D01*
X109163948Y-239565250D01*
X109167000Y-239558702D01*
X109167000Y-239558701D01*
X109167003Y-239558697D01*
X109220349Y-239397708D01*
X109230500Y-239298345D01*
X109230499Y-238701656D01*
X109220885Y-238607544D01*
X109220349Y-238602292D01*
X109220348Y-238602289D01*
X109212901Y-238579815D01*
X109167003Y-238441303D01*
X109166999Y-238441297D01*
X109166998Y-238441294D01*
X109118662Y-238362930D01*
X109113966Y-238346372D01*
X109105223Y-238332768D01*
X109100200Y-238297833D01*
X109100200Y-238275574D01*
X109119885Y-238208535D01*
X109124934Y-238201263D01*
X109204643Y-238094785D01*
X109204642Y-238094785D01*
X109204646Y-238094781D01*
X109254941Y-237959933D01*
X109261350Y-237900323D01*
X109261349Y-236699678D01*
X109254941Y-236640067D01*
X109242811Y-236607546D01*
X109204647Y-236505221D01*
X109204643Y-236505214D01*
X109118397Y-236390005D01*
X109118394Y-236390002D01*
X109003185Y-236303756D01*
X109003178Y-236303752D01*
X108868332Y-236253458D01*
X108868333Y-236253458D01*
X108808733Y-236247051D01*
X108808731Y-236247050D01*
X108808723Y-236247050D01*
X108808715Y-236247050D01*
X108738359Y-236247050D01*
X108671320Y-236227365D01*
X108625565Y-236174561D01*
X108615621Y-236105403D01*
X108644646Y-236041847D01*
X108650678Y-236035369D01*
X108959286Y-235726761D01*
X108960387Y-235727862D01*
X108996316Y-235702194D01*
X108995391Y-235700500D01*
X109003177Y-235696248D01*
X109003178Y-235696246D01*
X109003181Y-235696246D01*
X109118396Y-235609996D01*
X109204646Y-235494781D01*
X109254941Y-235359933D01*
X109261350Y-235300323D01*
X109261349Y-234099678D01*
X109254941Y-234040067D01*
X109254705Y-234039435D01*
X109204647Y-233905221D01*
X109204643Y-233905214D01*
X109124934Y-233798737D01*
X109117195Y-233777991D01*
X109105223Y-233759361D01*
X109102071Y-233737443D01*
X109100516Y-233733273D01*
X109100200Y-233724426D01*
X109100200Y-233702167D01*
X109118662Y-233637069D01*
X109148931Y-233587996D01*
X109167003Y-233558697D01*
X109220349Y-233397708D01*
X109230500Y-233298345D01*
X109230499Y-232701656D01*
X109220349Y-232602292D01*
X109167003Y-232441303D01*
X109166999Y-232441297D01*
X109166998Y-232441294D01*
X109077970Y-232296959D01*
X109077967Y-232296955D01*
X108958044Y-232177032D01*
X108958040Y-232177029D01*
X108813705Y-232088001D01*
X108813699Y-232087998D01*
X108813697Y-232087997D01*
X108813694Y-232087996D01*
X108652709Y-232034651D01*
X108553346Y-232024500D01*
X108006662Y-232024500D01*
X108006644Y-232024501D01*
X107907292Y-232034650D01*
X107907289Y-232034651D01*
X107746305Y-232087996D01*
X107746294Y-232088001D01*
X107601959Y-232177029D01*
X107601954Y-232177033D01*
X107587325Y-232191662D01*
X107526001Y-232225146D01*
X107456309Y-232220160D01*
X107411965Y-232191660D01*
X107397732Y-232177427D01*
X107397728Y-232177424D01*
X107253492Y-232088457D01*
X107253481Y-232088452D01*
X107092606Y-232035144D01*
X106993322Y-232025000D01*
X106970000Y-232025000D01*
X106970000Y-232876000D01*
X106950315Y-232943039D01*
X106897511Y-232988794D01*
X106846000Y-233000000D01*
X106720000Y-233000000D01*
X106720000Y-233126000D01*
X106700315Y-233193039D01*
X106647511Y-233238794D01*
X106596000Y-233250000D01*
X105770001Y-233250000D01*
X105770001Y-233298322D01*
X105780144Y-233397607D01*
X105833452Y-233558481D01*
X105833457Y-233558492D01*
X105889187Y-233648843D01*
X105907628Y-233716235D01*
X105886706Y-233782899D01*
X105882916Y-233788251D01*
X105795354Y-233905218D01*
X105795352Y-233905221D01*
X105766156Y-233983501D01*
X105724285Y-234039435D01*
X105674167Y-234061785D01*
X105610260Y-234074497D01*
X105610255Y-234074499D01*
X105491874Y-234123534D01*
X105385326Y-234194726D01*
X105087680Y-234492372D01*
X105026357Y-234525857D01*
X104956665Y-234520873D01*
X104912318Y-234492372D01*
X104555819Y-234135873D01*
X104522334Y-234074550D01*
X104519500Y-234048192D01*
X104519500Y-232701677D01*
X105770000Y-232701677D01*
X105770000Y-232750000D01*
X106470000Y-232750000D01*
X106470000Y-232024999D01*
X106446693Y-232025000D01*
X106446674Y-232025001D01*
X106347392Y-232035144D01*
X106186518Y-232088452D01*
X106186507Y-232088457D01*
X106042271Y-232177424D01*
X106042267Y-232177427D01*
X105922427Y-232297267D01*
X105922424Y-232297271D01*
X105833457Y-232441507D01*
X105833452Y-232441518D01*
X105780144Y-232602393D01*
X105770000Y-232701677D01*
X104519500Y-232701677D01*
X104519500Y-215881928D01*
X104526896Y-215856738D01*
X104530559Y-215830739D01*
X104536584Y-215823744D01*
X104539185Y-215814889D01*
X104559023Y-215797699D01*
X104576163Y-215777804D01*
X104585014Y-215775177D01*
X104591989Y-215769134D01*
X104617975Y-215765397D01*
X104643146Y-215757929D01*
X104656668Y-215759833D01*
G37*
%TD.AperFunction*%
%TA.AperFunction,Conductor*%
G36*
X86370833Y-239806626D02*
G01*
X86415181Y-239835127D01*
X87573302Y-240993248D01*
X87606787Y-241054571D01*
X87601803Y-241124263D01*
X87559931Y-241180196D01*
X87494467Y-241204613D01*
X87447304Y-241198860D01*
X87276124Y-241143241D01*
X87210000Y-241132768D01*
X87210000Y-242026988D01*
X87152993Y-241994075D01*
X87025826Y-241960000D01*
X86894174Y-241960000D01*
X86767007Y-241994075D01*
X86710000Y-242026988D01*
X86710000Y-241132768D01*
X86709999Y-241132768D01*
X86643875Y-241143241D01*
X86441784Y-241208903D01*
X86252446Y-241305376D01*
X86124603Y-241398259D01*
X86058796Y-241421738D01*
X85990742Y-241405912D01*
X85964037Y-241385621D01*
X85376388Y-240797972D01*
X85342903Y-240736649D01*
X85347887Y-240666957D01*
X85389759Y-240611024D01*
X85416613Y-240595731D01*
X85463127Y-240576465D01*
X85497901Y-240553230D01*
X85569669Y-240505277D01*
X86239819Y-239835127D01*
X86301142Y-239801642D01*
X86370833Y-239806626D01*
G37*
%TD.AperFunction*%
%TA.AperFunction,Conductor*%
G36*
X65888997Y-216191385D02*
G01*
X65934752Y-216244189D01*
X65944696Y-216313347D01*
X65926270Y-216361434D01*
X65926404Y-216361506D01*
X65925834Y-216362571D01*
X65925061Y-216364588D01*
X65924871Y-216364874D01*
X65923533Y-216366876D01*
X65874499Y-216485255D01*
X65874497Y-216485261D01*
X65849500Y-216610928D01*
X65849500Y-221495064D01*
X65829815Y-221562103D01*
X65828603Y-221563954D01*
X65790608Y-221620817D01*
X65790602Y-221620828D01*
X65730264Y-221766498D01*
X65730261Y-221766510D01*
X65699500Y-221921153D01*
X65699500Y-222078846D01*
X65730261Y-222233489D01*
X65730264Y-222233501D01*
X65790602Y-222379172D01*
X65790609Y-222379185D01*
X65878210Y-222510288D01*
X65878213Y-222510292D01*
X65989707Y-222621786D01*
X65989711Y-222621789D01*
X66120814Y-222709390D01*
X66120827Y-222709397D01*
X66266498Y-222769735D01*
X66266503Y-222769737D01*
X66405669Y-222797419D01*
X66421153Y-222800499D01*
X66421156Y-222800500D01*
X66421158Y-222800500D01*
X66578844Y-222800500D01*
X66578845Y-222800499D01*
X66733497Y-222769737D01*
X66879179Y-222709394D01*
X67010289Y-222621789D01*
X67121789Y-222510289D01*
X67209394Y-222379179D01*
X67269737Y-222233497D01*
X67300500Y-222078842D01*
X67300500Y-221921158D01*
X67300500Y-221921155D01*
X67300499Y-221921153D01*
X67295695Y-221897002D01*
X67269737Y-221766503D01*
X67263245Y-221750830D01*
X67209397Y-221620828D01*
X67209396Y-221620827D01*
X67209394Y-221620821D01*
X67171396Y-221563953D01*
X67150520Y-221497276D01*
X67150500Y-221495064D01*
X67150500Y-217274500D01*
X67170185Y-217207461D01*
X67222989Y-217161706D01*
X67274500Y-217150500D01*
X67876500Y-217150500D01*
X67943539Y-217170185D01*
X67989294Y-217222989D01*
X68000500Y-217274500D01*
X68000500Y-233215069D01*
X68000500Y-233215071D01*
X68000499Y-233215071D01*
X68024387Y-233335155D01*
X68025499Y-233340744D01*
X68074532Y-233459123D01*
X68145726Y-233565673D01*
X68145727Y-233565674D01*
X73573181Y-238993127D01*
X73606666Y-239054450D01*
X73609500Y-239080808D01*
X73609500Y-241200382D01*
X73589815Y-241267421D01*
X73555408Y-241301099D01*
X73556125Y-241302085D01*
X73380213Y-241429890D01*
X73229890Y-241580213D01*
X73104949Y-241752182D01*
X73100484Y-241760946D01*
X73052509Y-241811742D01*
X72984688Y-241828536D01*
X72918553Y-241805998D01*
X72879516Y-241760946D01*
X72875050Y-241752182D01*
X72750109Y-241580213D01*
X72599786Y-241429890D01*
X72423875Y-241302085D01*
X72424851Y-241300740D01*
X72382834Y-241254295D01*
X72370500Y-241200382D01*
X72370500Y-239155928D01*
X72345502Y-239030261D01*
X72345501Y-239030260D01*
X72345501Y-239030256D01*
X72296465Y-238911873D01*
X72269035Y-238870821D01*
X72225277Y-238805331D01*
X72225275Y-238805329D01*
X72225273Y-238805326D01*
X62485319Y-229065372D01*
X62451834Y-229004049D01*
X62449000Y-228977691D01*
X62449000Y-219706550D01*
X62468685Y-219639511D01*
X62521489Y-219593756D01*
X62573000Y-219582550D01*
X62750000Y-219582550D01*
X63250000Y-219582550D01*
X63898328Y-219582550D01*
X63898344Y-219582549D01*
X63957872Y-219576148D01*
X63957879Y-219576146D01*
X64092586Y-219525904D01*
X64092593Y-219525900D01*
X64207687Y-219439740D01*
X64207690Y-219439737D01*
X64293850Y-219324643D01*
X64293854Y-219324636D01*
X64344096Y-219189929D01*
X64344098Y-219189922D01*
X64350499Y-219130394D01*
X64350500Y-219130377D01*
X64350500Y-218728800D01*
X63250000Y-218728800D01*
X63250000Y-219582550D01*
X62750000Y-219582550D01*
X62750000Y-218228800D01*
X63250000Y-218228800D01*
X64350500Y-218228800D01*
X64350500Y-217827222D01*
X64350499Y-217827205D01*
X64344098Y-217767677D01*
X64344096Y-217767670D01*
X64293854Y-217632963D01*
X64293850Y-217632956D01*
X64207690Y-217517862D01*
X64207687Y-217517859D01*
X64092593Y-217431699D01*
X64092586Y-217431695D01*
X63957879Y-217381453D01*
X63957872Y-217381451D01*
X63898344Y-217375050D01*
X63250000Y-217375050D01*
X63250000Y-218228800D01*
X62750000Y-218228800D01*
X62750000Y-217375050D01*
X62573000Y-217375050D01*
X62505961Y-217355365D01*
X62460206Y-217302561D01*
X62449000Y-217251050D01*
X62449000Y-216749449D01*
X62468685Y-216682410D01*
X62521489Y-216636655D01*
X62573000Y-216625449D01*
X63898371Y-216625449D01*
X63898372Y-216625449D01*
X63957983Y-216619041D01*
X64092831Y-216568746D01*
X64208046Y-216482496D01*
X64294296Y-216367281D01*
X64337156Y-216252366D01*
X64379027Y-216196434D01*
X64444491Y-216172016D01*
X64453338Y-216171700D01*
X65821958Y-216171700D01*
X65888997Y-216191385D01*
G37*
%TD.AperFunction*%
%TA.AperFunction,Conductor*%
G36*
X106913039Y-239019685D02*
G01*
X106958794Y-239072489D01*
X106970000Y-239124000D01*
X106970000Y-239974999D01*
X106993308Y-239974999D01*
X106993322Y-239974998D01*
X107092607Y-239964855D01*
X107253481Y-239911547D01*
X107253492Y-239911542D01*
X107397729Y-239822575D01*
X107411960Y-239808343D01*
X107473282Y-239774855D01*
X107542974Y-239779836D01*
X107587327Y-239808339D01*
X107601955Y-239822967D01*
X107601959Y-239822970D01*
X107746302Y-239912003D01*
X107764501Y-239918033D01*
X107821947Y-239957804D01*
X107848772Y-240022319D01*
X107849500Y-240035740D01*
X107849500Y-241054371D01*
X107829815Y-241121410D01*
X107777011Y-241167165D01*
X107707853Y-241177109D01*
X107687182Y-241172302D01*
X107596240Y-241142753D01*
X107434957Y-241117208D01*
X107386287Y-241109500D01*
X107173713Y-241109500D01*
X107125042Y-241117208D01*
X106963760Y-241142753D01*
X106888951Y-241167060D01*
X106773376Y-241204613D01*
X106761585Y-241208444D01*
X106572179Y-241304951D01*
X106400213Y-241429890D01*
X106249890Y-241580213D01*
X106124949Y-241752182D01*
X106120484Y-241760946D01*
X106072509Y-241811742D01*
X106004688Y-241828536D01*
X105938553Y-241805998D01*
X105899516Y-241760946D01*
X105895050Y-241752182D01*
X105770109Y-241580213D01*
X105619786Y-241429890D01*
X105447820Y-241304951D01*
X105258414Y-241208444D01*
X105258413Y-241208443D01*
X105258412Y-241208443D01*
X105056243Y-241142754D01*
X105056241Y-241142753D01*
X105056240Y-241142753D01*
X104894957Y-241117208D01*
X104846287Y-241109500D01*
X104633713Y-241109500D01*
X104585042Y-241117208D01*
X104423760Y-241142753D01*
X104348951Y-241167060D01*
X104233376Y-241204613D01*
X104221585Y-241208444D01*
X104032179Y-241304951D01*
X103860213Y-241429890D01*
X103709890Y-241580213D01*
X103584949Y-241752182D01*
X103580484Y-241760946D01*
X103532509Y-241811742D01*
X103464688Y-241828536D01*
X103398553Y-241805998D01*
X103359516Y-241760946D01*
X103355050Y-241752182D01*
X103230109Y-241580213D01*
X103079786Y-241429890D01*
X102903875Y-241302085D01*
X102904851Y-241300740D01*
X102862834Y-241254295D01*
X102850500Y-241200382D01*
X102850500Y-240635928D01*
X102825502Y-240510261D01*
X102825501Y-240510260D01*
X102825501Y-240510256D01*
X102776465Y-240391873D01*
X102746503Y-240347031D01*
X102746503Y-240347030D01*
X102705279Y-240285334D01*
X102705273Y-240285326D01*
X102532128Y-240112181D01*
X102498643Y-240050858D01*
X102503627Y-239981166D01*
X102545499Y-239925233D01*
X102610963Y-239900816D01*
X102619809Y-239900500D01*
X104814071Y-239900500D01*
X104898615Y-239883682D01*
X104939744Y-239875501D01*
X105058127Y-239826465D01*
X105093787Y-239802638D01*
X105164669Y-239755277D01*
X105505276Y-239414670D01*
X105553764Y-239342100D01*
X105607375Y-239297296D01*
X105676700Y-239288589D01*
X105739728Y-239318743D01*
X105776448Y-239378186D01*
X105779625Y-239395185D01*
X105780142Y-239397603D01*
X105833452Y-239558481D01*
X105833457Y-239558492D01*
X105922424Y-239702728D01*
X105922427Y-239702732D01*
X106042267Y-239822572D01*
X106042271Y-239822575D01*
X106186507Y-239911542D01*
X106186518Y-239911547D01*
X106347393Y-239964855D01*
X106446683Y-239974999D01*
X106470000Y-239974998D01*
X106470000Y-239124000D01*
X106489685Y-239056961D01*
X106542489Y-239011206D01*
X106594000Y-239000000D01*
X106846000Y-239000000D01*
X106913039Y-239019685D01*
G37*
%TD.AperFunction*%
%TA.AperFunction,Conductor*%
G36*
X114665598Y-216571551D02*
G01*
X114721318Y-216590015D01*
X114823949Y-216600500D01*
X115951500Y-216600499D01*
X116018539Y-216620184D01*
X116064294Y-216672987D01*
X116075500Y-216724499D01*
X116075500Y-217276000D01*
X116055815Y-217343039D01*
X116003011Y-217388794D01*
X115951500Y-217400000D01*
X115750000Y-217400000D01*
X115750000Y-219519999D01*
X115951500Y-219519999D01*
X116018539Y-219539684D01*
X116064294Y-219592488D01*
X116075500Y-219643999D01*
X116075500Y-239471662D01*
X116055815Y-239538701D01*
X116039181Y-239559343D01*
X114714281Y-240884243D01*
X114652958Y-240917728D01*
X114583266Y-240912744D01*
X114527333Y-240870872D01*
X114502916Y-240805408D01*
X114502600Y-240796562D01*
X114502600Y-219608731D01*
X114522285Y-219541692D01*
X114575089Y-219495937D01*
X114644247Y-219485993D01*
X114665605Y-219491025D01*
X114721420Y-219509521D01*
X114823987Y-219519999D01*
X115249999Y-219519999D01*
X115250000Y-219519998D01*
X115250000Y-217400000D01*
X114823996Y-217400000D01*
X114823980Y-217400001D01*
X114721417Y-217410479D01*
X114665603Y-217428974D01*
X114595775Y-217431376D01*
X114535733Y-217395644D01*
X114504541Y-217333123D01*
X114502600Y-217311268D01*
X114502600Y-216689259D01*
X114522285Y-216622220D01*
X114575089Y-216576465D01*
X114644247Y-216566521D01*
X114665598Y-216571551D01*
G37*
%TD.AperFunction*%
%TA.AperFunction,Conductor*%
G36*
X98570667Y-229511745D02*
G01*
X98617357Y-229563724D01*
X98629500Y-229617241D01*
X98629500Y-231098125D01*
X98620855Y-231127565D01*
X98614332Y-231157552D01*
X98610577Y-231162567D01*
X98609815Y-231165164D01*
X98593181Y-231185806D01*
X98587327Y-231191660D01*
X98526004Y-231225145D01*
X98456312Y-231220161D01*
X98411965Y-231191660D01*
X98397732Y-231177427D01*
X98397728Y-231177424D01*
X98253492Y-231088457D01*
X98253481Y-231088452D01*
X98092606Y-231035144D01*
X97993322Y-231025000D01*
X97970000Y-231025000D01*
X97970000Y-231876000D01*
X97950315Y-231943039D01*
X97897511Y-231988794D01*
X97846000Y-232000000D01*
X97594000Y-232000000D01*
X97526961Y-231980315D01*
X97481206Y-231927511D01*
X97470000Y-231876000D01*
X97470000Y-231024999D01*
X97446693Y-231025000D01*
X97446674Y-231025001D01*
X97347392Y-231035144D01*
X97186518Y-231088452D01*
X97186507Y-231088457D01*
X97042271Y-231177424D01*
X97042267Y-231177427D01*
X96922427Y-231297267D01*
X96922424Y-231297271D01*
X96833457Y-231441507D01*
X96833452Y-231441518D01*
X96780144Y-231602393D01*
X96770000Y-231701677D01*
X96770000Y-231855080D01*
X96750315Y-231922119D01*
X96697511Y-231967874D01*
X96628353Y-231977818D01*
X96564797Y-231948793D01*
X96558319Y-231942761D01*
X96540088Y-231924530D01*
X96442358Y-231865450D01*
X96394506Y-231836522D01*
X96232096Y-231785914D01*
X96232094Y-231785913D01*
X96232092Y-231785913D01*
X96182678Y-231781423D01*
X96161516Y-231779500D01*
X95498284Y-231779500D01*
X95479045Y-231781248D01*
X95427707Y-231785913D01*
X95265293Y-231836522D01*
X95119711Y-231924530D01*
X94999430Y-232044811D01*
X94911422Y-232190393D01*
X94860813Y-232352807D01*
X94854400Y-232423386D01*
X94854400Y-232936613D01*
X94860813Y-233007192D01*
X94860813Y-233007194D01*
X94860814Y-233007196D01*
X94911422Y-233169606D01*
X94984578Y-233290621D01*
X94999430Y-233315188D01*
X95096915Y-233412673D01*
X95130400Y-233473996D01*
X95125416Y-233543688D01*
X95096915Y-233588035D01*
X94999828Y-233685121D01*
X94999827Y-233685122D01*
X94911880Y-233830604D01*
X94861309Y-233992893D01*
X94854900Y-234063427D01*
X94854900Y-234070000D01*
X95705900Y-234070000D01*
X95772939Y-234089685D01*
X95818694Y-234142489D01*
X95829900Y-234194000D01*
X95829900Y-234320000D01*
X95955900Y-234320000D01*
X96022939Y-234339685D01*
X96068694Y-234392489D01*
X96079900Y-234444000D01*
X96079900Y-235219999D01*
X96161481Y-235219999D01*
X96232002Y-235213591D01*
X96232007Y-235213590D01*
X96394296Y-235163018D01*
X96539776Y-235075072D01*
X96548077Y-235066772D01*
X96609398Y-235033285D01*
X96679090Y-235038267D01*
X96735025Y-235080136D01*
X96759445Y-235145599D01*
X96754839Y-235189038D01*
X96752403Y-235197422D01*
X96752401Y-235197432D01*
X96749500Y-235234298D01*
X96749500Y-236165701D01*
X96752401Y-236202567D01*
X96752402Y-236202573D01*
X96798254Y-236360393D01*
X96798255Y-236360396D01*
X96798256Y-236360398D01*
X96819073Y-236395597D01*
X96881917Y-236501862D01*
X96881923Y-236501870D01*
X96998129Y-236618076D01*
X96998133Y-236618079D01*
X96998135Y-236618081D01*
X97139602Y-236701744D01*
X97152716Y-236705554D01*
X97297426Y-236747597D01*
X97297429Y-236747597D01*
X97297431Y-236747598D01*
X97334306Y-236750500D01*
X97334314Y-236750500D01*
X97765686Y-236750500D01*
X97765694Y-236750500D01*
X97802569Y-236747598D01*
X97802571Y-236747597D01*
X97802573Y-236747597D01*
X97869223Y-236728233D01*
X97960398Y-236701744D01*
X97961181Y-236701281D01*
X97962369Y-236700579D01*
X97964112Y-236700136D01*
X97967557Y-236698646D01*
X97967797Y-236699201D01*
X98030093Y-236683395D01*
X98082397Y-236698753D01*
X98082644Y-236698184D01*
X98087255Y-236700179D01*
X98088612Y-236700578D01*
X98089801Y-236701281D01*
X98089806Y-236701283D01*
X98247505Y-236747099D01*
X98247511Y-236747100D01*
X98249998Y-236747295D01*
X98250000Y-236747295D01*
X98250000Y-236481814D01*
X98267267Y-236418694D01*
X98301744Y-236360398D01*
X98345615Y-236209394D01*
X98347597Y-236202573D01*
X98347598Y-236202567D01*
X98348838Y-236186815D01*
X98350500Y-236165694D01*
X98350500Y-235824000D01*
X98353050Y-235815314D01*
X98351762Y-235806353D01*
X98362740Y-235782312D01*
X98370185Y-235756961D01*
X98377025Y-235751033D01*
X98380787Y-235742797D01*
X98403021Y-235728507D01*
X98422989Y-235711206D01*
X98433503Y-235708918D01*
X98439565Y-235705023D01*
X98474500Y-235700000D01*
X98525500Y-235700000D01*
X98592539Y-235719685D01*
X98638294Y-235772489D01*
X98649500Y-235824000D01*
X98649500Y-236165701D01*
X98652401Y-236202567D01*
X98652402Y-236202573D01*
X98698254Y-236360393D01*
X98698255Y-236360396D01*
X98698256Y-236360398D01*
X98732732Y-236418694D01*
X98750000Y-236481814D01*
X98750000Y-236747295D01*
X98750001Y-236747295D01*
X98752486Y-236747100D01*
X98910197Y-236701281D01*
X98911382Y-236700581D01*
X98912436Y-236700313D01*
X98917357Y-236698184D01*
X98917700Y-236698977D01*
X98979105Y-236683395D01*
X99032289Y-236699008D01*
X99032446Y-236698647D01*
X99035371Y-236699913D01*
X99037624Y-236700574D01*
X99039602Y-236701744D01*
X99039604Y-236701744D01*
X99039605Y-236701745D01*
X99197426Y-236747597D01*
X99197429Y-236747597D01*
X99197431Y-236747598D01*
X99234306Y-236750500D01*
X99234314Y-236750500D01*
X99665686Y-236750500D01*
X99665694Y-236750500D01*
X99702569Y-236747598D01*
X99702571Y-236747597D01*
X99702573Y-236747597D01*
X99769223Y-236728233D01*
X99860398Y-236701744D01*
X100001865Y-236618081D01*
X100118081Y-236501865D01*
X100201744Y-236360398D01*
X100245615Y-236209394D01*
X100247597Y-236202573D01*
X100247598Y-236202567D01*
X100248838Y-236186815D01*
X100250500Y-236165694D01*
X100250500Y-235870707D01*
X100270185Y-235803668D01*
X100286815Y-235783030D01*
X100919824Y-235150020D01*
X100981147Y-235116536D01*
X101050839Y-235121520D01*
X101106772Y-235163392D01*
X101125211Y-235198698D01*
X101165185Y-235319331D01*
X101165187Y-235319336D01*
X101192331Y-235363344D01*
X101257287Y-235468655D01*
X101257289Y-235468657D01*
X101376451Y-235587819D01*
X101409936Y-235649142D01*
X101404952Y-235718834D01*
X101363080Y-235774767D01*
X101297616Y-235799184D01*
X101288770Y-235799500D01*
X100725347Y-235799500D01*
X100666870Y-235811131D01*
X100666869Y-235811132D01*
X100600547Y-235855447D01*
X100556232Y-235921769D01*
X100556231Y-235921770D01*
X100544600Y-235980247D01*
X100544600Y-236654191D01*
X100524915Y-236721230D01*
X100508281Y-236741872D01*
X99983153Y-237266999D01*
X99921830Y-237300484D01*
X99860877Y-237298394D01*
X99702573Y-237252402D01*
X99702567Y-237252401D01*
X99665701Y-237249500D01*
X99665694Y-237249500D01*
X99234306Y-237249500D01*
X99234298Y-237249500D01*
X99197432Y-237252401D01*
X99197426Y-237252402D01*
X99039606Y-237298254D01*
X99039603Y-237298255D01*
X98898137Y-237381917D01*
X98898129Y-237381923D01*
X98781923Y-237498129D01*
X98781916Y-237498138D01*
X98728346Y-237588721D01*
X98720045Y-237596471D01*
X98715327Y-237606803D01*
X98694967Y-237619887D01*
X98677277Y-237636405D01*
X98664582Y-237639414D01*
X98656549Y-237644577D01*
X98621614Y-237649600D01*
X98378386Y-237649600D01*
X98311347Y-237629915D01*
X98271654Y-237588721D01*
X98218083Y-237498138D01*
X98218076Y-237498129D01*
X98101870Y-237381923D01*
X98101862Y-237381917D01*
X98005419Y-237324881D01*
X97960398Y-237298256D01*
X97960397Y-237298255D01*
X97960396Y-237298255D01*
X97960393Y-237298254D01*
X97802573Y-237252402D01*
X97802567Y-237252401D01*
X97765701Y-237249500D01*
X97765694Y-237249500D01*
X97334306Y-237249500D01*
X97334298Y-237249500D01*
X97297432Y-237252401D01*
X97297426Y-237252402D01*
X97139606Y-237298254D01*
X97139603Y-237298255D01*
X96998137Y-237381917D01*
X96998129Y-237381923D01*
X96881923Y-237498129D01*
X96881917Y-237498137D01*
X96798255Y-237639603D01*
X96798254Y-237639606D01*
X96752402Y-237797426D01*
X96752401Y-237797432D01*
X96749500Y-237834298D01*
X96749500Y-238129292D01*
X96740855Y-238158732D01*
X96734332Y-238188719D01*
X96730577Y-238193734D01*
X96729815Y-238196331D01*
X96713185Y-238216968D01*
X96633908Y-238296246D01*
X96569520Y-238360634D01*
X96508197Y-238394118D01*
X96438505Y-238389134D01*
X96382572Y-238347262D01*
X96367278Y-238320404D01*
X96326468Y-238221879D01*
X96326461Y-238221866D01*
X96255277Y-238115332D01*
X96218168Y-238078223D01*
X96164669Y-238024724D01*
X96011818Y-237871873D01*
X95978333Y-237810550D01*
X95975499Y-237784192D01*
X95975499Y-237506662D01*
X95975498Y-237506644D01*
X95965349Y-237407292D01*
X95965348Y-237407289D01*
X95956941Y-237381917D01*
X95912003Y-237246303D01*
X95911999Y-237246297D01*
X95911998Y-237246294D01*
X95822970Y-237101959D01*
X95822967Y-237101955D01*
X95808339Y-237087327D01*
X95774854Y-237026004D01*
X95779838Y-236956312D01*
X95808343Y-236911960D01*
X95822575Y-236897729D01*
X95911542Y-236753492D01*
X95911547Y-236753481D01*
X95964855Y-236592606D01*
X95974999Y-236493322D01*
X95975000Y-236493309D01*
X95975000Y-236470000D01*
X94025001Y-236470000D01*
X94025001Y-236493322D01*
X94035144Y-236592607D01*
X94088452Y-236753481D01*
X94088457Y-236753492D01*
X94177424Y-236897728D01*
X94177427Y-236897732D01*
X94191660Y-236911965D01*
X94225145Y-236973288D01*
X94220161Y-237042980D01*
X94191662Y-237087325D01*
X94177033Y-237101954D01*
X94177029Y-237101959D01*
X94088001Y-237246294D01*
X94087996Y-237246305D01*
X94034651Y-237407290D01*
X94024500Y-237506647D01*
X94024500Y-238053337D01*
X94024501Y-238053355D01*
X94034650Y-238152707D01*
X94034651Y-238152710D01*
X94087996Y-238313694D01*
X94088001Y-238313705D01*
X94177029Y-238458040D01*
X94177032Y-238458044D01*
X94296955Y-238577967D01*
X94296959Y-238577970D01*
X94441294Y-238666998D01*
X94441297Y-238666999D01*
X94441303Y-238667003D01*
X94602292Y-238720349D01*
X94701655Y-238730500D01*
X94913150Y-238730499D01*
X94980189Y-238750183D01*
X95025944Y-238802987D01*
X95035888Y-238872145D01*
X95027711Y-238901951D01*
X94980264Y-239016498D01*
X94980261Y-239016510D01*
X94949500Y-239171153D01*
X94949500Y-239225500D01*
X94929815Y-239292539D01*
X94877011Y-239338294D01*
X94825500Y-239349500D01*
X93820808Y-239349500D01*
X93753769Y-239329815D01*
X93733127Y-239313181D01*
X93236819Y-238816873D01*
X93203334Y-238755550D01*
X93200500Y-238729192D01*
X93200500Y-235946677D01*
X94025000Y-235946677D01*
X94025000Y-235970000D01*
X94750000Y-235970000D01*
X94750000Y-235270000D01*
X94749999Y-235269999D01*
X94701693Y-235270000D01*
X94701675Y-235270001D01*
X94602392Y-235280144D01*
X94441518Y-235333452D01*
X94441507Y-235333457D01*
X94297271Y-235422424D01*
X94297267Y-235422427D01*
X94177427Y-235542267D01*
X94177424Y-235542271D01*
X94088457Y-235686507D01*
X94088452Y-235686518D01*
X94035144Y-235847393D01*
X94025000Y-235946677D01*
X93200500Y-235946677D01*
X93200500Y-234576582D01*
X94854901Y-234576582D01*
X94861308Y-234647102D01*
X94861309Y-234647107D01*
X94911881Y-234809396D01*
X94999827Y-234954877D01*
X95120027Y-235075077D01*
X95190149Y-235117466D01*
X95237337Y-235168993D01*
X95250000Y-235223583D01*
X95250000Y-235970000D01*
X95974999Y-235970000D01*
X95974999Y-235946692D01*
X95974998Y-235946677D01*
X95964855Y-235847392D01*
X95911547Y-235686518D01*
X95911542Y-235686507D01*
X95822575Y-235542271D01*
X95822572Y-235542267D01*
X95702731Y-235422426D01*
X95635032Y-235380668D01*
X95588308Y-235328719D01*
X95577087Y-235259757D01*
X95579900Y-235253282D01*
X95579900Y-234570000D01*
X94854901Y-234570000D01*
X94854901Y-234576582D01*
X93200500Y-234576582D01*
X93200500Y-230872574D01*
X93220185Y-230805535D01*
X93225234Y-230798263D01*
X93304943Y-230691785D01*
X93304942Y-230691785D01*
X93304946Y-230691781D01*
X93355241Y-230556933D01*
X93361650Y-230497323D01*
X93361649Y-230027955D01*
X93367887Y-230006710D01*
X93369467Y-229984623D01*
X93377538Y-229973840D01*
X93381333Y-229960918D01*
X93398069Y-229946416D01*
X93411339Y-229928690D01*
X93423957Y-229923983D01*
X93434137Y-229915163D01*
X93456055Y-229912011D01*
X93476803Y-229904273D01*
X93489963Y-229907135D01*
X93503296Y-229905219D01*
X93523439Y-229914418D01*
X93545076Y-229919125D01*
X93562801Y-229932393D01*
X93566852Y-229934244D01*
X93573330Y-229940276D01*
X93602031Y-229968977D01*
X93635516Y-230030300D01*
X93638350Y-230056658D01*
X93638350Y-230497320D01*
X93638351Y-230497326D01*
X93644758Y-230556933D01*
X93695052Y-230691778D01*
X93695056Y-230691785D01*
X93781302Y-230806994D01*
X93781305Y-230806997D01*
X93896514Y-230893243D01*
X93896521Y-230893247D01*
X93941468Y-230910011D01*
X94031367Y-230943541D01*
X94090977Y-230949950D01*
X94809022Y-230949949D01*
X94868633Y-230943541D01*
X95003481Y-230893246D01*
X95118696Y-230806996D01*
X95204946Y-230691781D01*
X95220343Y-230650500D01*
X95228673Y-230628167D01*
X95270544Y-230572233D01*
X95336009Y-230547816D01*
X95344855Y-230547500D01*
X95667071Y-230547500D01*
X95751615Y-230530682D01*
X95792744Y-230522501D01*
X95911127Y-230473465D01*
X95950352Y-230447256D01*
X96017669Y-230402277D01*
X96603127Y-229816819D01*
X96664450Y-229783334D01*
X96690808Y-229780500D01*
X96734682Y-229780500D01*
X96734690Y-229780500D01*
X96770993Y-229777643D01*
X96770995Y-229777642D01*
X96770997Y-229777642D01*
X96811975Y-229765736D01*
X96926395Y-229732494D01*
X97035840Y-229667767D01*
X97098961Y-229650500D01*
X98099275Y-229650500D01*
X98183819Y-229633682D01*
X98224948Y-229625501D01*
X98343331Y-229576465D01*
X98376794Y-229554106D01*
X98436610Y-229514138D01*
X98503286Y-229493261D01*
X98570667Y-229511745D01*
G37*
%TD.AperFunction*%
%TA.AperFunction,Conductor*%
G36*
X68787753Y-208582945D02*
G01*
X68794231Y-208588977D01*
X72372028Y-212166774D01*
X72405513Y-212228097D01*
X72400529Y-212297789D01*
X72358657Y-212353722D01*
X72353242Y-212357555D01*
X72346694Y-212361930D01*
X72335331Y-212369523D01*
X72335329Y-212369524D01*
X72335326Y-212369527D01*
X72335325Y-212369527D01*
X72100041Y-212604811D01*
X72038718Y-212638296D01*
X71983849Y-212637808D01*
X71977472Y-212636301D01*
X71917944Y-212629900D01*
X70750100Y-212629900D01*
X70750100Y-213396546D01*
X71662181Y-214308627D01*
X71676884Y-214335554D01*
X71693477Y-214361373D01*
X71694368Y-214367573D01*
X71695666Y-214369950D01*
X71698500Y-214396308D01*
X71698500Y-214603691D01*
X71678815Y-214670730D01*
X71662181Y-214691372D01*
X71176777Y-215176777D01*
X70750100Y-215603452D01*
X70750100Y-216369900D01*
X71574500Y-216369900D01*
X71641539Y-216389585D01*
X71687294Y-216442389D01*
X71698500Y-216493900D01*
X71698500Y-228492845D01*
X71716897Y-228585328D01*
X71716897Y-228585329D01*
X71723497Y-228618511D01*
X71723498Y-228618515D01*
X71723499Y-228618518D01*
X71772535Y-228736901D01*
X71835004Y-228830394D01*
X71843726Y-228843447D01*
X71843727Y-228843448D01*
X74804407Y-231804127D01*
X74837892Y-231865450D01*
X74840726Y-231891808D01*
X74840726Y-238121417D01*
X74821041Y-238188456D01*
X74768237Y-238234211D01*
X74699079Y-238244155D01*
X74635523Y-238215130D01*
X74629045Y-238209098D01*
X69337819Y-232917872D01*
X69304334Y-232856549D01*
X69301500Y-232830191D01*
X69301500Y-216493900D01*
X69321185Y-216426861D01*
X69373989Y-216381106D01*
X69425500Y-216369900D01*
X70250100Y-216369900D01*
X70250100Y-215603653D01*
X70250099Y-215603652D01*
X69823223Y-215176777D01*
X69616132Y-214969686D01*
X69847600Y-214969686D01*
X69847600Y-215030314D01*
X69870801Y-215086328D01*
X69913672Y-215129199D01*
X69969686Y-215152400D01*
X70030314Y-215152400D01*
X70086328Y-215129199D01*
X70129199Y-215086328D01*
X70152400Y-215030314D01*
X70152400Y-214969686D01*
X70847600Y-214969686D01*
X70847600Y-215030314D01*
X70870801Y-215086328D01*
X70913672Y-215129199D01*
X70969686Y-215152400D01*
X71030314Y-215152400D01*
X71086328Y-215129199D01*
X71129199Y-215086328D01*
X71152400Y-215030314D01*
X71152400Y-214969686D01*
X71129199Y-214913672D01*
X71086328Y-214870801D01*
X71030314Y-214847600D01*
X70969686Y-214847600D01*
X70913672Y-214870801D01*
X70870801Y-214913672D01*
X70847600Y-214969686D01*
X70152400Y-214969686D01*
X70129199Y-214913672D01*
X70086328Y-214870801D01*
X70030314Y-214847600D01*
X69969686Y-214847600D01*
X69913672Y-214870801D01*
X69870801Y-214913672D01*
X69847600Y-214969686D01*
X69616132Y-214969686D01*
X69234127Y-214587681D01*
X69229788Y-214579735D01*
X69222541Y-214574310D01*
X69213306Y-214549550D01*
X69200642Y-214526358D01*
X69201287Y-214517328D01*
X69198124Y-214508846D01*
X69200048Y-214499999D01*
X69853553Y-214499999D01*
X70000000Y-214646446D01*
X70146446Y-214500001D01*
X70146446Y-214500000D01*
X70146445Y-214499999D01*
X70853553Y-214499999D01*
X71000000Y-214646446D01*
X71146446Y-214500001D01*
X71146446Y-214500000D01*
X71000000Y-214353553D01*
X70853553Y-214499999D01*
X70146445Y-214499999D01*
X70000000Y-214353553D01*
X69853553Y-214499999D01*
X69200048Y-214499999D01*
X69203740Y-214483025D01*
X69205626Y-214456666D01*
X69211444Y-214447612D01*
X69212976Y-214440573D01*
X69234127Y-214412319D01*
X69285489Y-214360957D01*
X69676760Y-213969686D01*
X69847600Y-213969686D01*
X69847600Y-214030314D01*
X69870801Y-214086328D01*
X69913672Y-214129199D01*
X69969686Y-214152400D01*
X70030314Y-214152400D01*
X70086328Y-214129199D01*
X70129199Y-214086328D01*
X70152400Y-214030314D01*
X70152400Y-213969686D01*
X70847600Y-213969686D01*
X70847600Y-214030314D01*
X70870801Y-214086328D01*
X70913672Y-214129199D01*
X70969686Y-214152400D01*
X71030314Y-214152400D01*
X71086328Y-214129199D01*
X71129199Y-214086328D01*
X71152400Y-214030314D01*
X71152400Y-213969686D01*
X71129199Y-213913672D01*
X71086328Y-213870801D01*
X71030314Y-213847600D01*
X70969686Y-213847600D01*
X70913672Y-213870801D01*
X70870801Y-213913672D01*
X70847600Y-213969686D01*
X70152400Y-213969686D01*
X70129199Y-213913672D01*
X70086328Y-213870801D01*
X70030314Y-213847600D01*
X69969686Y-213847600D01*
X69913672Y-213870801D01*
X69870801Y-213913672D01*
X69847600Y-213969686D01*
X69676760Y-213969686D01*
X70250099Y-213396346D01*
X70250100Y-213396345D01*
X70250100Y-212629900D01*
X69525500Y-212629900D01*
X69458461Y-212610215D01*
X69412706Y-212557411D01*
X69401500Y-212505900D01*
X69401500Y-211686928D01*
X69376502Y-211561261D01*
X69376501Y-211561260D01*
X69376501Y-211561256D01*
X69327465Y-211442873D01*
X69296300Y-211396231D01*
X69256276Y-211336330D01*
X69256274Y-211336327D01*
X69256271Y-211336324D01*
X67982127Y-210062181D01*
X67948642Y-210000858D01*
X67953626Y-209931166D01*
X67995498Y-209875233D01*
X68060962Y-209850816D01*
X68069808Y-209850500D01*
X68130378Y-209850500D01*
X68130394Y-209850499D01*
X68189922Y-209844098D01*
X68189929Y-209844096D01*
X68324636Y-209793854D01*
X68324643Y-209793850D01*
X68439737Y-209707690D01*
X68439740Y-209707687D01*
X68525900Y-209592593D01*
X68525904Y-209592586D01*
X68576146Y-209457879D01*
X68576148Y-209457872D01*
X68582549Y-209398344D01*
X68582550Y-209398327D01*
X68582550Y-208676658D01*
X68602235Y-208609619D01*
X68655039Y-208563864D01*
X68724197Y-208553920D01*
X68787753Y-208582945D01*
G37*
%TD.AperFunction*%
%TA.AperFunction,Conductor*%
G36*
X107648055Y-236257744D02*
G01*
X107661492Y-236256784D01*
X107680927Y-236267397D01*
X107702171Y-236273635D01*
X107710991Y-236283813D01*
X107722814Y-236290270D01*
X107733427Y-236309706D01*
X107747926Y-236326439D01*
X107749842Y-236339769D01*
X107756299Y-236351593D01*
X107754718Y-236373680D01*
X107757870Y-236395597D01*
X107752165Y-236409368D01*
X107751313Y-236421285D01*
X107734398Y-236452262D01*
X107694754Y-236505218D01*
X107694752Y-236505221D01*
X107644458Y-236640067D01*
X107638161Y-236698646D01*
X107638051Y-236699673D01*
X107638050Y-236699685D01*
X107638050Y-237900320D01*
X107638051Y-237900326D01*
X107644459Y-237959934D01*
X107666751Y-238019704D01*
X107668488Y-238043994D01*
X107674485Y-238067601D01*
X107670936Y-238078223D01*
X107671735Y-238089395D01*
X107660063Y-238110768D01*
X107652346Y-238133870D01*
X107642214Y-238143456D01*
X107638249Y-238150718D01*
X107628267Y-238159675D01*
X107622240Y-238164519D01*
X107601956Y-238177032D01*
X107582583Y-238196404D01*
X107577344Y-238200617D01*
X107551010Y-238211489D01*
X107525998Y-238225146D01*
X107519126Y-238224654D01*
X107512762Y-238227282D01*
X107484734Y-238222192D01*
X107456307Y-238220158D01*
X107449525Y-238215799D01*
X107444017Y-238214799D01*
X107435270Y-238206637D01*
X107411965Y-238191659D01*
X107397732Y-238177426D01*
X107384151Y-238169049D01*
X107337428Y-238117099D01*
X107326209Y-238048136D01*
X107333068Y-238020184D01*
X107355541Y-237959933D01*
X107361950Y-237900323D01*
X107361949Y-236699678D01*
X107355541Y-236640067D01*
X107343411Y-236607546D01*
X107305247Y-236505221D01*
X107305245Y-236505218D01*
X107265602Y-236452262D01*
X107241184Y-236386798D01*
X107256035Y-236318524D01*
X107305440Y-236269119D01*
X107364868Y-236253950D01*
X107635132Y-236253950D01*
X107648055Y-236257744D01*
G37*
%TD.AperFunction*%
%TA.AperFunction,Conductor*%
G36*
X83899539Y-234582494D02*
G01*
X83931587Y-234583229D01*
X83935354Y-234585055D01*
X83937266Y-234585192D01*
X83942266Y-234588405D01*
X83963347Y-234598624D01*
X83973207Y-234605285D01*
X83989711Y-234621789D01*
X84120821Y-234709394D01*
X84137605Y-234716346D01*
X84147992Y-234723363D01*
X84192524Y-234777202D01*
X84200879Y-234846570D01*
X84170404Y-234909444D01*
X84166259Y-234913794D01*
X83862181Y-235217872D01*
X83800858Y-235251357D01*
X83731166Y-235246373D01*
X83675233Y-235204501D01*
X83650816Y-235139037D01*
X83650500Y-235130191D01*
X83650500Y-234820808D01*
X83670185Y-234753769D01*
X83686813Y-234733132D01*
X83806255Y-234613690D01*
X83834383Y-234598331D01*
X83861736Y-234581627D01*
X83864844Y-234581698D01*
X83867574Y-234580208D01*
X83899539Y-234582494D01*
G37*
%TD.AperFunction*%
%TA.AperFunction,Conductor*%
G36*
X61687380Y-213544985D02*
G01*
X61733135Y-213597789D01*
X61743079Y-213666947D01*
X61714054Y-213730503D01*
X61708022Y-213736981D01*
X61293227Y-214151775D01*
X61293226Y-214151776D01*
X61269814Y-214186816D01*
X61239294Y-214232494D01*
X61231724Y-214243823D01*
X61222033Y-214258326D01*
X61172999Y-214376705D01*
X61172997Y-214376711D01*
X61148000Y-214502378D01*
X61148000Y-229362571D01*
X61168238Y-229464310D01*
X61168238Y-229464311D01*
X61172997Y-229488237D01*
X61172998Y-229488241D01*
X61172999Y-229488244D01*
X61222035Y-229606627D01*
X61291099Y-229709990D01*
X61293226Y-229713173D01*
X61293227Y-229713174D01*
X66166259Y-234586205D01*
X66199744Y-234647528D01*
X66194760Y-234717220D01*
X66152888Y-234773153D01*
X66143769Y-234779367D01*
X66135263Y-234784623D01*
X66120821Y-234790606D01*
X66062116Y-234829831D01*
X66060256Y-234830981D01*
X66028595Y-234839674D01*
X65997279Y-234849480D01*
X65995065Y-234849500D01*
X65435929Y-234849500D01*
X65310261Y-234874497D01*
X65310251Y-234874500D01*
X65204085Y-234918475D01*
X65204086Y-234918476D01*
X65191876Y-234923533D01*
X65191869Y-234923537D01*
X65085331Y-234994723D01*
X65037410Y-235042643D01*
X64976086Y-235076127D01*
X64906394Y-235071141D01*
X64860716Y-235038506D01*
X64859585Y-235039638D01*
X64713673Y-234893726D01*
X64713669Y-234893723D01*
X64607127Y-234822535D01*
X64488744Y-234773499D01*
X64488738Y-234773497D01*
X64363071Y-234748500D01*
X64363069Y-234748500D01*
X63320808Y-234748500D01*
X63253769Y-234728815D01*
X63233127Y-234712181D01*
X62762591Y-234241645D01*
X62729106Y-234180322D01*
X62726914Y-234166564D01*
X62720349Y-234102292D01*
X62720348Y-234102289D01*
X62711139Y-234074497D01*
X62667003Y-233941303D01*
X62666999Y-233941297D01*
X62666998Y-233941294D01*
X62577970Y-233796959D01*
X62577967Y-233796955D01*
X62458044Y-233677032D01*
X62458040Y-233677029D01*
X62313705Y-233588001D01*
X62313699Y-233587998D01*
X62313697Y-233587997D01*
X62313694Y-233587996D01*
X62152709Y-233534651D01*
X62053346Y-233524500D01*
X61506662Y-233524500D01*
X61506644Y-233524501D01*
X61407292Y-233534650D01*
X61407289Y-233534651D01*
X61246305Y-233587996D01*
X61246294Y-233588001D01*
X61101959Y-233677029D01*
X61101954Y-233677033D01*
X61087325Y-233691662D01*
X61026001Y-233725146D01*
X60956309Y-233720160D01*
X60911965Y-233691660D01*
X60897732Y-233677427D01*
X60897728Y-233677424D01*
X60753492Y-233588457D01*
X60753481Y-233588452D01*
X60592606Y-233535144D01*
X60493322Y-233525000D01*
X60470000Y-233525000D01*
X60470000Y-234376000D01*
X60467449Y-234384685D01*
X60468738Y-234393647D01*
X60457759Y-234417687D01*
X60450315Y-234443039D01*
X60443474Y-234448966D01*
X60439713Y-234457203D01*
X60417478Y-234471492D01*
X60397511Y-234488794D01*
X60386996Y-234491081D01*
X60380935Y-234494977D01*
X60346000Y-234500000D01*
X60193500Y-234500000D01*
X60126461Y-234480315D01*
X60080706Y-234427511D01*
X60069500Y-234376000D01*
X60069500Y-214901807D01*
X60089185Y-214834768D01*
X60105819Y-214814126D01*
X61358326Y-213561619D01*
X61419649Y-213528134D01*
X61446007Y-213525300D01*
X61620341Y-213525300D01*
X61687380Y-213544985D01*
G37*
%TD.AperFunction*%
%TA.AperFunction,Conductor*%
G36*
X88855703Y-223257336D02*
G01*
X88892431Y-223312731D01*
X88934251Y-223441444D01*
X88934252Y-223441447D01*
X89016434Y-223602734D01*
X89122823Y-223749169D01*
X89250830Y-223877176D01*
X89397265Y-223983565D01*
X89558552Y-224065747D01*
X89558555Y-224065748D01*
X89730699Y-224121680D01*
X89730712Y-224121683D01*
X89750000Y-224124738D01*
X89750000Y-223315686D01*
X89754394Y-223320080D01*
X89845606Y-223372741D01*
X89947339Y-223400000D01*
X90052661Y-223400000D01*
X90154394Y-223372741D01*
X90245606Y-223320080D01*
X90250000Y-223315686D01*
X90250000Y-224124737D01*
X90269287Y-224121683D01*
X90269300Y-224121680D01*
X90441444Y-224065748D01*
X90441447Y-224065747D01*
X90602734Y-223983565D01*
X90749169Y-223877176D01*
X90877172Y-223749173D01*
X90877178Y-223749166D01*
X90899371Y-223718620D01*
X90954700Y-223675953D01*
X91024313Y-223669972D01*
X91086109Y-223702577D01*
X91100008Y-223718617D01*
X91122445Y-223749499D01*
X91250500Y-223877554D01*
X91250505Y-223877558D01*
X91338442Y-223941447D01*
X91397006Y-223983996D01*
X91468019Y-224020179D01*
X91558360Y-224066211D01*
X91558363Y-224066212D01*
X91644476Y-224094191D01*
X91730591Y-224122171D01*
X91813429Y-224135291D01*
X91909449Y-224150500D01*
X91909454Y-224150500D01*
X92090551Y-224150500D01*
X92177259Y-224136765D01*
X92269409Y-224122171D01*
X92441639Y-224066211D01*
X92558238Y-224006800D01*
X92626904Y-223993904D01*
X92691645Y-224020179D01*
X92702212Y-224029604D01*
X93391074Y-224718466D01*
X93424559Y-224779789D01*
X93419575Y-224849481D01*
X93391074Y-224893828D01*
X93350285Y-224934616D01*
X93350278Y-224934625D01*
X93267968Y-225073804D01*
X93267966Y-225073809D01*
X93222855Y-225229081D01*
X93222854Y-225229087D01*
X93221209Y-225249999D01*
X93221210Y-225250000D01*
X93871246Y-225250000D01*
X93900686Y-225258644D01*
X93930673Y-225265168D01*
X93935688Y-225268922D01*
X93938285Y-225269685D01*
X93958927Y-225286319D01*
X93963681Y-225291073D01*
X93997166Y-225352396D01*
X94000000Y-225378754D01*
X94000000Y-225626000D01*
X93980315Y-225693039D01*
X93927511Y-225738794D01*
X93876000Y-225750000D01*
X93221210Y-225750000D01*
X93222854Y-225770910D01*
X93258021Y-225891956D01*
X93257821Y-225961825D01*
X93219878Y-226020495D01*
X93159311Y-226048866D01*
X93046081Y-226067720D01*
X93022769Y-226064894D01*
X92999351Y-226066569D01*
X92982381Y-226061586D01*
X92968638Y-226056460D01*
X92968634Y-226056459D01*
X92968633Y-226056459D01*
X92909023Y-226050050D01*
X92909013Y-226050050D01*
X92190979Y-226050050D01*
X92190973Y-226050051D01*
X92131366Y-226056458D01*
X91996521Y-226106752D01*
X91996514Y-226106756D01*
X91881305Y-226193002D01*
X91881302Y-226193005D01*
X91795056Y-226308214D01*
X91795052Y-226308221D01*
X91771327Y-226371833D01*
X91729456Y-226427767D01*
X91663991Y-226452184D01*
X91655145Y-226452500D01*
X91012929Y-226452500D01*
X90887261Y-226477497D01*
X90887255Y-226477499D01*
X90768875Y-226526533D01*
X90768866Y-226526538D01*
X90662332Y-226597722D01*
X90621017Y-226639038D01*
X90516872Y-226743182D01*
X90455552Y-226776666D01*
X90429193Y-226779500D01*
X90168384Y-226779500D01*
X90149145Y-226781248D01*
X90097807Y-226785913D01*
X89935393Y-226836522D01*
X89789811Y-226924530D01*
X89669530Y-227044811D01*
X89581522Y-227190393D01*
X89530913Y-227352807D01*
X89524500Y-227423386D01*
X89524500Y-227936613D01*
X89530913Y-228007192D01*
X89530913Y-228007194D01*
X89530914Y-228007196D01*
X89581522Y-228169606D01*
X89668315Y-228313179D01*
X89669530Y-228315188D01*
X89766661Y-228412319D01*
X89800146Y-228473642D01*
X89795162Y-228543334D01*
X89766661Y-228587681D01*
X89669531Y-228684810D01*
X89669530Y-228684811D01*
X89581522Y-228830393D01*
X89530913Y-228992807D01*
X89524500Y-229063386D01*
X89524500Y-229576613D01*
X89530913Y-229647192D01*
X89530913Y-229647194D01*
X89530914Y-229647196D01*
X89581522Y-229809606D01*
X89648417Y-229920264D01*
X89669530Y-229955188D01*
X89789810Y-230075468D01*
X89795715Y-230080094D01*
X89794911Y-230081119D01*
X89836833Y-230126890D01*
X89849500Y-230181488D01*
X89849500Y-231179191D01*
X89829815Y-231246230D01*
X89813181Y-231266872D01*
X89473527Y-231606525D01*
X89473526Y-231606526D01*
X89402332Y-231713076D01*
X89377532Y-231772952D01*
X89333691Y-231827356D01*
X89267397Y-231849421D01*
X89262971Y-231849500D01*
X88774500Y-231849500D01*
X88707461Y-231829815D01*
X88661706Y-231777011D01*
X88650500Y-231725500D01*
X88650500Y-223351049D01*
X88670185Y-223284010D01*
X88722989Y-223238255D01*
X88792147Y-223228311D01*
X88855703Y-223257336D01*
G37*
%TD.AperFunction*%
%TA.AperFunction,Conductor*%
G36*
X75206703Y-217577095D02*
G01*
X75213181Y-217583127D01*
X75238181Y-217608127D01*
X75271666Y-217669450D01*
X75274500Y-217695808D01*
X75274500Y-218250001D01*
X75274501Y-218250019D01*
X75285000Y-218352796D01*
X75285001Y-218352799D01*
X75340185Y-218519331D01*
X75340187Y-218519336D01*
X75367594Y-218563769D01*
X75432288Y-218668656D01*
X75556344Y-218792712D01*
X75705666Y-218884814D01*
X75872203Y-218939999D01*
X75974991Y-218950500D01*
X77025008Y-218950499D01*
X77025016Y-218950498D01*
X77025019Y-218950498D01*
X77081302Y-218944748D01*
X77127797Y-218939999D01*
X77294334Y-218884814D01*
X77443656Y-218792712D01*
X77567712Y-218668656D01*
X77630905Y-218566202D01*
X77648991Y-218549935D01*
X77663916Y-218530722D01*
X77674505Y-218526986D01*
X77682853Y-218519478D01*
X77706863Y-218515570D01*
X77729805Y-218507477D01*
X77740731Y-218510058D01*
X77751815Y-218508255D01*
X77774128Y-218517950D01*
X77797803Y-218523544D01*
X77805599Y-218531623D01*
X77815897Y-218536098D01*
X77829426Y-218556316D01*
X77846319Y-218573823D01*
X77852093Y-218590191D01*
X77854754Y-218594167D01*
X77858060Y-218607105D01*
X77866693Y-218650500D01*
X77874499Y-218689744D01*
X77923535Y-218808127D01*
X77974775Y-218884814D01*
X77994726Y-218914673D01*
X79585324Y-220505271D01*
X79585331Y-220505277D01*
X79691871Y-220576464D01*
X79691870Y-220576464D01*
X79697616Y-220578844D01*
X79810256Y-220625501D01*
X79810260Y-220625501D01*
X79810261Y-220625502D01*
X79935928Y-220650500D01*
X79935931Y-220650500D01*
X87225500Y-220650500D01*
X87292539Y-220670185D01*
X87338294Y-220722989D01*
X87349500Y-220774500D01*
X87349500Y-231130192D01*
X87329815Y-231197231D01*
X87277011Y-231242986D01*
X87207853Y-231252930D01*
X87144297Y-231223905D01*
X87137819Y-231217873D01*
X86664669Y-230744723D01*
X85414674Y-229494727D01*
X85414673Y-229494726D01*
X85414669Y-229494723D01*
X85308127Y-229423535D01*
X85189744Y-229374499D01*
X85189738Y-229374497D01*
X85064071Y-229349500D01*
X85064069Y-229349500D01*
X84369808Y-229349500D01*
X84302769Y-229329815D01*
X84257014Y-229277011D01*
X84247070Y-229207853D01*
X84276095Y-229144297D01*
X84282127Y-229137819D01*
X85505273Y-227914673D01*
X85505277Y-227914669D01*
X85576465Y-227808127D01*
X85625501Y-227689744D01*
X85631277Y-227660705D01*
X85650500Y-227564069D01*
X85650500Y-224512662D01*
X85670185Y-224445623D01*
X85701616Y-224412343D01*
X85749497Y-224377556D01*
X85749497Y-224377555D01*
X85749501Y-224377553D01*
X85877553Y-224249501D01*
X85983996Y-224102994D01*
X86066211Y-223941639D01*
X86122171Y-223769409D01*
X86145085Y-223624737D01*
X86150500Y-223590551D01*
X86150500Y-223409448D01*
X86128301Y-223269295D01*
X86122171Y-223230591D01*
X86082137Y-223107376D01*
X86066212Y-223058363D01*
X86066211Y-223058360D01*
X86009642Y-222947339D01*
X85983996Y-222897006D01*
X85946652Y-222845606D01*
X85877558Y-222750505D01*
X85877554Y-222750500D01*
X85749499Y-222622445D01*
X85749494Y-222622441D01*
X85602997Y-222516006D01*
X85602996Y-222516005D01*
X85602994Y-222516004D01*
X85551300Y-222489664D01*
X85441639Y-222433788D01*
X85441636Y-222433787D01*
X85269410Y-222377829D01*
X85090551Y-222349500D01*
X85090546Y-222349500D01*
X84909454Y-222349500D01*
X84909449Y-222349500D01*
X84730589Y-222377829D01*
X84558363Y-222433787D01*
X84558360Y-222433788D01*
X84397002Y-222516006D01*
X84250505Y-222622441D01*
X84250500Y-222622445D01*
X84122443Y-222750502D01*
X84100007Y-222781383D01*
X84044676Y-222824048D01*
X83975063Y-222830026D01*
X83913268Y-222797419D01*
X83899372Y-222781381D01*
X83877176Y-222750830D01*
X83749169Y-222622823D01*
X83602734Y-222516434D01*
X83441447Y-222434252D01*
X83441441Y-222434250D01*
X83269295Y-222378318D01*
X83269285Y-222378315D01*
X83250000Y-222375260D01*
X83250000Y-223184314D01*
X83245606Y-223179920D01*
X83154394Y-223127259D01*
X83052661Y-223100000D01*
X82947339Y-223100000D01*
X82845606Y-223127259D01*
X82754394Y-223179920D01*
X82750000Y-223184314D01*
X82750000Y-222375260D01*
X82730714Y-222378315D01*
X82730704Y-222378318D01*
X82558558Y-222434250D01*
X82558552Y-222434252D01*
X82397265Y-222516434D01*
X82250830Y-222622823D01*
X82122823Y-222750830D01*
X82016434Y-222897265D01*
X81934252Y-223058552D01*
X81934250Y-223058558D01*
X81878318Y-223230704D01*
X81878315Y-223230714D01*
X81875261Y-223250000D01*
X82684314Y-223250000D01*
X82679920Y-223254394D01*
X82627259Y-223345606D01*
X82600000Y-223447339D01*
X82600000Y-223552661D01*
X82627259Y-223654394D01*
X82679920Y-223745606D01*
X82684314Y-223750000D01*
X81875261Y-223750000D01*
X81878315Y-223769285D01*
X81878318Y-223769295D01*
X81934250Y-223941441D01*
X81934252Y-223941447D01*
X82016434Y-224102734D01*
X82122823Y-224249169D01*
X82250830Y-224377176D01*
X82397265Y-224483565D01*
X82558552Y-224565747D01*
X82558555Y-224565748D01*
X82730699Y-224621680D01*
X82730712Y-224621683D01*
X82750000Y-224624738D01*
X82750000Y-223815686D01*
X82754394Y-223820080D01*
X82845606Y-223872741D01*
X82947339Y-223900000D01*
X83052661Y-223900000D01*
X83154394Y-223872741D01*
X83245606Y-223820080D01*
X83250000Y-223815686D01*
X83250000Y-224624737D01*
X83269287Y-224621683D01*
X83269300Y-224621680D01*
X83441444Y-224565748D01*
X83441447Y-224565747D01*
X83602734Y-224483565D01*
X83749169Y-224377176D01*
X83877172Y-224249173D01*
X83877178Y-224249166D01*
X83899371Y-224218620D01*
X83954700Y-224175953D01*
X84024313Y-224169972D01*
X84086109Y-224202577D01*
X84100008Y-224218617D01*
X84122445Y-224249499D01*
X84250502Y-224377556D01*
X84298384Y-224412343D01*
X84341050Y-224467672D01*
X84349500Y-224512662D01*
X84349500Y-227179191D01*
X84329815Y-227246230D01*
X84313181Y-227266872D01*
X82954677Y-228625376D01*
X82893354Y-228658861D01*
X82823662Y-228653877D01*
X82767729Y-228612005D01*
X82760264Y-228600816D01*
X82679721Y-228464625D01*
X82679714Y-228464616D01*
X82565383Y-228350285D01*
X82565374Y-228350278D01*
X82426195Y-228267968D01*
X82426190Y-228267966D01*
X82270918Y-228222855D01*
X82270912Y-228222854D01*
X82250000Y-228221209D01*
X82250000Y-228876000D01*
X82230315Y-228943039D01*
X82177511Y-228988794D01*
X82126000Y-229000000D01*
X81874000Y-229000000D01*
X81806961Y-228980315D01*
X81761206Y-228927511D01*
X81750000Y-228876000D01*
X81750000Y-228221210D01*
X81749999Y-228221209D01*
X81729087Y-228222854D01*
X81729081Y-228222855D01*
X81573809Y-228267966D01*
X81573806Y-228267967D01*
X81518620Y-228300604D01*
X81450896Y-228317785D01*
X81384633Y-228295625D01*
X81340871Y-228241159D01*
X81331500Y-228193871D01*
X81331500Y-226820718D01*
X81340940Y-226773263D01*
X81347623Y-226757128D01*
X81347625Y-226757124D01*
X81381500Y-226586820D01*
X81381500Y-226413179D01*
X81381500Y-225913180D01*
X81381500Y-225913177D01*
X81369618Y-225853447D01*
X81362942Y-225819883D01*
X81347625Y-225742876D01*
X81296106Y-225618500D01*
X81281175Y-225582453D01*
X81222556Y-225494723D01*
X81203631Y-225466399D01*
X81184707Y-225438077D01*
X81184703Y-225438072D01*
X79547250Y-223800620D01*
X79002062Y-223255432D01*
X78968577Y-223194109D01*
X78973561Y-223124417D01*
X78981865Y-223107376D01*
X78981784Y-223107335D01*
X78985522Y-223100000D01*
X79066211Y-222941639D01*
X79122171Y-222769409D01*
X79141250Y-222648950D01*
X79150500Y-222590551D01*
X79150500Y-222409448D01*
X79132755Y-222297419D01*
X79122171Y-222230591D01*
X79087156Y-222122823D01*
X79066212Y-222058363D01*
X79066211Y-222058360D01*
X79037740Y-222002484D01*
X78983996Y-221897006D01*
X78949481Y-221849500D01*
X78877558Y-221750505D01*
X78877554Y-221750500D01*
X78749499Y-221622445D01*
X78749494Y-221622441D01*
X78602997Y-221516006D01*
X78602996Y-221516005D01*
X78602994Y-221516004D01*
X78551300Y-221489664D01*
X78441639Y-221433788D01*
X78441636Y-221433787D01*
X78269410Y-221377829D01*
X78090551Y-221349500D01*
X78090546Y-221349500D01*
X77909454Y-221349500D01*
X77909449Y-221349500D01*
X77730589Y-221377829D01*
X77558363Y-221433787D01*
X77558360Y-221433788D01*
X77397002Y-221516006D01*
X77250505Y-221622441D01*
X77250500Y-221622445D01*
X77122443Y-221750502D01*
X77100007Y-221781383D01*
X77044676Y-221824048D01*
X76975063Y-221830026D01*
X76913268Y-221797419D01*
X76899372Y-221781381D01*
X76877176Y-221750830D01*
X76749169Y-221622823D01*
X76602734Y-221516434D01*
X76441447Y-221434252D01*
X76441441Y-221434250D01*
X76269295Y-221378318D01*
X76269285Y-221378315D01*
X76250000Y-221375260D01*
X76250000Y-222184314D01*
X76245606Y-222179920D01*
X76154394Y-222127259D01*
X76052661Y-222100000D01*
X75947339Y-222100000D01*
X75845606Y-222127259D01*
X75754394Y-222179920D01*
X75750000Y-222184314D01*
X75750000Y-221375260D01*
X75730714Y-221378315D01*
X75730704Y-221378318D01*
X75558558Y-221434250D01*
X75558552Y-221434252D01*
X75397265Y-221516434D01*
X75250830Y-221622823D01*
X75122823Y-221750830D01*
X75016434Y-221897265D01*
X74934252Y-222058552D01*
X74934250Y-222058558D01*
X74878318Y-222230704D01*
X74878315Y-222230714D01*
X74875261Y-222250000D01*
X75684314Y-222250000D01*
X75679920Y-222254394D01*
X75627259Y-222345606D01*
X75600000Y-222447339D01*
X75600000Y-222552661D01*
X75627259Y-222654394D01*
X75679920Y-222745606D01*
X75684314Y-222750000D01*
X74875261Y-222750000D01*
X74878315Y-222769285D01*
X74878318Y-222769295D01*
X74934250Y-222941441D01*
X74934252Y-222941447D01*
X75016434Y-223102734D01*
X75122823Y-223249169D01*
X75250830Y-223377176D01*
X75397265Y-223483565D01*
X75558552Y-223565747D01*
X75558555Y-223565748D01*
X75730699Y-223621680D01*
X75730712Y-223621683D01*
X75750000Y-223624738D01*
X75750000Y-222815686D01*
X75754394Y-222820080D01*
X75845606Y-222872741D01*
X75947339Y-222900000D01*
X76052661Y-222900000D01*
X76154394Y-222872741D01*
X76245606Y-222820080D01*
X76250000Y-222815686D01*
X76250000Y-223624737D01*
X76269287Y-223621683D01*
X76269300Y-223621680D01*
X76441444Y-223565748D01*
X76441447Y-223565747D01*
X76602734Y-223483565D01*
X76749169Y-223377176D01*
X76877174Y-223249171D01*
X76894181Y-223225763D01*
X76949510Y-223183096D01*
X77019124Y-223177116D01*
X77080919Y-223209721D01*
X77115277Y-223270560D01*
X77118500Y-223298647D01*
X77118500Y-223413179D01*
X77118500Y-223586821D01*
X77118500Y-223586823D01*
X77118499Y-223586823D01*
X77152374Y-223757118D01*
X77152377Y-223757128D01*
X77218822Y-223917543D01*
X77315295Y-224061926D01*
X78931454Y-225678085D01*
X78964939Y-225739408D01*
X78959955Y-225809100D01*
X78931455Y-225853447D01*
X78850282Y-225934620D01*
X78850278Y-225934625D01*
X78767968Y-226073804D01*
X78767966Y-226073809D01*
X78722855Y-226229081D01*
X78722854Y-226229087D01*
X78721209Y-226249999D01*
X78721210Y-226250000D01*
X79376000Y-226250000D01*
X79443039Y-226269685D01*
X79488794Y-226322489D01*
X79500000Y-226374000D01*
X79500000Y-226500000D01*
X79532181Y-226532181D01*
X79565666Y-226593504D01*
X79568500Y-226619862D01*
X79568500Y-227327548D01*
X79566937Y-227332870D01*
X79568032Y-227338307D01*
X79557200Y-227366030D01*
X79548815Y-227394587D01*
X79544623Y-227398218D01*
X79542605Y-227403386D01*
X79518499Y-227420855D01*
X79496011Y-227440342D01*
X79490522Y-227441131D01*
X79486031Y-227444386D01*
X79456314Y-227446049D01*
X79426853Y-227450286D01*
X79421807Y-227447981D01*
X79416270Y-227448292D01*
X79390370Y-227433624D01*
X79363297Y-227421261D01*
X79359023Y-227415873D01*
X79355472Y-227413862D01*
X79347814Y-227401741D01*
X79334761Y-227385284D01*
X79331079Y-227378286D01*
X79304946Y-227308219D01*
X79268840Y-227259988D01*
X79264261Y-227251284D01*
X79259226Y-227226284D01*
X79250316Y-227202394D01*
X79250000Y-227193548D01*
X79250000Y-226750000D01*
X78721210Y-226750000D01*
X78722854Y-226770910D01*
X78757876Y-226891456D01*
X78757676Y-226961325D01*
X78719733Y-227019995D01*
X78656095Y-227048838D01*
X78638799Y-227050050D01*
X78190979Y-227050050D01*
X78190973Y-227050051D01*
X78131366Y-227056458D01*
X77996521Y-227106752D01*
X77996514Y-227106756D01*
X77881305Y-227193002D01*
X77881302Y-227193005D01*
X77795056Y-227308214D01*
X77795052Y-227308221D01*
X77771327Y-227371833D01*
X77729456Y-227427767D01*
X77663991Y-227452184D01*
X77655145Y-227452500D01*
X76832929Y-227452500D01*
X76707261Y-227477497D01*
X76707251Y-227477500D01*
X76676457Y-227490256D01*
X76588881Y-227526530D01*
X76588863Y-227526540D01*
X76482332Y-227597721D01*
X76482325Y-227597727D01*
X75836873Y-228243181D01*
X75775550Y-228276666D01*
X75749192Y-228279500D01*
X75668384Y-228279500D01*
X75649145Y-228281248D01*
X75597807Y-228285913D01*
X75435393Y-228336522D01*
X75289811Y-228424530D01*
X75169530Y-228544811D01*
X75081522Y-228690393D01*
X75030913Y-228852807D01*
X75026556Y-228900756D01*
X75024500Y-228923384D01*
X75024500Y-229436616D01*
X75026423Y-229457778D01*
X75030913Y-229507192D01*
X75030913Y-229507194D01*
X75030914Y-229507196D01*
X75081522Y-229669606D01*
X75166155Y-229809606D01*
X75169530Y-229815188D01*
X75266661Y-229912319D01*
X75270999Y-229920264D01*
X75278247Y-229925690D01*
X75287481Y-229950449D01*
X75300146Y-229973642D01*
X75299500Y-229982671D01*
X75302664Y-229991154D01*
X75297047Y-230016974D01*
X75295162Y-230043334D01*
X75289343Y-230052387D01*
X75287812Y-230059427D01*
X75266661Y-230087681D01*
X75184938Y-230169404D01*
X75123615Y-230202889D01*
X75053923Y-230197905D01*
X75009576Y-230169404D01*
X73035819Y-228195647D01*
X73002334Y-228134324D01*
X72999500Y-228107966D01*
X72999500Y-220344720D01*
X73019185Y-220277681D01*
X73071989Y-220231926D01*
X73141147Y-220221982D01*
X73170952Y-220230159D01*
X73175218Y-220231926D01*
X73266503Y-220269737D01*
X73421153Y-220300499D01*
X73421156Y-220300500D01*
X73421158Y-220300500D01*
X73578844Y-220300500D01*
X73578845Y-220300499D01*
X73733497Y-220269737D01*
X73848789Y-220221982D01*
X73879172Y-220209397D01*
X73879172Y-220209396D01*
X73879179Y-220209394D01*
X74010289Y-220121789D01*
X74121789Y-220010289D01*
X74209394Y-219879179D01*
X74269737Y-219733497D01*
X74283079Y-219666416D01*
X74315463Y-219604509D01*
X74316956Y-219602988D01*
X74856277Y-219063669D01*
X74927465Y-218957127D01*
X74960153Y-218878211D01*
X74976501Y-218838744D01*
X74985658Y-218792710D01*
X75001500Y-218713071D01*
X75001500Y-217670808D01*
X75021185Y-217603769D01*
X75073989Y-217558014D01*
X75143147Y-217548070D01*
X75206703Y-217577095D01*
G37*
%TD.AperFunction*%
%TA.AperFunction,Conductor*%
G36*
X96243486Y-228004185D02*
G01*
X96289241Y-228056989D01*
X96299185Y-228126147D01*
X96270160Y-228189703D01*
X96211382Y-228227477D01*
X96211043Y-228227576D01*
X96150809Y-228245076D01*
X96116213Y-228250000D01*
X95695496Y-228250000D01*
X95737968Y-228396195D01*
X95737968Y-228396196D01*
X95761738Y-228436388D01*
X95778921Y-228504112D01*
X95761739Y-228562629D01*
X95737504Y-228603608D01*
X95737504Y-228603609D01*
X95692357Y-228759002D01*
X95692356Y-228759008D01*
X95689500Y-228795302D01*
X95689500Y-228839192D01*
X95669815Y-228906231D01*
X95653181Y-228926873D01*
X95415513Y-229164540D01*
X95354190Y-229198025D01*
X95284498Y-229193041D01*
X95228565Y-229151169D01*
X95211650Y-229120192D01*
X95204947Y-229102221D01*
X95204943Y-229102214D01*
X95118697Y-228987005D01*
X95118694Y-228987002D01*
X95003485Y-228900756D01*
X95003478Y-228900752D01*
X94868632Y-228850458D01*
X94868633Y-228850458D01*
X94809033Y-228844051D01*
X94809031Y-228844050D01*
X94809023Y-228844050D01*
X94809015Y-228844050D01*
X94368358Y-228844050D01*
X94301319Y-228824365D01*
X94280677Y-228807731D01*
X93961224Y-228488277D01*
X93961223Y-228488276D01*
X93961219Y-228488273D01*
X93854677Y-228417085D01*
X93831027Y-228407289D01*
X93798972Y-228394011D01*
X93744569Y-228350170D01*
X93722504Y-228283876D01*
X93739783Y-228216176D01*
X93790921Y-228168566D01*
X93828334Y-228156777D01*
X93956194Y-228137921D01*
X93978334Y-228141022D01*
X94000636Y-228139426D01*
X94017607Y-228144409D01*
X94031367Y-228149541D01*
X94090977Y-228155950D01*
X94809022Y-228155949D01*
X94868633Y-228149541D01*
X95003481Y-228099246D01*
X95118695Y-228012997D01*
X95123722Y-228009234D01*
X95189186Y-227984816D01*
X95198033Y-227984500D01*
X96176447Y-227984500D01*
X96243486Y-228004185D01*
G37*
%TD.AperFunction*%
%TA.AperFunction,Conductor*%
G36*
X97753548Y-228004185D02*
G01*
X97774190Y-228020819D01*
X97846632Y-228093261D01*
X97880117Y-228154584D01*
X97875133Y-228224276D01*
X97846634Y-228268621D01*
X97802078Y-228313179D01*
X97740756Y-228346666D01*
X97714395Y-228349500D01*
X97440749Y-228349500D01*
X97373710Y-228329815D01*
X97345205Y-228296919D01*
X97341706Y-228299547D01*
X97304505Y-228250000D01*
X96883787Y-228250000D01*
X96849191Y-228245076D01*
X96788957Y-228227576D01*
X96730072Y-228189969D01*
X96700866Y-228126497D01*
X96710612Y-228057310D01*
X96756217Y-228004376D01*
X96823200Y-227984501D01*
X96823553Y-227984500D01*
X97686509Y-227984500D01*
X97753548Y-228004185D01*
G37*
%TD.AperFunction*%
%TA.AperFunction,Conductor*%
G36*
X101746231Y-220670185D02*
G01*
X101766873Y-220686819D01*
X101813181Y-220733127D01*
X101846666Y-220794450D01*
X101849500Y-220820808D01*
X101849500Y-225679192D01*
X101829815Y-225746231D01*
X101813181Y-225766873D01*
X100862181Y-226717873D01*
X100800858Y-226751358D01*
X100731166Y-226746374D01*
X100675233Y-226704502D01*
X100650816Y-226639038D01*
X100650500Y-226630192D01*
X100650500Y-224012662D01*
X100670185Y-223945623D01*
X100701616Y-223912343D01*
X100749497Y-223877556D01*
X100749497Y-223877555D01*
X100749501Y-223877553D01*
X100877553Y-223749501D01*
X100983996Y-223602994D01*
X101066211Y-223441639D01*
X101122171Y-223269409D01*
X101140388Y-223154394D01*
X101150500Y-223090551D01*
X101150500Y-222909448D01*
X101132755Y-222797419D01*
X101122171Y-222730591D01*
X101087156Y-222622823D01*
X101066212Y-222558363D01*
X101066211Y-222558360D01*
X101009642Y-222447339D01*
X100983996Y-222397006D01*
X100946652Y-222345606D01*
X100877558Y-222250505D01*
X100877554Y-222250500D01*
X100749499Y-222122445D01*
X100749494Y-222122441D01*
X100602997Y-222016006D01*
X100602996Y-222016005D01*
X100602994Y-222016004D01*
X100551300Y-221989664D01*
X100441639Y-221933788D01*
X100441636Y-221933787D01*
X100269410Y-221877829D01*
X100090551Y-221849500D01*
X100090546Y-221849500D01*
X99909454Y-221849500D01*
X99909449Y-221849500D01*
X99730589Y-221877829D01*
X99558363Y-221933787D01*
X99558360Y-221933788D01*
X99397002Y-222016006D01*
X99250505Y-222122441D01*
X99250500Y-222122445D01*
X99122443Y-222250502D01*
X99100007Y-222281383D01*
X99044676Y-222324048D01*
X98975063Y-222330026D01*
X98913268Y-222297419D01*
X98899372Y-222281381D01*
X98877176Y-222250830D01*
X98749169Y-222122823D01*
X98602734Y-222016434D01*
X98441447Y-221934252D01*
X98441441Y-221934250D01*
X98269295Y-221878318D01*
X98269285Y-221878315D01*
X98250000Y-221875260D01*
X98250000Y-222684314D01*
X98245606Y-222679920D01*
X98154394Y-222627259D01*
X98052661Y-222600000D01*
X97947339Y-222600000D01*
X97845606Y-222627259D01*
X97754394Y-222679920D01*
X97750000Y-222684314D01*
X97750000Y-221875260D01*
X97730714Y-221878315D01*
X97730704Y-221878318D01*
X97558558Y-221934250D01*
X97558552Y-221934252D01*
X97397265Y-222016434D01*
X97250830Y-222122823D01*
X97122823Y-222250830D01*
X97016434Y-222397265D01*
X96934252Y-222558552D01*
X96934250Y-222558558D01*
X96878318Y-222730704D01*
X96878315Y-222730714D01*
X96875261Y-222750000D01*
X97684314Y-222750000D01*
X97679920Y-222754394D01*
X97627259Y-222845606D01*
X97600000Y-222947339D01*
X97600000Y-223052661D01*
X97627259Y-223154394D01*
X97679920Y-223245606D01*
X97684314Y-223250000D01*
X96875261Y-223250000D01*
X96878315Y-223269285D01*
X96878318Y-223269295D01*
X96934250Y-223441441D01*
X96934252Y-223441447D01*
X97016434Y-223602734D01*
X97122823Y-223749169D01*
X97250830Y-223877176D01*
X97397265Y-223983565D01*
X97558552Y-224065747D01*
X97558555Y-224065748D01*
X97730699Y-224121680D01*
X97730712Y-224121683D01*
X97750000Y-224124738D01*
X97750000Y-223315686D01*
X97754394Y-223320080D01*
X97845606Y-223372741D01*
X97947339Y-223400000D01*
X98052661Y-223400000D01*
X98154394Y-223372741D01*
X98245606Y-223320080D01*
X98250000Y-223315686D01*
X98250000Y-224124737D01*
X98269287Y-224121683D01*
X98269300Y-224121680D01*
X98441444Y-224065748D01*
X98441447Y-224065747D01*
X98602734Y-223983565D01*
X98749169Y-223877176D01*
X98877172Y-223749173D01*
X98877178Y-223749166D01*
X98899371Y-223718620D01*
X98954700Y-223675953D01*
X99024313Y-223669972D01*
X99086109Y-223702577D01*
X99100008Y-223718617D01*
X99122445Y-223749499D01*
X99250502Y-223877556D01*
X99298384Y-223912343D01*
X99341050Y-223967672D01*
X99349500Y-224012662D01*
X99349500Y-226714394D01*
X99340855Y-226743831D01*
X99334332Y-226773822D01*
X99330577Y-226778837D01*
X99329815Y-226781433D01*
X99313180Y-226802076D01*
X99268622Y-226846633D01*
X99207299Y-226880118D01*
X99137607Y-226875132D01*
X99093261Y-226846632D01*
X98664927Y-226418296D01*
X98664926Y-226418295D01*
X98520543Y-226321822D01*
X98360128Y-226255377D01*
X98360118Y-226255374D01*
X98189823Y-226221500D01*
X98189821Y-226221500D01*
X98189820Y-226221500D01*
X96005500Y-226221500D01*
X95938461Y-226201815D01*
X95892706Y-226149011D01*
X95881500Y-226097500D01*
X95881500Y-224993940D01*
X95869639Y-224934315D01*
X95869639Y-224934310D01*
X95847626Y-224823645D01*
X95847625Y-224823638D01*
X95793246Y-224692357D01*
X95781175Y-224663215D01*
X95716359Y-224566211D01*
X95714647Y-224563649D01*
X95714643Y-224563642D01*
X95684707Y-224518839D01*
X95684701Y-224518832D01*
X93481164Y-222315295D01*
X93336781Y-222218822D01*
X93176366Y-222152377D01*
X93176356Y-222152374D01*
X93006061Y-222118500D01*
X93006059Y-222118500D01*
X93006058Y-222118500D01*
X92784358Y-222118500D01*
X92717319Y-222098815D01*
X92711473Y-222094818D01*
X92602997Y-222016006D01*
X92602996Y-222016005D01*
X92602994Y-222016004D01*
X92551300Y-221989664D01*
X92441639Y-221933788D01*
X92441636Y-221933787D01*
X92269410Y-221877829D01*
X92090551Y-221849500D01*
X92090546Y-221849500D01*
X91909454Y-221849500D01*
X91909449Y-221849500D01*
X91730589Y-221877829D01*
X91558363Y-221933787D01*
X91558360Y-221933788D01*
X91397002Y-222016006D01*
X91250505Y-222122441D01*
X91250500Y-222122445D01*
X91122443Y-222250502D01*
X91100007Y-222281383D01*
X91044676Y-222324048D01*
X90975063Y-222330026D01*
X90913268Y-222297419D01*
X90899372Y-222281381D01*
X90877176Y-222250830D01*
X90749169Y-222122823D01*
X90602734Y-222016434D01*
X90441447Y-221934252D01*
X90441441Y-221934250D01*
X90269295Y-221878318D01*
X90269285Y-221878315D01*
X90250000Y-221875260D01*
X90250000Y-222684314D01*
X90245606Y-222679920D01*
X90154394Y-222627259D01*
X90052661Y-222600000D01*
X89947339Y-222600000D01*
X89845606Y-222627259D01*
X89754394Y-222679920D01*
X89750000Y-222684314D01*
X89750000Y-221875260D01*
X89730714Y-221878315D01*
X89730704Y-221878318D01*
X89558558Y-221934250D01*
X89558552Y-221934252D01*
X89397265Y-222016434D01*
X89250830Y-222122823D01*
X89122823Y-222250830D01*
X89016434Y-222397265D01*
X88934252Y-222558552D01*
X88934251Y-222558555D01*
X88892431Y-222687268D01*
X88852994Y-222744943D01*
X88788635Y-222772142D01*
X88719789Y-222760228D01*
X88668313Y-222712984D01*
X88650500Y-222648950D01*
X88650500Y-220774500D01*
X88670185Y-220707461D01*
X88722989Y-220661706D01*
X88774500Y-220650500D01*
X101679192Y-220650500D01*
X101746231Y-220670185D01*
G37*
%TD.AperFunction*%
%TA.AperFunction,Conductor*%
G36*
X117442539Y-189040185D02*
G01*
X117488294Y-189092989D01*
X117499500Y-189144500D01*
X117499500Y-214551493D01*
X117479815Y-214618532D01*
X117427011Y-214664287D01*
X117357853Y-214674231D01*
X117294297Y-214645206D01*
X117272403Y-214620391D01*
X117270610Y-214617708D01*
X117270604Y-214617699D01*
X117231281Y-214558846D01*
X117231277Y-214558841D01*
X116652408Y-213979972D01*
X116618923Y-213918649D01*
X116623907Y-213848957D01*
X116652404Y-213804614D01*
X116717946Y-213739073D01*
X116809912Y-213589973D01*
X116865015Y-213423682D01*
X116875500Y-213321051D01*
X116875499Y-212598950D01*
X116865015Y-212496318D01*
X116809912Y-212330027D01*
X116717946Y-212180927D01*
X116594073Y-212057054D01*
X116493017Y-211994722D01*
X116444975Y-211965089D01*
X116444970Y-211965087D01*
X116278683Y-211909985D01*
X116176052Y-211899500D01*
X114823956Y-211899500D01*
X114823939Y-211899501D01*
X114721318Y-211909984D01*
X114721315Y-211909985D01*
X114555029Y-211965087D01*
X114555024Y-211965089D01*
X114448104Y-212031039D01*
X114383007Y-212049500D01*
X113308860Y-212049500D01*
X113241821Y-212029815D01*
X113198420Y-211981883D01*
X113192472Y-211970233D01*
X113175010Y-211905062D01*
X113125575Y-211819438D01*
X113104965Y-211798828D01*
X113096059Y-211781383D01*
X113093067Y-211765522D01*
X113085333Y-211751358D01*
X113086724Y-211731897D01*
X113083108Y-211712724D01*
X113089165Y-211697764D01*
X113090317Y-211681666D01*
X113104828Y-211659086D01*
X113109333Y-211647963D01*
X113114174Y-211644544D01*
X113118818Y-211637319D01*
X113125575Y-211630562D01*
X113175010Y-211544938D01*
X113200600Y-211449435D01*
X113200600Y-211350565D01*
X113175010Y-211255062D01*
X113125575Y-211169438D01*
X113055662Y-211099525D01*
X112970038Y-211050090D01*
X112874535Y-211024500D01*
X112874533Y-211024500D01*
X112123600Y-211024500D01*
X112056561Y-211004815D01*
X112010806Y-210952011D01*
X111999600Y-210900500D01*
X111999600Y-210471708D01*
X112008243Y-210442271D01*
X112014767Y-210412282D01*
X112018522Y-210407264D01*
X112019285Y-210404669D01*
X112022226Y-210401019D01*
X114125001Y-210401019D01*
X114135479Y-210503581D01*
X114190544Y-210669757D01*
X114190549Y-210669768D01*
X114282447Y-210818756D01*
X114282450Y-210818760D01*
X114406239Y-210942549D01*
X114406243Y-210942552D01*
X114555231Y-211034450D01*
X114555242Y-211034455D01*
X114721419Y-211089520D01*
X114823987Y-211099999D01*
X115249999Y-211099999D01*
X115750000Y-211099999D01*
X116176003Y-211099999D01*
X116176019Y-211099998D01*
X116278581Y-211089520D01*
X116444757Y-211034455D01*
X116444768Y-211034450D01*
X116593756Y-210942552D01*
X116593760Y-210942549D01*
X116717549Y-210818760D01*
X116717552Y-210818756D01*
X116809450Y-210669768D01*
X116809455Y-210669757D01*
X116864520Y-210503580D01*
X116874999Y-210401018D01*
X116875000Y-210400998D01*
X116875000Y-210290000D01*
X115750000Y-210290000D01*
X115750000Y-211099999D01*
X115249999Y-211099999D01*
X115250000Y-211099998D01*
X115250000Y-210290000D01*
X114125001Y-210290000D01*
X114125001Y-210401019D01*
X112022226Y-210401019D01*
X112035915Y-210384030D01*
X112102931Y-210317013D01*
X112164252Y-210283530D01*
X112166338Y-210283095D01*
X112233497Y-210269737D01*
X112379179Y-210209394D01*
X112379185Y-210209390D01*
X112489716Y-210135536D01*
X112498961Y-210129358D01*
X112510289Y-210121789D01*
X112621789Y-210010289D01*
X112709394Y-209879179D01*
X112711029Y-209875233D01*
X112744555Y-209794293D01*
X112769737Y-209733497D01*
X112780581Y-209678981D01*
X114125000Y-209678981D01*
X114125000Y-209790000D01*
X115250000Y-209790000D01*
X115750000Y-209790000D01*
X116874999Y-209790000D01*
X116874999Y-209678996D01*
X116874998Y-209678980D01*
X116864520Y-209576418D01*
X116809455Y-209410242D01*
X116809450Y-209410231D01*
X116717552Y-209261243D01*
X116717549Y-209261239D01*
X116593760Y-209137450D01*
X116593756Y-209137447D01*
X116444768Y-209045549D01*
X116444757Y-209045544D01*
X116278580Y-208990479D01*
X116176018Y-208980000D01*
X115750000Y-208980000D01*
X115750000Y-209790000D01*
X115250000Y-209790000D01*
X115250000Y-208980000D01*
X114823996Y-208980000D01*
X114823980Y-208980001D01*
X114721418Y-208990479D01*
X114555242Y-209045544D01*
X114555231Y-209045549D01*
X114406243Y-209137447D01*
X114406239Y-209137450D01*
X114282450Y-209261239D01*
X114282447Y-209261243D01*
X114190549Y-209410231D01*
X114190544Y-209410242D01*
X114135479Y-209576419D01*
X114125000Y-209678981D01*
X112780581Y-209678981D01*
X112780581Y-209678980D01*
X112786020Y-209651640D01*
X112786020Y-209651639D01*
X112796097Y-209600979D01*
X112800500Y-209578842D01*
X112800500Y-209421158D01*
X112800500Y-209421155D01*
X112800499Y-209421153D01*
X112795968Y-209398376D01*
X112769737Y-209266503D01*
X112767557Y-209261239D01*
X112709397Y-209120827D01*
X112709390Y-209120814D01*
X112621789Y-208989711D01*
X112621786Y-208989707D01*
X112510292Y-208878213D01*
X112510288Y-208878210D01*
X112379185Y-208790609D01*
X112379172Y-208790602D01*
X112233501Y-208730264D01*
X112233489Y-208730261D01*
X112078845Y-208699500D01*
X112078842Y-208699500D01*
X111921158Y-208699500D01*
X111921155Y-208699500D01*
X111766510Y-208730261D01*
X111766498Y-208730264D01*
X111620827Y-208790602D01*
X111620814Y-208790609D01*
X111489711Y-208878210D01*
X111489707Y-208878213D01*
X111378213Y-208989707D01*
X111378210Y-208989711D01*
X111290609Y-209120814D01*
X111290602Y-209120827D01*
X111230264Y-209266498D01*
X111230261Y-209266508D01*
X111216920Y-209333579D01*
X111184535Y-209395490D01*
X111182984Y-209397068D01*
X110843825Y-209736228D01*
X110843824Y-209736229D01*
X110772634Y-209842774D01*
X110723599Y-209961155D01*
X110723597Y-209961161D01*
X110698600Y-210086828D01*
X110698600Y-211681100D01*
X110678915Y-211748139D01*
X110626111Y-211793894D01*
X110574600Y-211805100D01*
X109750000Y-211805100D01*
X109750000Y-212571346D01*
X110176877Y-212998223D01*
X110765972Y-213587319D01*
X110799457Y-213648642D01*
X110794473Y-213718334D01*
X110765972Y-213762681D01*
X110176877Y-214351777D01*
X109587781Y-214940872D01*
X109526458Y-214974357D01*
X109456766Y-214969373D01*
X109412419Y-214940872D01*
X108823323Y-214351777D01*
X108682865Y-214211319D01*
X108616232Y-214144686D01*
X108847700Y-214144686D01*
X108847700Y-214205314D01*
X108870901Y-214261328D01*
X108913772Y-214304199D01*
X108969786Y-214327400D01*
X109030414Y-214327400D01*
X109086428Y-214304199D01*
X109129299Y-214261328D01*
X109152500Y-214205314D01*
X109152500Y-214174999D01*
X109353653Y-214174999D01*
X109500100Y-214321446D01*
X109646546Y-214175001D01*
X109646546Y-214175000D01*
X109616232Y-214144686D01*
X109847700Y-214144686D01*
X109847700Y-214205314D01*
X109870901Y-214261328D01*
X109913772Y-214304199D01*
X109969786Y-214327400D01*
X110030414Y-214327400D01*
X110086428Y-214304199D01*
X110129299Y-214261328D01*
X110152500Y-214205314D01*
X110152500Y-214144686D01*
X110129299Y-214088672D01*
X110086428Y-214045801D01*
X110030414Y-214022600D01*
X109969786Y-214022600D01*
X109913772Y-214045801D01*
X109870901Y-214088672D01*
X109847700Y-214144686D01*
X109616232Y-214144686D01*
X109500100Y-214028553D01*
X109353653Y-214174999D01*
X109152500Y-214174999D01*
X109152500Y-214144686D01*
X109129299Y-214088672D01*
X109086428Y-214045801D01*
X109030414Y-214022600D01*
X108969786Y-214022600D01*
X108913772Y-214045801D01*
X108870901Y-214088672D01*
X108847700Y-214144686D01*
X108616232Y-214144686D01*
X108337919Y-213866372D01*
X108304434Y-213805049D01*
X108301600Y-213778691D01*
X108301600Y-213718052D01*
X108301599Y-213718050D01*
X108293036Y-213674999D01*
X108853653Y-213674999D01*
X109000100Y-213821446D01*
X109146546Y-213675001D01*
X109146546Y-213675000D01*
X109146545Y-213674999D01*
X109853653Y-213674999D01*
X110000100Y-213821446D01*
X110146546Y-213675001D01*
X110146546Y-213675000D01*
X110000100Y-213528553D01*
X109853653Y-213674999D01*
X109146545Y-213674999D01*
X109000100Y-213528553D01*
X108853653Y-213674999D01*
X108293036Y-213674999D01*
X108287633Y-213647836D01*
X108287632Y-213647832D01*
X108281662Y-213617822D01*
X108287888Y-213548230D01*
X108315598Y-213505947D01*
X108676860Y-213144686D01*
X108847700Y-213144686D01*
X108847700Y-213205314D01*
X108870901Y-213261328D01*
X108913772Y-213304199D01*
X108969786Y-213327400D01*
X109030414Y-213327400D01*
X109086428Y-213304199D01*
X109129299Y-213261328D01*
X109152500Y-213205314D01*
X109152500Y-213144686D01*
X109847700Y-213144686D01*
X109847700Y-213205314D01*
X109870901Y-213261328D01*
X109913772Y-213304199D01*
X109969786Y-213327400D01*
X110030414Y-213327400D01*
X110086428Y-213304199D01*
X110129299Y-213261328D01*
X110152500Y-213205314D01*
X110152500Y-213144686D01*
X110129299Y-213088672D01*
X110086428Y-213045801D01*
X110030414Y-213022600D01*
X109969786Y-213022600D01*
X109913772Y-213045801D01*
X109870901Y-213088672D01*
X109847700Y-213144686D01*
X109152500Y-213144686D01*
X109129299Y-213088672D01*
X109086428Y-213045801D01*
X109030414Y-213022600D01*
X108969786Y-213022600D01*
X108913772Y-213045801D01*
X108870901Y-213088672D01*
X108847700Y-213144686D01*
X108676860Y-213144686D01*
X108823323Y-212998223D01*
X109249999Y-212571546D01*
X109250000Y-212571545D01*
X109250000Y-211805100D01*
X108886268Y-211805100D01*
X108819229Y-211785415D01*
X108773474Y-211732611D01*
X108764651Y-211705292D01*
X108743067Y-211596786D01*
X108743066Y-211596785D01*
X108743066Y-211596781D01*
X108710724Y-211518700D01*
X108682726Y-211451105D01*
X108682719Y-211451092D01*
X108595118Y-211319989D01*
X108595115Y-211319985D01*
X108483621Y-211208491D01*
X108483617Y-211208488D01*
X108352514Y-211120887D01*
X108352501Y-211120880D01*
X108206830Y-211060542D01*
X108206818Y-211060539D01*
X108052174Y-211029778D01*
X108052171Y-211029778D01*
X107894487Y-211029778D01*
X107894484Y-211029778D01*
X107739839Y-211060539D01*
X107739827Y-211060542D01*
X107594156Y-211120880D01*
X107594138Y-211120890D01*
X107548603Y-211151316D01*
X107519920Y-211160297D01*
X107492064Y-211171597D01*
X107486920Y-211170630D01*
X107481926Y-211172194D01*
X107452937Y-211164241D01*
X107423398Y-211158688D01*
X107417759Y-211154590D01*
X107414546Y-211153709D01*
X107394555Y-211138347D01*
X107393268Y-211137131D01*
X107355662Y-211099525D01*
X107350012Y-211096263D01*
X107339442Y-211086276D01*
X107328843Y-211068110D01*
X107314338Y-211052874D01*
X107310354Y-211036424D01*
X107304230Y-211025928D01*
X107304770Y-211013366D01*
X107300600Y-210996143D01*
X107300600Y-208086028D01*
X107275602Y-207960361D01*
X107275601Y-207960360D01*
X107275601Y-207960356D01*
X107226565Y-207841973D01*
X107218095Y-207829297D01*
X107201043Y-207803775D01*
X107201043Y-207803774D01*
X107155379Y-207735434D01*
X107155373Y-207735426D01*
X106817014Y-207397068D01*
X106783529Y-207335745D01*
X106783105Y-207333714D01*
X106769737Y-207266503D01*
X106731563Y-207174342D01*
X106709397Y-207120827D01*
X106709390Y-207120814D01*
X106621789Y-206989711D01*
X106621786Y-206989707D01*
X106510292Y-206878213D01*
X106510288Y-206878210D01*
X106379185Y-206790609D01*
X106379172Y-206790602D01*
X106233501Y-206730264D01*
X106233489Y-206730261D01*
X106078845Y-206699500D01*
X106078842Y-206699500D01*
X105921158Y-206699500D01*
X105921155Y-206699500D01*
X105766510Y-206730261D01*
X105766498Y-206730264D01*
X105620827Y-206790602D01*
X105620814Y-206790609D01*
X105489711Y-206878210D01*
X105489707Y-206878213D01*
X105378213Y-206989707D01*
X105378210Y-206989711D01*
X105290609Y-207120814D01*
X105290602Y-207120827D01*
X105230264Y-207266498D01*
X105230261Y-207266510D01*
X105199500Y-207421153D01*
X105199500Y-207578846D01*
X105230261Y-207733489D01*
X105230264Y-207733501D01*
X105290602Y-207879172D01*
X105290609Y-207879185D01*
X105378210Y-208010288D01*
X105378213Y-208010292D01*
X105489707Y-208121786D01*
X105489711Y-208121789D01*
X105620814Y-208209390D01*
X105620827Y-208209397D01*
X105708230Y-208245599D01*
X105766503Y-208269737D01*
X105833580Y-208283079D01*
X105850337Y-208291844D01*
X105868815Y-208295864D01*
X105893849Y-208314604D01*
X105895490Y-208315463D01*
X105897069Y-208317015D01*
X105963281Y-208383227D01*
X105996766Y-208444550D01*
X105999600Y-208470908D01*
X105999600Y-210980292D01*
X105979915Y-211047331D01*
X105927111Y-211093086D01*
X105857953Y-211103030D01*
X105794397Y-211074005D01*
X105787919Y-211067973D01*
X104611818Y-209891872D01*
X104578333Y-209830549D01*
X104575499Y-209804199D01*
X104575499Y-209249992D01*
X104564999Y-209147203D01*
X104509814Y-208980666D01*
X104417712Y-208831344D01*
X104293656Y-208707288D01*
X104144334Y-208615186D01*
X103977797Y-208560001D01*
X103977795Y-208560000D01*
X103875010Y-208549500D01*
X102824998Y-208549500D01*
X102824980Y-208549501D01*
X102722203Y-208560000D01*
X102722200Y-208560001D01*
X102555668Y-208615185D01*
X102555663Y-208615187D01*
X102406342Y-208707289D01*
X102282289Y-208831342D01*
X102190187Y-208980663D01*
X102190185Y-208980668D01*
X102168686Y-209045549D01*
X102135001Y-209147203D01*
X102135001Y-209147204D01*
X102135000Y-209147204D01*
X102124500Y-209249983D01*
X102124500Y-209850001D01*
X102124501Y-209850019D01*
X102135000Y-209952796D01*
X102135001Y-209952799D01*
X102190185Y-210119331D01*
X102190187Y-210119336D01*
X102282289Y-210268657D01*
X102406346Y-210392714D01*
X102409182Y-210394463D01*
X102410717Y-210396170D01*
X102412011Y-210397193D01*
X102411836Y-210397414D01*
X102455905Y-210446411D01*
X102467126Y-210515374D01*
X102439282Y-210579456D01*
X102409182Y-210605537D01*
X102406346Y-210607285D01*
X102282289Y-210731342D01*
X102190187Y-210880663D01*
X102190185Y-210880668D01*
X102177621Y-210918584D01*
X102135001Y-211047203D01*
X102135001Y-211047204D01*
X102135000Y-211047204D01*
X102124500Y-211149983D01*
X102124500Y-211149996D01*
X102124501Y-211750000D01*
X102124501Y-211750019D01*
X102135000Y-211852796D01*
X102135001Y-211852799D01*
X102190185Y-212019331D01*
X102190187Y-212019336D01*
X102202434Y-212039191D01*
X102282288Y-212168656D01*
X102406344Y-212292712D01*
X102555666Y-212384814D01*
X102722203Y-212439999D01*
X102824991Y-212450500D01*
X103094501Y-212450499D01*
X103161539Y-212470183D01*
X103207294Y-212522987D01*
X103218500Y-212574499D01*
X103218500Y-213596000D01*
X103198815Y-213663039D01*
X103146011Y-213708794D01*
X103094500Y-213720000D01*
X103000000Y-213720000D01*
X103000000Y-213846000D01*
X102980315Y-213913039D01*
X102927511Y-213958794D01*
X102876000Y-213970000D01*
X102025001Y-213970000D01*
X102025001Y-213993322D01*
X102035144Y-214092607D01*
X102088452Y-214253481D01*
X102088457Y-214253492D01*
X102177424Y-214397728D01*
X102177427Y-214397732D01*
X102191660Y-214411965D01*
X102225145Y-214473288D01*
X102220161Y-214542980D01*
X102191662Y-214587325D01*
X102177033Y-214601954D01*
X102177029Y-214601959D01*
X102088001Y-214746294D01*
X102087996Y-214746305D01*
X102034651Y-214907290D01*
X102024500Y-215006647D01*
X102024500Y-215553337D01*
X102024501Y-215553355D01*
X102034650Y-215652707D01*
X102034651Y-215652710D01*
X102087996Y-215813694D01*
X102088001Y-215813705D01*
X102177029Y-215958040D01*
X102177032Y-215958044D01*
X102296955Y-216077967D01*
X102296959Y-216077970D01*
X102441294Y-216166998D01*
X102441297Y-216166999D01*
X102441303Y-216167003D01*
X102602292Y-216220349D01*
X102701655Y-216230500D01*
X102759190Y-216230499D01*
X102826229Y-216250182D01*
X102846872Y-216266818D01*
X103182181Y-216602127D01*
X103215666Y-216663450D01*
X103218500Y-216689808D01*
X103218500Y-219999191D01*
X103198815Y-220066230D01*
X103146011Y-220111985D01*
X103076853Y-220121929D01*
X103013297Y-220092904D01*
X103006819Y-220086872D01*
X102414673Y-219494726D01*
X102401603Y-219485993D01*
X102308127Y-219423535D01*
X102201042Y-219379179D01*
X102189744Y-219374499D01*
X102189738Y-219374497D01*
X102064071Y-219349500D01*
X102064069Y-219349500D01*
X92595662Y-219349500D01*
X92528623Y-219329815D01*
X92507981Y-219313181D01*
X92475000Y-219280200D01*
X90525001Y-219280200D01*
X90492020Y-219313181D01*
X90430697Y-219346666D01*
X90404339Y-219349500D01*
X86369808Y-219349500D01*
X86302769Y-219329815D01*
X86257014Y-219277011D01*
X86247070Y-219207853D01*
X86276095Y-219144297D01*
X86282127Y-219137819D01*
X86479948Y-218939998D01*
X87086207Y-218333737D01*
X87147528Y-218300254D01*
X87217219Y-218305238D01*
X87273153Y-218347109D01*
X87288447Y-218373968D01*
X87290602Y-218379172D01*
X87290609Y-218379185D01*
X87378210Y-218510288D01*
X87378213Y-218510292D01*
X87489707Y-218621786D01*
X87489711Y-218621789D01*
X87620814Y-218709390D01*
X87620827Y-218709397D01*
X87735456Y-218756877D01*
X87766503Y-218769737D01*
X87921153Y-218800499D01*
X87921156Y-218800500D01*
X87921158Y-218800500D01*
X88078844Y-218800500D01*
X88078845Y-218800499D01*
X88233497Y-218769737D01*
X88379179Y-218709394D01*
X88510289Y-218621789D01*
X88621789Y-218510289D01*
X88709394Y-218379179D01*
X88711553Y-218373968D01*
X88729570Y-218330469D01*
X88769737Y-218233497D01*
X88772321Y-218220507D01*
X88804707Y-218158597D01*
X88865423Y-218124023D01*
X88893938Y-218120700D01*
X90598126Y-218120700D01*
X90627566Y-218129344D01*
X90657553Y-218135868D01*
X90662568Y-218139622D01*
X90665165Y-218140385D01*
X90685807Y-218157019D01*
X90691660Y-218162872D01*
X90725145Y-218224195D01*
X90720161Y-218293887D01*
X90691663Y-218338232D01*
X90677424Y-218352471D01*
X90588457Y-218496707D01*
X90588452Y-218496718D01*
X90535144Y-218657593D01*
X90525000Y-218756877D01*
X90525000Y-218780200D01*
X92474999Y-218780200D01*
X92474999Y-218756892D01*
X92474998Y-218756877D01*
X92464855Y-218657592D01*
X92411547Y-218496718D01*
X92411542Y-218496707D01*
X92322575Y-218352471D01*
X92322572Y-218352467D01*
X92308339Y-218338234D01*
X92274854Y-218276911D01*
X92279838Y-218207219D01*
X92308339Y-218162872D01*
X92322968Y-218148244D01*
X92339958Y-218120700D01*
X92411998Y-218003905D01*
X92411997Y-218003905D01*
X92412003Y-218003897D01*
X92465349Y-217842908D01*
X92475500Y-217743545D01*
X92475499Y-217196856D01*
X92474936Y-217191348D01*
X92465349Y-217097492D01*
X92454274Y-217064070D01*
X92453840Y-217062763D01*
X92451439Y-216992935D01*
X92483864Y-216936080D01*
X93503407Y-215916539D01*
X93564730Y-215883054D01*
X93615280Y-215882603D01*
X93651963Y-215889900D01*
X93858026Y-215889900D01*
X93860000Y-215873880D01*
X93860000Y-215524300D01*
X93879685Y-215457261D01*
X93932489Y-215411506D01*
X93984000Y-215400300D01*
X94008555Y-215400300D01*
X94075594Y-215419985D01*
X94121349Y-215472789D01*
X94131293Y-215541947D01*
X94130172Y-215548491D01*
X94109600Y-215651911D01*
X94109600Y-215873446D01*
X94107217Y-215897639D01*
X94106508Y-215901198D01*
X94106506Y-215901209D01*
X94099600Y-215935931D01*
X94099600Y-215957270D01*
X94099600Y-216789071D01*
X94123389Y-216908660D01*
X94123389Y-216908663D01*
X94123390Y-216908663D01*
X94123391Y-216908669D01*
X94124599Y-216914744D01*
X94124600Y-216914746D01*
X94166203Y-217015186D01*
X94173635Y-217033127D01*
X94244823Y-217139669D01*
X94244826Y-217139673D01*
X94386425Y-217281272D01*
X94386428Y-217281274D01*
X94386431Y-217281277D01*
X94490034Y-217350501D01*
X94492973Y-217352465D01*
X94611356Y-217401501D01*
X94611360Y-217401501D01*
X94611361Y-217401502D01*
X94737028Y-217426500D01*
X94737031Y-217426500D01*
X96517350Y-217426500D01*
X96631808Y-217403732D01*
X96701399Y-217409959D01*
X96756577Y-217452821D01*
X96779822Y-217518711D01*
X96780000Y-217525347D01*
X96780000Y-217581782D01*
X96786408Y-217652302D01*
X96786409Y-217652307D01*
X96836981Y-217814596D01*
X96924927Y-217960077D01*
X97045122Y-218080272D01*
X97190604Y-218168219D01*
X97190603Y-218168219D01*
X97352894Y-218218790D01*
X97352893Y-218218790D01*
X97423408Y-218225198D01*
X97423426Y-218225199D01*
X97429999Y-218225198D01*
X97430000Y-218225198D01*
X97430000Y-217374200D01*
X97449685Y-217307161D01*
X97502489Y-217261406D01*
X97554000Y-217250200D01*
X97806000Y-217250200D01*
X97873039Y-217269885D01*
X97918794Y-217322689D01*
X97930000Y-217374200D01*
X97930000Y-218225199D01*
X97936581Y-218225199D01*
X98007102Y-218218791D01*
X98007107Y-218218790D01*
X98169396Y-218168218D01*
X98314877Y-218080272D01*
X98314878Y-218080271D01*
X98411963Y-217983185D01*
X98473286Y-217949699D01*
X98542977Y-217954683D01*
X98587326Y-217983184D01*
X98684811Y-218080669D01*
X98684813Y-218080670D01*
X98684815Y-218080672D01*
X98830394Y-218168678D01*
X98992804Y-218219286D01*
X99063384Y-218225700D01*
X99063387Y-218225700D01*
X99576613Y-218225700D01*
X99576616Y-218225700D01*
X99647196Y-218219286D01*
X99809606Y-218168678D01*
X99955185Y-218080672D01*
X100075472Y-217960385D01*
X100163478Y-217814806D01*
X100180792Y-217759238D01*
X100211493Y-217708451D01*
X100505276Y-217414670D01*
X100553138Y-217343039D01*
X100576464Y-217308129D01*
X100576865Y-217307161D01*
X100625501Y-217189744D01*
X100633307Y-217150500D01*
X100650500Y-217064069D01*
X100650500Y-213446677D01*
X102025000Y-213446677D01*
X102025000Y-213470000D01*
X102750000Y-213470000D01*
X102750000Y-212770000D01*
X102749999Y-212769999D01*
X102701693Y-212770000D01*
X102701675Y-212770001D01*
X102602392Y-212780144D01*
X102441518Y-212833452D01*
X102441507Y-212833457D01*
X102297271Y-212922424D01*
X102297267Y-212922427D01*
X102177427Y-213042267D01*
X102177424Y-213042271D01*
X102088457Y-213186507D01*
X102088452Y-213186518D01*
X102035144Y-213347393D01*
X102025000Y-213446677D01*
X100650500Y-213446677D01*
X100650500Y-212610309D01*
X100650500Y-212610306D01*
X100625502Y-212484638D01*
X100625500Y-212484632D01*
X100620583Y-212472763D01*
X100605189Y-212435599D01*
X100605187Y-212435594D01*
X100576468Y-212366256D01*
X100576462Y-212366246D01*
X100505278Y-212259710D01*
X100505272Y-212259703D01*
X99909495Y-211663926D01*
X99909491Y-211663923D01*
X99802949Y-211592735D01*
X99684566Y-211543699D01*
X99684560Y-211543697D01*
X99558893Y-211518700D01*
X99558891Y-211518700D01*
X99354500Y-211518700D01*
X99287461Y-211499015D01*
X99241706Y-211446211D01*
X99230500Y-211394700D01*
X99230499Y-210951862D01*
X99230498Y-210951844D01*
X99220349Y-210852492D01*
X99220348Y-210852489D01*
X99199192Y-210788645D01*
X99167003Y-210691503D01*
X99166999Y-210691497D01*
X99166998Y-210691494D01*
X99077970Y-210547159D01*
X99077969Y-210547158D01*
X99077968Y-210547156D01*
X98966818Y-210436006D01*
X98933334Y-210374683D01*
X98930500Y-210348325D01*
X98930500Y-207241381D01*
X98950185Y-207174342D01*
X98985610Y-207138278D01*
X99010289Y-207121789D01*
X99121789Y-207010289D01*
X99209394Y-206879179D01*
X99269737Y-206733497D01*
X99300500Y-206578842D01*
X99300500Y-206421158D01*
X99300500Y-206421155D01*
X99300499Y-206421153D01*
X99269738Y-206266510D01*
X99269738Y-206266508D01*
X99269737Y-206266503D01*
X99269735Y-206266498D01*
X99209397Y-206120827D01*
X99209390Y-206120814D01*
X99121789Y-205989711D01*
X99121786Y-205989707D01*
X99010292Y-205878213D01*
X99010288Y-205878210D01*
X98879185Y-205790609D01*
X98879172Y-205790602D01*
X98733501Y-205730264D01*
X98733489Y-205730261D01*
X98578845Y-205699500D01*
X98578842Y-205699500D01*
X98421158Y-205699500D01*
X98421155Y-205699500D01*
X98266510Y-205730261D01*
X98266498Y-205730264D01*
X98120827Y-205790602D01*
X98120814Y-205790609D01*
X97989711Y-205878210D01*
X97989707Y-205878213D01*
X97878213Y-205989707D01*
X97878210Y-205989711D01*
X97790609Y-206120814D01*
X97790602Y-206120827D01*
X97730264Y-206266498D01*
X97730261Y-206266508D01*
X97701707Y-206410058D01*
X97694651Y-206433318D01*
X97654500Y-206530251D01*
X97654497Y-206530261D01*
X97629500Y-206655928D01*
X97629500Y-210348325D01*
X97620855Y-210377765D01*
X97614332Y-210407752D01*
X97610577Y-210412767D01*
X97609815Y-210415364D01*
X97593181Y-210436006D01*
X97587327Y-210441860D01*
X97526004Y-210475345D01*
X97456312Y-210470361D01*
X97411965Y-210441860D01*
X97397732Y-210427627D01*
X97397728Y-210427624D01*
X97253492Y-210338657D01*
X97253481Y-210338652D01*
X97092606Y-210285344D01*
X96993322Y-210275200D01*
X96970000Y-210275200D01*
X96970000Y-211126200D01*
X96950315Y-211193239D01*
X96897511Y-211238994D01*
X96846000Y-211250200D01*
X96594000Y-211250200D01*
X96526961Y-211230515D01*
X96481206Y-211177711D01*
X96470000Y-211126200D01*
X96470000Y-210275199D01*
X96446693Y-210275200D01*
X96446674Y-210275201D01*
X96347392Y-210285344D01*
X96186518Y-210338652D01*
X96186507Y-210338657D01*
X96042271Y-210427624D01*
X96042267Y-210427627D01*
X95922426Y-210547468D01*
X95856082Y-210655028D01*
X95804134Y-210701752D01*
X95735171Y-210712973D01*
X95671089Y-210685129D01*
X95644427Y-210654080D01*
X95639999Y-210646756D01*
X95575472Y-210540015D01*
X95575470Y-210540013D01*
X95575469Y-210540011D01*
X95455188Y-210419730D01*
X95424236Y-210401019D01*
X95309606Y-210331722D01*
X95147196Y-210281114D01*
X95147194Y-210281113D01*
X95147192Y-210281113D01*
X95097778Y-210276623D01*
X95076616Y-210274700D01*
X94563384Y-210274700D01*
X94544145Y-210276448D01*
X94492807Y-210281113D01*
X94330393Y-210331722D01*
X94184811Y-210419730D01*
X94184810Y-210419731D01*
X94087681Y-210516861D01*
X94026358Y-210550346D01*
X93956666Y-210545362D01*
X93912319Y-210516861D01*
X93815188Y-210419730D01*
X93784236Y-210401019D01*
X93669606Y-210331722D01*
X93507196Y-210281114D01*
X93507194Y-210281113D01*
X93507192Y-210281113D01*
X93457778Y-210276623D01*
X93436616Y-210274700D01*
X92923384Y-210274700D01*
X92904145Y-210276448D01*
X92852807Y-210281113D01*
X92690393Y-210331722D01*
X92549169Y-210417096D01*
X92481614Y-210434932D01*
X92415141Y-210413414D01*
X92378904Y-210375131D01*
X92330472Y-210295015D01*
X92330470Y-210295013D01*
X92330469Y-210295011D01*
X92210188Y-210174730D01*
X92122613Y-210121789D01*
X92064606Y-210086722D01*
X91902196Y-210036114D01*
X91902194Y-210036113D01*
X91902192Y-210036113D01*
X91852778Y-210031623D01*
X91831616Y-210029700D01*
X91168384Y-210029700D01*
X91149145Y-210031448D01*
X91097807Y-210036113D01*
X90935393Y-210086722D01*
X90789811Y-210174730D01*
X90669530Y-210295011D01*
X90581522Y-210440593D01*
X90530913Y-210603007D01*
X90524500Y-210673586D01*
X90524500Y-211044700D01*
X90504815Y-211111739D01*
X90452011Y-211157494D01*
X90400500Y-211168700D01*
X90117558Y-211168700D01*
X90050519Y-211149015D01*
X90029877Y-211132381D01*
X89341224Y-210443727D01*
X89341223Y-210443726D01*
X89341219Y-210443723D01*
X89234677Y-210372535D01*
X89152876Y-210338652D01*
X89116294Y-210323499D01*
X89116288Y-210323497D01*
X88990621Y-210298500D01*
X88990619Y-210298500D01*
X87576931Y-210298500D01*
X87576929Y-210298500D01*
X87451261Y-210323497D01*
X87451255Y-210323499D01*
X87332870Y-210372535D01*
X87226331Y-210443722D01*
X87226324Y-210443728D01*
X86906873Y-210763181D01*
X86845550Y-210796666D01*
X86819192Y-210799500D01*
X86278842Y-210799500D01*
X86176236Y-210809983D01*
X86176229Y-210809984D01*
X86009967Y-210865078D01*
X86009962Y-210865080D01*
X85860884Y-210957033D01*
X85737033Y-211080884D01*
X85645080Y-211229962D01*
X85645078Y-211229967D01*
X85589984Y-211396229D01*
X85589984Y-211396232D01*
X85579500Y-211498842D01*
X85579500Y-212039191D01*
X85559815Y-212106230D01*
X85543181Y-212126872D01*
X85070232Y-212599820D01*
X85008909Y-212633305D01*
X84939218Y-212628321D01*
X84939216Y-212628320D01*
X84932483Y-212625808D01*
X84872883Y-212619401D01*
X84872881Y-212619400D01*
X84872873Y-212619400D01*
X84872865Y-212619400D01*
X84703899Y-212619400D01*
X84690385Y-212615432D01*
X84676328Y-212616296D01*
X84657526Y-212605783D01*
X84636860Y-212599715D01*
X84626424Y-212588393D01*
X84615344Y-212582198D01*
X84601732Y-212561604D01*
X84594477Y-212553733D01*
X84591644Y-212548419D01*
X84576465Y-212511773D01*
X84558332Y-212484635D01*
X84505277Y-212405231D01*
X84505275Y-212405229D01*
X84505273Y-212405226D01*
X84094773Y-211994726D01*
X84094769Y-211994723D01*
X83988227Y-211923535D01*
X83982488Y-211921158D01*
X83869844Y-211874499D01*
X83869838Y-211874497D01*
X83744171Y-211849500D01*
X83744169Y-211849500D01*
X79935931Y-211849500D01*
X79935929Y-211849500D01*
X79810261Y-211874497D01*
X79810255Y-211874499D01*
X79691870Y-211923535D01*
X79585331Y-211994722D01*
X79585324Y-211994728D01*
X77994724Y-213585328D01*
X77929933Y-213682297D01*
X77923534Y-213691873D01*
X77874499Y-213810255D01*
X77874497Y-213810261D01*
X77849500Y-213935928D01*
X77849500Y-215350957D01*
X77829815Y-215417996D01*
X77777011Y-215463751D01*
X77707853Y-215473695D01*
X77644297Y-215444670D01*
X77619961Y-215416054D01*
X77609812Y-215399600D01*
X77567712Y-215331344D01*
X77443656Y-215207288D01*
X77294334Y-215115186D01*
X77294330Y-215115184D01*
X77291442Y-215113838D01*
X77289790Y-215112384D01*
X77288187Y-215111395D01*
X77288355Y-215111121D01*
X77239001Y-215067668D01*
X77219847Y-215000475D01*
X77237111Y-214938332D01*
X77262032Y-214896193D01*
X77304504Y-214750000D01*
X76624000Y-214750000D01*
X76615314Y-214747449D01*
X76606353Y-214748738D01*
X76582312Y-214737759D01*
X76556961Y-214730315D01*
X76551033Y-214723474D01*
X76542797Y-214719713D01*
X76528507Y-214697478D01*
X76511206Y-214677511D01*
X76508918Y-214666996D01*
X76505023Y-214660935D01*
X76500000Y-214626000D01*
X76500000Y-214404500D01*
X76519685Y-214337461D01*
X76572489Y-214291706D01*
X76624000Y-214280500D01*
X76734682Y-214280500D01*
X76734690Y-214280500D01*
X76770993Y-214277643D01*
X76849191Y-214254923D01*
X76883787Y-214250000D01*
X77304504Y-214250000D01*
X77262031Y-214103804D01*
X77238261Y-214063611D01*
X77221078Y-213995887D01*
X77238260Y-213937371D01*
X77262494Y-213896395D01*
X77307643Y-213740993D01*
X77310500Y-213704690D01*
X77310500Y-213295310D01*
X77307643Y-213259007D01*
X77291970Y-213205062D01*
X77262495Y-213103609D01*
X77262494Y-213103606D01*
X77262494Y-213103605D01*
X77180117Y-212964313D01*
X77180115Y-212964311D01*
X77180112Y-212964307D01*
X77065692Y-212849887D01*
X77065684Y-212849881D01*
X76926393Y-212767505D01*
X76926390Y-212767504D01*
X76770997Y-212722357D01*
X76770991Y-212722356D01*
X76734697Y-212719500D01*
X76734690Y-212719500D01*
X76265310Y-212719500D01*
X76265302Y-212719500D01*
X76229008Y-212722356D01*
X76229002Y-212722357D01*
X76073609Y-212767504D01*
X76073606Y-212767505D01*
X75927598Y-212853854D01*
X75926577Y-212852128D01*
X75871345Y-212873814D01*
X75860380Y-212874300D01*
X74308760Y-212874300D01*
X74241721Y-212854615D01*
X74198320Y-212806683D01*
X74192372Y-212795033D01*
X74174910Y-212729862D01*
X74125475Y-212644238D01*
X74104865Y-212623628D01*
X74095959Y-212606183D01*
X74092967Y-212590322D01*
X74085233Y-212576158D01*
X74086624Y-212556697D01*
X74083008Y-212537524D01*
X74089065Y-212522564D01*
X74090217Y-212506466D01*
X74104728Y-212483886D01*
X74109233Y-212472763D01*
X74114074Y-212469344D01*
X74118718Y-212462119D01*
X74125475Y-212455362D01*
X74174910Y-212369738D01*
X74200500Y-212274235D01*
X74200500Y-212175365D01*
X74174910Y-212079862D01*
X74125475Y-211994238D01*
X74055562Y-211924325D01*
X73969938Y-211874890D01*
X73969936Y-211874889D01*
X73969935Y-211874889D01*
X73928056Y-211863667D01*
X73868397Y-211827301D01*
X73857050Y-211812784D01*
X73855279Y-211810133D01*
X73855276Y-211810130D01*
X68838374Y-206793227D01*
X68838373Y-206793226D01*
X68838369Y-206793223D01*
X68731827Y-206722035D01*
X68613444Y-206672999D01*
X68613438Y-206672997D01*
X68487771Y-206648000D01*
X68487769Y-206648000D01*
X63502381Y-206648000D01*
X63502379Y-206648000D01*
X63376711Y-206672997D01*
X63376705Y-206672999D01*
X63258324Y-206722034D01*
X63151776Y-206793226D01*
X63151775Y-206793227D01*
X58712181Y-211232822D01*
X58650858Y-211266307D01*
X58581166Y-211261323D01*
X58525233Y-211219451D01*
X58500816Y-211153987D01*
X58500500Y-211145141D01*
X58500500Y-197428711D01*
X88959500Y-197428711D01*
X88959500Y-197671288D01*
X88991161Y-197911785D01*
X89053947Y-198146104D01*
X89146773Y-198370205D01*
X89146776Y-198370212D01*
X89268064Y-198580289D01*
X89268066Y-198580292D01*
X89268067Y-198580293D01*
X89415733Y-198772736D01*
X89415739Y-198772743D01*
X89587256Y-198944260D01*
X89587262Y-198944265D01*
X89779711Y-199091936D01*
X89989788Y-199213224D01*
X90213900Y-199306054D01*
X90448211Y-199368838D01*
X90628586Y-199392584D01*
X90688711Y-199400500D01*
X90688712Y-199400500D01*
X90931289Y-199400500D01*
X90979388Y-199394167D01*
X91171789Y-199368838D01*
X91406100Y-199306054D01*
X91630212Y-199213224D01*
X91840289Y-199091936D01*
X92032738Y-198944265D01*
X92204265Y-198772738D01*
X92351936Y-198580289D01*
X92473224Y-198370212D01*
X92566054Y-198146100D01*
X92628838Y-197911789D01*
X92660500Y-197671288D01*
X92660500Y-197428712D01*
X92628838Y-197188211D01*
X92566054Y-196953900D01*
X92473224Y-196729788D01*
X92351936Y-196519711D01*
X92204265Y-196327262D01*
X92204260Y-196327256D01*
X92032743Y-196155739D01*
X92032736Y-196155733D01*
X91840293Y-196008067D01*
X91840292Y-196008066D01*
X91840289Y-196008064D01*
X91630212Y-195886776D01*
X91630205Y-195886773D01*
X91406104Y-195793947D01*
X91171785Y-195731161D01*
X90931289Y-195699500D01*
X90931288Y-195699500D01*
X90688712Y-195699500D01*
X90688711Y-195699500D01*
X90448214Y-195731161D01*
X90213895Y-195793947D01*
X89989794Y-195886773D01*
X89989785Y-195886777D01*
X89779706Y-196008067D01*
X89587263Y-196155733D01*
X89587256Y-196155739D01*
X89415739Y-196327256D01*
X89415733Y-196327263D01*
X89268067Y-196519706D01*
X89146777Y-196729785D01*
X89146773Y-196729794D01*
X89053947Y-196953895D01*
X88991161Y-197188214D01*
X88959500Y-197428711D01*
X58500500Y-197428711D01*
X58500500Y-189144500D01*
X58520185Y-189077461D01*
X58572989Y-189031706D01*
X58624500Y-189020500D01*
X117375500Y-189020500D01*
X117442539Y-189040185D01*
G37*
%TD.AperFunction*%
%TA.AperFunction,Conductor*%
G36*
X82617539Y-215419285D02*
G01*
X82663294Y-215472089D01*
X82674500Y-215523600D01*
X82674500Y-215927970D01*
X82674501Y-215927976D01*
X82680908Y-215987581D01*
X82680909Y-215987583D01*
X82689377Y-216010288D01*
X82691682Y-216016466D01*
X82699500Y-216059800D01*
X82699500Y-216401000D01*
X82679815Y-216468039D01*
X82627011Y-216513794D01*
X82575500Y-216525000D01*
X82570000Y-216525000D01*
X82570000Y-218474999D01*
X82576581Y-218474999D01*
X82647102Y-218468591D01*
X82647107Y-218468590D01*
X82809396Y-218418018D01*
X82935366Y-218341867D01*
X83002920Y-218324031D01*
X83063663Y-218341866D01*
X83190394Y-218418478D01*
X83352804Y-218469086D01*
X83423384Y-218475500D01*
X83423387Y-218475500D01*
X83936613Y-218475500D01*
X83936616Y-218475500D01*
X84007196Y-218469086D01*
X84169606Y-218418478D01*
X84315185Y-218330472D01*
X84412673Y-218232983D01*
X84473994Y-218199499D01*
X84543685Y-218204483D01*
X84588034Y-218232984D01*
X84685122Y-218330072D01*
X84830604Y-218418019D01*
X84830603Y-218418019D01*
X84887459Y-218435736D01*
X84890388Y-218437687D01*
X84893902Y-218437939D01*
X84919256Y-218456918D01*
X84945607Y-218474473D01*
X84947016Y-218477699D01*
X84949836Y-218479810D01*
X84960902Y-218509480D01*
X84973581Y-218538498D01*
X84973022Y-218541974D01*
X84974253Y-218545274D01*
X84967520Y-218576223D01*
X84962499Y-218607484D01*
X84959929Y-218611119D01*
X84959402Y-218613547D01*
X84938251Y-218641802D01*
X84890310Y-218689744D01*
X84766871Y-218813182D01*
X84705551Y-218846666D01*
X84679192Y-218849500D01*
X81741034Y-218849500D01*
X81673995Y-218829815D01*
X81653353Y-218813181D01*
X81330595Y-218490423D01*
X81297110Y-218429100D01*
X81302094Y-218359408D01*
X81330593Y-218315063D01*
X81412674Y-218232982D01*
X81473995Y-218199499D01*
X81543687Y-218204483D01*
X81588034Y-218232984D01*
X81685122Y-218330072D01*
X81830604Y-218418019D01*
X81830603Y-218418019D01*
X81992894Y-218468590D01*
X81992893Y-218468590D01*
X82063408Y-218474998D01*
X82063426Y-218474999D01*
X82069999Y-218474998D01*
X82070000Y-218474998D01*
X82070000Y-216525000D01*
X82069999Y-216524999D01*
X82063436Y-216525000D01*
X82063417Y-216525001D01*
X81992897Y-216531408D01*
X81992892Y-216531409D01*
X81830603Y-216581981D01*
X81685122Y-216669927D01*
X81685121Y-216669928D01*
X81588035Y-216767015D01*
X81580488Y-216771135D01*
X81575384Y-216778059D01*
X81550280Y-216787630D01*
X81526712Y-216800500D01*
X81518135Y-216799886D01*
X81510099Y-216802951D01*
X81483811Y-216797431D01*
X81457020Y-216795516D01*
X81448346Y-216789986D01*
X81441720Y-216788595D01*
X81414832Y-216768619D01*
X81413312Y-216767650D01*
X81412965Y-216767308D01*
X81315185Y-216669528D01*
X81311482Y-216667289D01*
X81303183Y-216659110D01*
X81289502Y-216634483D01*
X81273119Y-216611564D01*
X81272761Y-216604346D01*
X81269254Y-216598032D01*
X81271059Y-216569920D01*
X81269667Y-216541780D01*
X81273279Y-216535333D01*
X81273731Y-216528306D01*
X81288262Y-216508596D01*
X81302543Y-216483113D01*
X81330472Y-216455185D01*
X81418478Y-216309606D01*
X81469086Y-216147196D01*
X81475500Y-216076616D01*
X81475500Y-215815808D01*
X81495185Y-215748769D01*
X81511819Y-215728127D01*
X81804027Y-215435919D01*
X81865350Y-215402434D01*
X81891708Y-215399600D01*
X82550500Y-215399600D01*
X82617539Y-215419285D01*
G37*
%TD.AperFunction*%
%TA.AperFunction,Conductor*%
G36*
X88603039Y-212019685D02*
G01*
X88648794Y-212072489D01*
X88660000Y-212124000D01*
X88660000Y-213199999D01*
X88721103Y-213199999D01*
X88721117Y-213199998D01*
X88823669Y-213189521D01*
X88989819Y-213134466D01*
X88989822Y-213134465D01*
X89138797Y-213042575D01*
X89138801Y-213042572D01*
X89262572Y-212918801D01*
X89262575Y-212918797D01*
X89354465Y-212769822D01*
X89354466Y-212769819D01*
X89409521Y-212603670D01*
X89409522Y-212603668D01*
X89416192Y-212538375D01*
X89442587Y-212473683D01*
X89499768Y-212433531D01*
X89569579Y-212430667D01*
X89586993Y-212436411D01*
X89607006Y-212444701D01*
X89607010Y-212444701D01*
X89607011Y-212444702D01*
X89732678Y-212469700D01*
X89732681Y-212469700D01*
X91376000Y-212469700D01*
X91443039Y-212489385D01*
X91488794Y-212542189D01*
X91493466Y-212563666D01*
X91500000Y-212570200D01*
X91626000Y-212570200D01*
X91693039Y-212589885D01*
X91738794Y-212642689D01*
X91750000Y-212694200D01*
X91750000Y-213806200D01*
X91730315Y-213873239D01*
X91677511Y-213918994D01*
X91626000Y-213930200D01*
X91500000Y-213930200D01*
X91500000Y-214056200D01*
X91480315Y-214123239D01*
X91427511Y-214168994D01*
X91376000Y-214180200D01*
X90525001Y-214180200D01*
X90525001Y-214186782D01*
X90531408Y-214257302D01*
X90531409Y-214257307D01*
X90581981Y-214419596D01*
X90669927Y-214565077D01*
X90767015Y-214662165D01*
X90800500Y-214723488D01*
X90795516Y-214793180D01*
X90767015Y-214837527D01*
X90669531Y-214935010D01*
X90669530Y-214935011D01*
X90581522Y-215080593D01*
X90530913Y-215243007D01*
X90524500Y-215313586D01*
X90524500Y-215826813D01*
X90530913Y-215897392D01*
X90530913Y-215897394D01*
X90530914Y-215897396D01*
X90581522Y-216059806D01*
X90649843Y-216172823D01*
X90669530Y-216205388D01*
X90789811Y-216325669D01*
X90789813Y-216325670D01*
X90789815Y-216325672D01*
X90891315Y-216387031D01*
X90903399Y-216394336D01*
X90950587Y-216445864D01*
X90962425Y-216514724D01*
X90935156Y-216579052D01*
X90904347Y-216605991D01*
X90796956Y-216672231D01*
X90796955Y-216672232D01*
X90685807Y-216783381D01*
X90624484Y-216816866D01*
X90598126Y-216819700D01*
X88899608Y-216819700D01*
X88832569Y-216800015D01*
X88786814Y-216747211D01*
X88776870Y-216678053D01*
X88805895Y-216614497D01*
X88811917Y-216608027D01*
X89102932Y-216317012D01*
X89164251Y-216283530D01*
X89166316Y-216283099D01*
X89233497Y-216269737D01*
X89379179Y-216209394D01*
X89510289Y-216121789D01*
X89621789Y-216010289D01*
X89709394Y-215879179D01*
X89769737Y-215733497D01*
X89800500Y-215578842D01*
X89800500Y-215421158D01*
X89800500Y-215421155D01*
X89800499Y-215421153D01*
X89798580Y-215411506D01*
X89769737Y-215266503D01*
X89760005Y-215243007D01*
X89709397Y-215120827D01*
X89709390Y-215120814D01*
X89621789Y-214989711D01*
X89621786Y-214989707D01*
X89510292Y-214878213D01*
X89510288Y-214878210D01*
X89379185Y-214790609D01*
X89379172Y-214790602D01*
X89233501Y-214730264D01*
X89233489Y-214730261D01*
X89078845Y-214699500D01*
X89078842Y-214699500D01*
X88921158Y-214699500D01*
X88921155Y-214699500D01*
X88766510Y-214730261D01*
X88766498Y-214730264D01*
X88620827Y-214790602D01*
X88620814Y-214790609D01*
X88489711Y-214878210D01*
X88489707Y-214878213D01*
X88378213Y-214989707D01*
X88378210Y-214989711D01*
X88290609Y-215120814D01*
X88290602Y-215120827D01*
X88230264Y-215266498D01*
X88230261Y-215266508D01*
X88216920Y-215333579D01*
X88184535Y-215395490D01*
X88182984Y-215397068D01*
X86422189Y-217157863D01*
X86360866Y-217191348D01*
X86291174Y-217186364D01*
X86235241Y-217144492D01*
X86217049Y-217103690D01*
X86215544Y-217104160D01*
X86163018Y-216935603D01*
X86075072Y-216790122D01*
X85954877Y-216669927D01*
X85809395Y-216581980D01*
X85809396Y-216581980D01*
X85647105Y-216531409D01*
X85647106Y-216531409D01*
X85576572Y-216525000D01*
X85570000Y-216525000D01*
X85570000Y-217376000D01*
X85550315Y-217443039D01*
X85497511Y-217488794D01*
X85446000Y-217500000D01*
X85194000Y-217500000D01*
X85126961Y-217480315D01*
X85081206Y-217427511D01*
X85070000Y-217376000D01*
X85070000Y-216524999D01*
X85055043Y-216510045D01*
X85021553Y-216448725D01*
X85026532Y-216379033D01*
X85068398Y-216323097D01*
X85182546Y-216237646D01*
X85268796Y-216122431D01*
X85319091Y-215987583D01*
X85325500Y-215927973D01*
X85325499Y-215052228D01*
X85319091Y-214992617D01*
X85308317Y-214963732D01*
X85300500Y-214920400D01*
X85300500Y-214736028D01*
X85275502Y-214610361D01*
X85275501Y-214610360D01*
X85275501Y-214610356D01*
X85226465Y-214491973D01*
X85226461Y-214491966D01*
X85219825Y-214482035D01*
X85219824Y-214482034D01*
X85219823Y-214482032D01*
X85171471Y-214409667D01*
X85150594Y-214342992D01*
X85169079Y-214275612D01*
X85177612Y-214264832D01*
X85177231Y-214264547D01*
X85240372Y-214180200D01*
X85255350Y-214160191D01*
X85307162Y-214119942D01*
X85388227Y-214086365D01*
X85398501Y-214079500D01*
X85494769Y-214015177D01*
X85836319Y-213673627D01*
X90525000Y-213673627D01*
X90525000Y-213680200D01*
X91250000Y-213680200D01*
X91250000Y-212820200D01*
X90525001Y-212820200D01*
X90525001Y-212826782D01*
X90531408Y-212897302D01*
X90531409Y-212897307D01*
X90581981Y-213059596D01*
X90658425Y-213186050D01*
X90676261Y-213253605D01*
X90658425Y-213314350D01*
X90581980Y-213440804D01*
X90531409Y-213603093D01*
X90525000Y-213673627D01*
X85836319Y-213673627D01*
X86273127Y-213236819D01*
X86334450Y-213203334D01*
X86360808Y-213200500D01*
X86901145Y-213200500D01*
X86901150Y-213200500D01*
X87003769Y-213190016D01*
X87170035Y-213134921D01*
X87319114Y-213042968D01*
X87412675Y-212949406D01*
X87473994Y-212915924D01*
X87543686Y-212920908D01*
X87588034Y-212949408D01*
X87681202Y-213042575D01*
X87830177Y-213134465D01*
X87830180Y-213134466D01*
X87996330Y-213189521D01*
X88098889Y-213199999D01*
X88159999Y-213199998D01*
X88160000Y-213199998D01*
X88160000Y-212124000D01*
X88179685Y-212056961D01*
X88232489Y-212011206D01*
X88284000Y-212000000D01*
X88536000Y-212000000D01*
X88603039Y-212019685D01*
G37*
%TD.AperFunction*%
%TA.AperFunction,Conductor*%
G36*
X84326650Y-216370958D02*
G01*
X84350624Y-216369240D01*
X84367387Y-216374160D01*
X84367511Y-216374188D01*
X84367517Y-216374191D01*
X84427127Y-216380600D01*
X84718920Y-216380599D01*
X84785958Y-216400283D01*
X84831713Y-216453087D01*
X84841657Y-216522246D01*
X84812632Y-216585801D01*
X84783070Y-216610715D01*
X84685125Y-216669925D01*
X84685121Y-216669928D01*
X84588035Y-216767015D01*
X84526712Y-216800500D01*
X84457020Y-216795516D01*
X84412673Y-216767015D01*
X84315188Y-216669530D01*
X84315185Y-216669528D01*
X84209257Y-216605492D01*
X84191580Y-216586189D01*
X84171265Y-216569682D01*
X84168359Y-216560833D01*
X84162070Y-216553965D01*
X84157635Y-216528167D01*
X84149470Y-216503298D01*
X84151809Y-216494283D01*
X84150232Y-216485105D01*
X84160447Y-216461006D01*
X84167024Y-216435670D01*
X84173866Y-216429351D01*
X84177501Y-216420777D01*
X84199123Y-216406026D01*
X84218354Y-216388268D01*
X84230230Y-216384806D01*
X84235220Y-216381403D01*
X84251887Y-216377258D01*
X84302764Y-216368292D01*
X84326650Y-216370958D01*
G37*
%TD.AperFunction*%
%TA.AperFunction,Conductor*%
G36*
X63336284Y-208551124D02*
G01*
X63392217Y-208592996D01*
X63416634Y-208658460D01*
X63416950Y-208667306D01*
X63416950Y-209398370D01*
X63416951Y-209398376D01*
X63423358Y-209457983D01*
X63473652Y-209592828D01*
X63473656Y-209592835D01*
X63559902Y-209708044D01*
X63559905Y-209708047D01*
X63675114Y-209794293D01*
X63675121Y-209794297D01*
X63809967Y-209844591D01*
X63809966Y-209844591D01*
X63816894Y-209845335D01*
X63869577Y-209851000D01*
X65172822Y-209850999D01*
X65232433Y-209844591D01*
X65367281Y-209794296D01*
X65482496Y-209708046D01*
X65527571Y-209647832D01*
X65583504Y-209605963D01*
X65653196Y-209600979D01*
X65714518Y-209634464D01*
X66681751Y-210601697D01*
X66696633Y-210628952D01*
X66713265Y-210655193D01*
X66713238Y-210659362D01*
X66715236Y-210663020D01*
X66713020Y-210693997D01*
X66712825Y-210725062D01*
X66710549Y-210728554D01*
X66710252Y-210732712D01*
X66691641Y-210757572D01*
X66674681Y-210783601D01*
X66670012Y-210786464D01*
X66668380Y-210788645D01*
X66644870Y-210802495D01*
X66643202Y-210803244D01*
X66583421Y-210828006D01*
X66573902Y-210834366D01*
X66564437Y-210838617D01*
X66539686Y-210842016D01*
X66515850Y-210849480D01*
X66513637Y-210849500D01*
X65679547Y-210849500D01*
X65612508Y-210829815D01*
X65582276Y-210802405D01*
X65577967Y-210796955D01*
X65528995Y-210747983D01*
X65458044Y-210677032D01*
X65458041Y-210677030D01*
X65458040Y-210677029D01*
X65313705Y-210588001D01*
X65313699Y-210587998D01*
X65313697Y-210587997D01*
X65287922Y-210579456D01*
X65152709Y-210534651D01*
X65053346Y-210524500D01*
X64506662Y-210524500D01*
X64506644Y-210524501D01*
X64407292Y-210534650D01*
X64407289Y-210534651D01*
X64246305Y-210587996D01*
X64246294Y-210588001D01*
X64101959Y-210677029D01*
X64101954Y-210677033D01*
X64087325Y-210691662D01*
X64026001Y-210725146D01*
X63956309Y-210720160D01*
X63911965Y-210691660D01*
X63897732Y-210677427D01*
X63897728Y-210677424D01*
X63753492Y-210588457D01*
X63753481Y-210588452D01*
X63592606Y-210535144D01*
X63493322Y-210525000D01*
X63470000Y-210525000D01*
X63470000Y-211376000D01*
X63450315Y-211443039D01*
X63397511Y-211488794D01*
X63346000Y-211500000D01*
X63220000Y-211500000D01*
X63220000Y-211626000D01*
X63200315Y-211693039D01*
X63147511Y-211738794D01*
X63096000Y-211750000D01*
X62270001Y-211750000D01*
X62270001Y-211798322D01*
X62280144Y-211897607D01*
X62334385Y-212061296D01*
X62336787Y-212131125D01*
X62301055Y-212191166D01*
X62238534Y-212222359D01*
X62216679Y-212224300D01*
X61061129Y-212224300D01*
X60935461Y-212249297D01*
X60935455Y-212249299D01*
X60817075Y-212298333D01*
X60817066Y-212298338D01*
X60710531Y-212369523D01*
X60710527Y-212369526D01*
X59780181Y-213299873D01*
X59718858Y-213333358D01*
X59649166Y-213328374D01*
X59593233Y-213286502D01*
X59568816Y-213221038D01*
X59568500Y-213212192D01*
X59568500Y-212267757D01*
X59588185Y-212200718D01*
X59604814Y-212180081D01*
X60583218Y-211201677D01*
X62270000Y-211201677D01*
X62270000Y-211250000D01*
X62970000Y-211250000D01*
X62970000Y-210524999D01*
X62946693Y-210525000D01*
X62946674Y-210525001D01*
X62847392Y-210535144D01*
X62686518Y-210588452D01*
X62686507Y-210588457D01*
X62542271Y-210677424D01*
X62542267Y-210677427D01*
X62422427Y-210797267D01*
X62422424Y-210797271D01*
X62333457Y-210941507D01*
X62333452Y-210941518D01*
X62280144Y-211102393D01*
X62270000Y-211201677D01*
X60583218Y-211201677D01*
X63205271Y-208579623D01*
X63266592Y-208546140D01*
X63336284Y-208551124D01*
G37*
%TD.AperFunction*%
%TD*%
M02*
